%TF.GenerationSoftware,KiCad,Pcbnew,7.0.9*%
%TF.CreationDate,2023-12-06T10:58:59+01:00*%
%TF.ProjectId,board_fully_integrated,626f6172-645f-4667-956c-6c795f696e74,rev?*%
%TF.SameCoordinates,Original*%
%TF.FileFunction,Paste,Top*%
%TF.FilePolarity,Positive*%
%FSLAX46Y46*%
G04 Gerber Fmt 4.6, Leading zero omitted, Abs format (unit mm)*
G04 Created by KiCad (PCBNEW 7.0.9) date 2023-12-06 10:58:59*
%MOMM*%
%LPD*%
G01*
G04 APERTURE LIST*
G04 Aperture macros list*
%AMRoundRect*
0 Rectangle with rounded corners*
0 $1 Rounding radius*
0 $2 $3 $4 $5 $6 $7 $8 $9 X,Y pos of 4 corners*
0 Add a 4 corners polygon primitive as box body*
4,1,4,$2,$3,$4,$5,$6,$7,$8,$9,$2,$3,0*
0 Add four circle primitives for the rounded corners*
1,1,$1+$1,$2,$3*
1,1,$1+$1,$4,$5*
1,1,$1+$1,$6,$7*
1,1,$1+$1,$8,$9*
0 Add four rect primitives between the rounded corners*
20,1,$1+$1,$2,$3,$4,$5,0*
20,1,$1+$1,$4,$5,$6,$7,0*
20,1,$1+$1,$6,$7,$8,$9,0*
20,1,$1+$1,$8,$9,$2,$3,0*%
G04 Aperture macros list end*
%ADD10R,0.450000X1.450000*%
%ADD11RoundRect,0.135000X-0.135000X-0.185000X0.135000X-0.185000X0.135000X0.185000X-0.135000X0.185000X0*%
%ADD12RoundRect,0.140000X-0.140000X-0.170000X0.140000X-0.170000X0.140000X0.170000X-0.140000X0.170000X0*%
%ADD13RoundRect,0.135000X-0.185000X0.135000X-0.185000X-0.135000X0.185000X-0.135000X0.185000X0.135000X0*%
%ADD14R,0.500000X0.800000*%
%ADD15R,1.000000X0.500000*%
%ADD16R,0.300000X0.800000*%
%ADD17R,1.480000X0.500000*%
%ADD18R,1.500000X0.900000*%
%ADD19R,0.900000X1.500000*%
%ADD20RoundRect,0.225000X0.250000X-0.225000X0.250000X0.225000X-0.250000X0.225000X-0.250000X-0.225000X0*%
%ADD21RoundRect,0.140000X-0.170000X0.140000X-0.170000X-0.140000X0.170000X-0.140000X0.170000X0.140000X0*%
%ADD22R,0.254000X0.558800*%
%ADD23R,0.558800X0.254000*%
%ADD24R,2.000000X1.500000*%
%ADD25R,2.000000X3.800000*%
%ADD26RoundRect,0.250000X0.787500X1.025000X-0.787500X1.025000X-0.787500X-1.025000X0.787500X-1.025000X0*%
%ADD27RoundRect,0.075000X-0.662500X-0.075000X0.662500X-0.075000X0.662500X0.075000X-0.662500X0.075000X0*%
%ADD28RoundRect,0.075000X-0.075000X-0.662500X0.075000X-0.662500X0.075000X0.662500X-0.075000X0.662500X0*%
%ADD29RoundRect,0.075000X0.662500X0.075000X-0.662500X0.075000X-0.662500X-0.075000X0.662500X-0.075000X0*%
%ADD30RoundRect,0.075000X0.075000X0.662500X-0.075000X0.662500X-0.075000X-0.662500X0.075000X-0.662500X0*%
%ADD31RoundRect,0.140000X0.140000X0.170000X-0.140000X0.170000X-0.140000X-0.170000X0.140000X-0.170000X0*%
%ADD32R,0.900000X1.700000*%
%ADD33RoundRect,0.150000X0.512500X0.150000X-0.512500X0.150000X-0.512500X-0.150000X0.512500X-0.150000X0*%
%ADD34RoundRect,0.197500X0.632500X-0.197500X0.632500X0.197500X-0.632500X0.197500X-0.632500X-0.197500X0*%
%ADD35RoundRect,0.135000X0.185000X-0.135000X0.185000X0.135000X-0.185000X0.135000X-0.185000X-0.135000X0*%
%ADD36RoundRect,0.140000X0.170000X-0.140000X0.170000X0.140000X-0.170000X0.140000X-0.170000X-0.140000X0*%
%ADD37RoundRect,0.250000X0.925000X-0.412500X0.925000X0.412500X-0.925000X0.412500X-0.925000X-0.412500X0*%
%ADD38RoundRect,0.135000X0.135000X0.185000X-0.135000X0.185000X-0.135000X-0.185000X0.135000X-0.185000X0*%
G04 APERTURE END LIST*
%TO.C,IC5*%
G36*
X228826900Y-234395700D02*
G01*
X228826900Y-234954500D01*
X228572900Y-234954500D01*
X228572900Y-234548092D01*
X228445900Y-234548092D01*
X228445900Y-234395692D01*
X228826900Y-234395700D01*
G37*
%TO.C,IC2*%
G36*
X217904400Y-234952200D02*
G01*
X217497992Y-234952200D01*
X217497992Y-235079200D01*
X217345592Y-235079200D01*
X217345600Y-234698200D01*
X217904400Y-234698200D01*
X217904400Y-234952200D01*
G37*
%TD*%
D10*
%TO.C,U47*%
X350025000Y-227225100D03*
X350675000Y-227225100D03*
X351325000Y-227225100D03*
X351975000Y-227225100D03*
X351975000Y-222825100D03*
X351325000Y-222825100D03*
X350675000Y-222825100D03*
X350025000Y-222825100D03*
%TD*%
D11*
%TO.C,R21*%
X164980000Y-226025100D03*
X166000000Y-226025100D03*
%TD*%
D10*
%TO.C,U17*%
X133025000Y-227200000D03*
X133675000Y-227200000D03*
X134325000Y-227200000D03*
X134975000Y-227200000D03*
X134975000Y-222800000D03*
X134325000Y-222800000D03*
X133675000Y-222800000D03*
X133025000Y-222800000D03*
%TD*%
%TO.C,U8*%
X70025000Y-227200000D03*
X70675000Y-227200000D03*
X71325000Y-227200000D03*
X71975000Y-227200000D03*
X71975000Y-222800000D03*
X71325000Y-222800000D03*
X70675000Y-222800000D03*
X70025000Y-222800000D03*
%TD*%
D12*
%TO.C,C13*%
X64040000Y-221000000D03*
X65000000Y-221000000D03*
%TD*%
D13*
%TO.C,R29*%
X221000000Y-228005100D03*
X221000000Y-229025100D03*
%TD*%
D12*
%TO.C,C55*%
X365040000Y-221000000D03*
X366000000Y-221000000D03*
%TD*%
D14*
%TO.C,D34*%
X224100000Y-114000000D03*
D15*
X224170000Y-113150000D03*
D16*
X225000000Y-114000000D03*
D14*
X225900000Y-114000000D03*
X225900000Y-112300000D03*
D16*
X225000000Y-112300000D03*
D17*
X225590000Y-113150000D03*
D14*
X224100000Y-112300000D03*
%TD*%
D18*
%TO.C,U60*%
X233740000Y-256875000D03*
X233740000Y-255605000D03*
X233740000Y-254335000D03*
X233740000Y-253065000D03*
X233740000Y-251795000D03*
X233740000Y-250525000D03*
X233740000Y-249255000D03*
X233740000Y-247985000D03*
X233740000Y-246715000D03*
X233740000Y-245445000D03*
X233740000Y-244175000D03*
X233740000Y-242905000D03*
X233740000Y-241635000D03*
X233740000Y-240365000D03*
D19*
X231975000Y-239115000D03*
X230705000Y-239115000D03*
X229435000Y-239115000D03*
X228165000Y-239115000D03*
X226895000Y-239115000D03*
X225625000Y-239115000D03*
X224355000Y-239115000D03*
X223085000Y-239115000D03*
X221815000Y-239115000D03*
X220545000Y-239115000D03*
X219275000Y-239115000D03*
X218005000Y-239115000D03*
D18*
X216240000Y-240365000D03*
X216240000Y-241635000D03*
X216240000Y-242905000D03*
X216240000Y-244175000D03*
X216240000Y-245445000D03*
X216240000Y-246715000D03*
X216240000Y-247985000D03*
X216240000Y-249255000D03*
X216240000Y-250525000D03*
X216240000Y-251795000D03*
X216240000Y-253065000D03*
X216240000Y-254335000D03*
X216240000Y-255605000D03*
X216240000Y-256875000D03*
%TD*%
D10*
%TO.C,U46*%
X343025000Y-227225100D03*
X343675000Y-227225100D03*
X344325000Y-227225100D03*
X344975000Y-227225100D03*
X344975000Y-222825100D03*
X344325000Y-222825100D03*
X343675000Y-222825100D03*
X343025000Y-222825100D03*
%TD*%
%TO.C,U55*%
X406025000Y-227225100D03*
X406675000Y-227225100D03*
X407325000Y-227225100D03*
X407975000Y-227225100D03*
X407975000Y-222825100D03*
X407325000Y-222825100D03*
X406675000Y-222825100D03*
X406025000Y-222825100D03*
%TD*%
D20*
%TO.C,C1*%
X252000000Y-213775000D03*
X252000000Y-212225000D03*
%TD*%
D12*
%TO.C,C27*%
X162020000Y-221000000D03*
X162980000Y-221000000D03*
%TD*%
D11*
%TO.C,R9*%
X80980000Y-226025100D03*
X82000000Y-226025100D03*
%TD*%
%TO.C,R23*%
X178980000Y-226025100D03*
X180000000Y-226025100D03*
%TD*%
D10*
%TO.C,U26*%
X196025000Y-227200000D03*
X196675000Y-227200000D03*
X197325000Y-227200000D03*
X197975000Y-227200000D03*
X197975000Y-222800000D03*
X197325000Y-222800000D03*
X196675000Y-222800000D03*
X196025000Y-222800000D03*
%TD*%
%TO.C,U37*%
X280025000Y-227225100D03*
X280675000Y-227225100D03*
X281325000Y-227225100D03*
X281975000Y-227225100D03*
X281975000Y-222825100D03*
X281325000Y-222825100D03*
X280675000Y-222825100D03*
X280025000Y-222825100D03*
%TD*%
D12*
%TO.C,C34*%
X211020000Y-221000000D03*
X211980000Y-221000000D03*
%TD*%
D10*
%TO.C,U40*%
X301025000Y-227225100D03*
X301675000Y-227225100D03*
X302325000Y-227225100D03*
X302975000Y-227225100D03*
X302975000Y-222825100D03*
X302325000Y-222825100D03*
X301675000Y-222825100D03*
X301025000Y-222825100D03*
%TD*%
D11*
%TO.C,R54*%
X403080416Y-226042324D03*
X404100416Y-226042324D03*
%TD*%
D12*
%TO.C,C58*%
X386040000Y-221000000D03*
X387000000Y-221000000D03*
%TD*%
D11*
%TO.C,R32*%
X249080416Y-226042324D03*
X250100416Y-226042324D03*
%TD*%
D14*
%TO.C,D20*%
X224100000Y-163000000D03*
D15*
X224170000Y-162150000D03*
D16*
X225000000Y-163000000D03*
D14*
X225900000Y-163000000D03*
X225900000Y-161300000D03*
D16*
X225000000Y-161300000D03*
D17*
X225590000Y-162150000D03*
D14*
X224100000Y-161300000D03*
%TD*%
D12*
%TO.C,C37*%
X239040000Y-221000000D03*
X240000000Y-221000000D03*
%TD*%
D21*
%TO.C,C3*%
X236369990Y-255296859D03*
X236369990Y-256256859D03*
%TD*%
D10*
%TO.C,U11*%
X91025000Y-227200000D03*
X91675000Y-227200000D03*
X92325000Y-227200000D03*
X92975000Y-227200000D03*
X92975000Y-222800000D03*
X92325000Y-222800000D03*
X91675000Y-222800000D03*
X91025000Y-222800000D03*
%TD*%
D22*
%TO.C,IC5*%
X228699900Y-234675100D03*
X229099950Y-234675100D03*
X229500000Y-234675100D03*
X229900050Y-234675100D03*
X230300100Y-234675100D03*
D23*
X230275000Y-234050100D03*
D22*
X230300100Y-233425100D03*
X229900050Y-233425100D03*
X229500000Y-233425100D03*
X229099950Y-233425100D03*
X228699900Y-233425100D03*
D23*
X228725000Y-234050100D03*
%TD*%
D10*
%TO.C,U50*%
X371025000Y-227225100D03*
X371675000Y-227225100D03*
X372325000Y-227225100D03*
X372975000Y-227225100D03*
X372975000Y-222825100D03*
X372325000Y-222825100D03*
X371675000Y-222825100D03*
X371025000Y-222825100D03*
%TD*%
%TO.C,U27*%
X203025000Y-227200000D03*
X203675000Y-227200000D03*
X204325000Y-227200000D03*
X204975000Y-227200000D03*
X204975000Y-222800000D03*
X204325000Y-222800000D03*
X203675000Y-222800000D03*
X203025000Y-222800000D03*
%TD*%
D24*
%TO.C,IC3*%
X247268000Y-214155000D03*
X247268000Y-211855000D03*
X247268000Y-209555000D03*
D25*
X240968000Y-211855000D03*
%TD*%
D10*
%TO.C,U41*%
X308025000Y-227225100D03*
X308675000Y-227225100D03*
X309325000Y-227225100D03*
X309975000Y-227225100D03*
X309975000Y-222825100D03*
X309325000Y-222825100D03*
X308675000Y-222825100D03*
X308025000Y-222825100D03*
%TD*%
D26*
%TO.C,C66*%
X261903806Y-201440053D03*
X255678806Y-201440053D03*
%TD*%
D27*
%TO.C,IC1*%
X192499452Y-240348000D03*
X192499452Y-240848000D03*
X192499452Y-241348000D03*
X192499452Y-241848000D03*
X192499452Y-242348000D03*
X192499452Y-242848000D03*
X192499452Y-243348000D03*
X192499452Y-243848000D03*
X192499452Y-244348000D03*
X192499452Y-244848000D03*
X192499452Y-245348000D03*
X192499452Y-245848000D03*
D28*
X193911952Y-247260500D03*
X194411952Y-247260500D03*
X194911952Y-247260500D03*
X195411952Y-247260500D03*
X195911952Y-247260500D03*
X196411952Y-247260500D03*
X196911952Y-247260500D03*
X197411952Y-247260500D03*
X197911952Y-247260500D03*
X198411952Y-247260500D03*
X198911952Y-247260500D03*
X199411952Y-247260500D03*
D27*
X200824452Y-245848000D03*
X200824452Y-245348000D03*
X200824452Y-244848000D03*
X200824452Y-244348000D03*
X200824452Y-243848000D03*
X200824452Y-243348000D03*
X200824452Y-242848000D03*
X200824452Y-242348000D03*
X200824452Y-241848000D03*
X200824452Y-241348000D03*
X200824452Y-240848000D03*
X200824452Y-240348000D03*
D28*
X199411952Y-238935500D03*
X198911952Y-238935500D03*
X198411952Y-238935500D03*
X197911952Y-238935500D03*
X197411952Y-238935500D03*
X196911952Y-238935500D03*
X196411952Y-238935500D03*
X195911952Y-238935500D03*
X195411952Y-238935500D03*
X194911952Y-238935500D03*
X194411952Y-238935500D03*
X193911952Y-238935500D03*
%TD*%
D11*
%TO.C,R10*%
X87980000Y-226025100D03*
X89000000Y-226025100D03*
%TD*%
D14*
%TO.C,D35*%
X224100000Y-110500000D03*
D15*
X224170000Y-109650000D03*
D16*
X225000000Y-110500000D03*
D14*
X225900000Y-110500000D03*
X225900000Y-108800000D03*
D16*
X225000000Y-108800000D03*
D17*
X225590000Y-109650000D03*
D14*
X224100000Y-108800000D03*
%TD*%
D29*
%TO.C,IC4*%
X257824452Y-245848000D03*
X257824452Y-245348000D03*
X257824452Y-244848000D03*
X257824452Y-244348000D03*
X257824452Y-243848000D03*
X257824452Y-243348000D03*
X257824452Y-242848000D03*
X257824452Y-242348000D03*
X257824452Y-241848000D03*
X257824452Y-241348000D03*
X257824452Y-240848000D03*
X257824452Y-240348000D03*
D30*
X256411952Y-238935500D03*
X255911952Y-238935500D03*
X255411952Y-238935500D03*
X254911952Y-238935500D03*
X254411952Y-238935500D03*
X253911952Y-238935500D03*
X253411952Y-238935500D03*
X252911952Y-238935500D03*
X252411952Y-238935500D03*
X251911952Y-238935500D03*
X251411952Y-238935500D03*
X250911952Y-238935500D03*
D29*
X249499452Y-240348000D03*
X249499452Y-240848000D03*
X249499452Y-241348000D03*
X249499452Y-241848000D03*
X249499452Y-242348000D03*
X249499452Y-242848000D03*
X249499452Y-243348000D03*
X249499452Y-243848000D03*
X249499452Y-244348000D03*
X249499452Y-244848000D03*
X249499452Y-245348000D03*
X249499452Y-245848000D03*
D30*
X250911952Y-247260500D03*
X251411952Y-247260500D03*
X251911952Y-247260500D03*
X252411952Y-247260500D03*
X252911952Y-247260500D03*
X253411952Y-247260500D03*
X253911952Y-247260500D03*
X254411952Y-247260500D03*
X254911952Y-247260500D03*
X255411952Y-247260500D03*
X255911952Y-247260500D03*
X256411952Y-247260500D03*
%TD*%
D12*
%TO.C,C20*%
X113020000Y-221000000D03*
X113980000Y-221000000D03*
%TD*%
D14*
%TO.C,D44*%
X224100000Y-79000000D03*
D15*
X224170000Y-78150000D03*
D16*
X225000000Y-79000000D03*
D14*
X225900000Y-79000000D03*
X225900000Y-77300000D03*
D16*
X225000000Y-77300000D03*
D17*
X225590000Y-78150000D03*
D14*
X224100000Y-77300000D03*
%TD*%
%TO.C,D4*%
X224100000Y-219000000D03*
D15*
X224170000Y-218150000D03*
D16*
X225000000Y-219000000D03*
D14*
X225900000Y-219000000D03*
X225900000Y-217300000D03*
D16*
X225000000Y-217300000D03*
D17*
X225590000Y-218150000D03*
D14*
X224100000Y-217300000D03*
%TD*%
%TO.C,D48*%
X224100000Y-65000000D03*
D15*
X224170000Y-64150000D03*
D16*
X225000000Y-65000000D03*
D14*
X225900000Y-65000000D03*
X225900000Y-63300000D03*
D16*
X225000000Y-63300000D03*
D17*
X225590000Y-64150000D03*
D14*
X224100000Y-63300000D03*
%TD*%
D11*
%TO.C,R7*%
X66980000Y-226025100D03*
X68000000Y-226025100D03*
%TD*%
D10*
%TO.C,U52*%
X385025000Y-227225100D03*
X385675000Y-227225100D03*
X386325000Y-227225100D03*
X386975000Y-227225100D03*
X386975000Y-222825100D03*
X386325000Y-222825100D03*
X385675000Y-222825100D03*
X385025000Y-222825100D03*
%TD*%
D11*
%TO.C,R15*%
X122980000Y-226025100D03*
X124000000Y-226025100D03*
%TD*%
D12*
%TO.C,C24*%
X141020000Y-221000000D03*
X141980000Y-221000000D03*
%TD*%
D10*
%TO.C,U31*%
X238025000Y-227225100D03*
X238675000Y-227225100D03*
X239325000Y-227225100D03*
X239975000Y-227225100D03*
X239975000Y-222825100D03*
X239325000Y-222825100D03*
X238675000Y-222825100D03*
X238025000Y-222825100D03*
%TD*%
D11*
%TO.C,R19*%
X150980000Y-226025100D03*
X152000000Y-226025100D03*
%TD*%
D31*
%TO.C,C6*%
X216992845Y-236473624D03*
X216032845Y-236473624D03*
%TD*%
D12*
%TO.C,C32*%
X197000000Y-221000000D03*
X197960000Y-221000000D03*
%TD*%
D14*
%TO.C,D52*%
X224100000Y-51000000D03*
D15*
X224170000Y-50150000D03*
D16*
X225000000Y-51000000D03*
D14*
X225900000Y-51000000D03*
X225900000Y-49300000D03*
D16*
X225000000Y-49300000D03*
D17*
X225590000Y-50150000D03*
D14*
X224100000Y-49300000D03*
%TD*%
%TO.C,D19*%
X224100000Y-166500000D03*
D15*
X224170000Y-165650000D03*
D16*
X225000000Y-166500000D03*
D14*
X225900000Y-166500000D03*
X225900000Y-164800000D03*
D16*
X225000000Y-164800000D03*
D17*
X225590000Y-165650000D03*
D14*
X224100000Y-164800000D03*
%TD*%
D32*
%TO.C,SW2*%
X244480000Y-254845000D03*
X241080000Y-254845000D03*
%TD*%
D11*
%TO.C,R18*%
X143980000Y-226025100D03*
X145000000Y-226025100D03*
%TD*%
D14*
%TO.C,D21*%
X224100000Y-159500000D03*
D15*
X224170000Y-158650000D03*
D16*
X225000000Y-159500000D03*
D14*
X225900000Y-159500000D03*
X225900000Y-157800000D03*
D16*
X225000000Y-157800000D03*
D17*
X225590000Y-158650000D03*
D14*
X224100000Y-157800000D03*
%TD*%
%TO.C,D32*%
X224100000Y-121000000D03*
D15*
X224170000Y-120150000D03*
D16*
X225000000Y-121000000D03*
D14*
X225900000Y-121000000D03*
X225900000Y-119300000D03*
D16*
X225000000Y-119300000D03*
D17*
X225590000Y-120150000D03*
D14*
X224100000Y-119300000D03*
%TD*%
%TO.C,D31*%
X224100000Y-124500000D03*
D15*
X224170000Y-123650000D03*
D16*
X225000000Y-124500000D03*
D14*
X225900000Y-124500000D03*
X225900000Y-122800000D03*
D16*
X225000000Y-122800000D03*
D17*
X225590000Y-123650000D03*
D14*
X224100000Y-122800000D03*
%TD*%
D10*
%TO.C,U49*%
X364025000Y-227225100D03*
X364675000Y-227225100D03*
X365325000Y-227225100D03*
X365975000Y-227225100D03*
X365975000Y-222825100D03*
X365325000Y-222825100D03*
X364675000Y-222825100D03*
X364025000Y-222825100D03*
%TD*%
D14*
%TO.C,D16*%
X224100000Y-177000000D03*
D15*
X224170000Y-176150000D03*
D16*
X225000000Y-177000000D03*
D14*
X225900000Y-177000000D03*
X225900000Y-175300000D03*
D16*
X225000000Y-175300000D03*
D17*
X225590000Y-176150000D03*
D14*
X224100000Y-175300000D03*
%TD*%
D12*
%TO.C,C30*%
X183020000Y-221000000D03*
X183980000Y-221000000D03*
%TD*%
D14*
%TO.C,D29*%
X224100000Y-131500000D03*
D15*
X224170000Y-130650000D03*
D16*
X225000000Y-131500000D03*
D14*
X225900000Y-131500000D03*
X225900000Y-129800000D03*
D16*
X225000000Y-129800000D03*
D17*
X225590000Y-130650000D03*
D14*
X224100000Y-129800000D03*
%TD*%
D11*
%TO.C,R11*%
X94980000Y-226025100D03*
X96000000Y-226025100D03*
%TD*%
D33*
%TO.C,U1*%
X234000000Y-216102556D03*
X234000000Y-215152556D03*
X234000000Y-214202556D03*
X231725000Y-214202556D03*
X231725000Y-216102556D03*
%TD*%
D14*
%TO.C,D18*%
X224100000Y-170000000D03*
D15*
X224170000Y-169150000D03*
D16*
X225000000Y-170000000D03*
D14*
X225900000Y-170000000D03*
X225900000Y-168300000D03*
D16*
X225000000Y-168300000D03*
D17*
X225590000Y-169150000D03*
D14*
X224100000Y-168300000D03*
%TD*%
D11*
%TO.C,R45*%
X340080416Y-226042324D03*
X341100416Y-226042324D03*
%TD*%
%TO.C,R48*%
X361080416Y-226042324D03*
X362100416Y-226042324D03*
%TD*%
D14*
%TO.C,D9*%
X224100000Y-201500000D03*
D15*
X224170000Y-200650000D03*
D16*
X225000000Y-201500000D03*
D14*
X225900000Y-201500000D03*
X225900000Y-199800000D03*
D16*
X225000000Y-199800000D03*
D17*
X225590000Y-200650000D03*
D14*
X224100000Y-199800000D03*
%TD*%
D11*
%TO.C,R49*%
X368080416Y-226042324D03*
X369100416Y-226042324D03*
%TD*%
D10*
%TO.C,U14*%
X112025000Y-227200000D03*
X112675000Y-227200000D03*
X113325000Y-227200000D03*
X113975000Y-227200000D03*
X113975000Y-222800000D03*
X113325000Y-222800000D03*
X112675000Y-222800000D03*
X112025000Y-222800000D03*
%TD*%
D11*
%TO.C,R36*%
X277080416Y-226042324D03*
X278100416Y-226042324D03*
%TD*%
D10*
%TO.C,U42*%
X315025000Y-227225100D03*
X315675000Y-227225100D03*
X316325000Y-227225100D03*
X316975000Y-227225100D03*
X316975000Y-222825100D03*
X316325000Y-222825100D03*
X315675000Y-222825100D03*
X315025000Y-222825100D03*
%TD*%
D14*
%TO.C,D15*%
X224100000Y-180500000D03*
D15*
X224170000Y-179650000D03*
D16*
X225000000Y-180500000D03*
D14*
X225900000Y-180500000D03*
X225900000Y-178800000D03*
D16*
X225000000Y-178800000D03*
D17*
X225590000Y-179650000D03*
D14*
X224100000Y-178800000D03*
%TD*%
D12*
%TO.C,C45*%
X295000000Y-221000000D03*
X295960000Y-221000000D03*
%TD*%
D11*
%TO.C,R47*%
X354080416Y-226042324D03*
X355100416Y-226042324D03*
%TD*%
%TO.C,R34*%
X263080416Y-226042324D03*
X264100416Y-226042324D03*
%TD*%
D12*
%TO.C,C25*%
X148000000Y-221000000D03*
X148960000Y-221000000D03*
%TD*%
D11*
%TO.C,R39*%
X298080416Y-226042324D03*
X299100416Y-226042324D03*
%TD*%
%TO.C,R42*%
X319080416Y-226042324D03*
X320100416Y-226042324D03*
%TD*%
D14*
%TO.C,D25*%
X224100000Y-145500000D03*
D15*
X224170000Y-144650000D03*
D16*
X225000000Y-145500000D03*
D14*
X225900000Y-145500000D03*
X225900000Y-143800000D03*
D16*
X225000000Y-143800000D03*
D17*
X225590000Y-144650000D03*
D14*
X224100000Y-143800000D03*
%TD*%
D31*
%TO.C,C65*%
X227485000Y-230500000D03*
X226525000Y-230500000D03*
%TD*%
D14*
%TO.C,D42*%
X224100000Y-86000000D03*
D15*
X224170000Y-85150000D03*
D16*
X225000000Y-86000000D03*
D14*
X225900000Y-86000000D03*
X225900000Y-84300000D03*
D16*
X225000000Y-84300000D03*
D17*
X225590000Y-85150000D03*
D14*
X224100000Y-84300000D03*
%TD*%
%TO.C,D3*%
X224100000Y-222500000D03*
D15*
X224170000Y-221650000D03*
D16*
X225000000Y-222500000D03*
D14*
X225900000Y-222500000D03*
X225900000Y-220800000D03*
D16*
X225000000Y-220800000D03*
D17*
X225590000Y-221650000D03*
D14*
X224100000Y-220800000D03*
%TD*%
%TO.C,D30*%
X224100000Y-128000000D03*
D15*
X224170000Y-127150000D03*
D16*
X225000000Y-128000000D03*
D14*
X225900000Y-128000000D03*
X225900000Y-126300000D03*
D16*
X225000000Y-126300000D03*
D17*
X225590000Y-127150000D03*
D14*
X224100000Y-126300000D03*
%TD*%
D11*
%TO.C,R41*%
X312080416Y-226042324D03*
X313100416Y-226042324D03*
%TD*%
D34*
%TO.C,U61*%
X223000000Y-225900000D03*
X227000000Y-225900000D03*
X227000000Y-224100000D03*
X223000000Y-224100000D03*
%TD*%
D14*
%TO.C,D53*%
X224100000Y-47500000D03*
D15*
X224170000Y-46650000D03*
D16*
X225000000Y-47500000D03*
D14*
X225900000Y-47500000D03*
X225900000Y-45800000D03*
D16*
X225000000Y-45800000D03*
D17*
X225590000Y-46650000D03*
D14*
X224100000Y-45800000D03*
%TD*%
D10*
%TO.C,U25*%
X189025000Y-227200000D03*
X189675000Y-227200000D03*
X190325000Y-227200000D03*
X190975000Y-227200000D03*
X190975000Y-222800000D03*
X190325000Y-222800000D03*
X189675000Y-222800000D03*
X189025000Y-222800000D03*
%TD*%
D14*
%TO.C,D37*%
X224100000Y-103500000D03*
D15*
X224170000Y-102650000D03*
D16*
X225000000Y-103500000D03*
D14*
X225900000Y-103500000D03*
X225900000Y-101800000D03*
D16*
X225000000Y-101800000D03*
D17*
X225590000Y-102650000D03*
D14*
X224100000Y-101800000D03*
%TD*%
%TO.C,D39*%
X224100000Y-96500000D03*
D15*
X224170000Y-95650000D03*
D16*
X225000000Y-96500000D03*
D14*
X225900000Y-96500000D03*
X225900000Y-94800000D03*
D16*
X225000000Y-94800000D03*
D17*
X225590000Y-95650000D03*
D14*
X224100000Y-94800000D03*
%TD*%
%TO.C,D11*%
X224100000Y-194500000D03*
D15*
X224170000Y-193650000D03*
D16*
X225000000Y-194500000D03*
D14*
X225900000Y-194500000D03*
X225900000Y-192800000D03*
D16*
X225000000Y-192800000D03*
D17*
X225590000Y-193650000D03*
D14*
X224100000Y-192800000D03*
%TD*%
D11*
%TO.C,R31*%
X242095416Y-226042324D03*
X243115416Y-226042324D03*
%TD*%
D12*
%TO.C,C47*%
X309000000Y-221000000D03*
X309960000Y-221000000D03*
%TD*%
%TO.C,C17*%
X92020000Y-221000000D03*
X92980000Y-221000000D03*
%TD*%
D10*
%TO.C,U51*%
X378025000Y-227225100D03*
X378675000Y-227225100D03*
X379325000Y-227225100D03*
X379975000Y-227225100D03*
X379975000Y-222825100D03*
X379325000Y-222825100D03*
X378675000Y-222825100D03*
X378025000Y-222825100D03*
%TD*%
D23*
%TO.C,IC2*%
X217625000Y-234825200D03*
X217625000Y-234425150D03*
X217625000Y-234025100D03*
X217625000Y-233625050D03*
X217625000Y-233225000D03*
D22*
X217000000Y-233250100D03*
D23*
X216375000Y-233225000D03*
X216375000Y-233625050D03*
X216375000Y-234025100D03*
X216375000Y-234425150D03*
X216375000Y-234825200D03*
D22*
X217000000Y-234800100D03*
%TD*%
D14*
%TO.C,D45*%
X224100000Y-75500000D03*
D15*
X224170000Y-74650000D03*
D16*
X225000000Y-75500000D03*
D14*
X225900000Y-75500000D03*
X225900000Y-73800000D03*
D16*
X225000000Y-73800000D03*
D17*
X225590000Y-74650000D03*
D14*
X224100000Y-73800000D03*
%TD*%
D31*
%TO.C,C63*%
X233745709Y-217514260D03*
X232785709Y-217514260D03*
%TD*%
D11*
%TO.C,R43*%
X326080416Y-226042324D03*
X327100416Y-226042324D03*
%TD*%
D12*
%TO.C,C59*%
X393040000Y-221000000D03*
X394000000Y-221000000D03*
%TD*%
D10*
%TO.C,U5*%
X49025000Y-227200000D03*
X49675000Y-227200000D03*
X50325000Y-227200000D03*
X50975000Y-227200000D03*
X50975000Y-222800000D03*
X50325000Y-222800000D03*
X49675000Y-222800000D03*
X49025000Y-222800000D03*
%TD*%
D11*
%TO.C,R26*%
X199980000Y-226025100D03*
X201000000Y-226025100D03*
%TD*%
D14*
%TO.C,D13*%
X224100000Y-187500000D03*
D15*
X224170000Y-186650000D03*
D16*
X225000000Y-187500000D03*
D14*
X225900000Y-187500000D03*
X225900000Y-185800000D03*
D16*
X225000000Y-185800000D03*
D17*
X225590000Y-186650000D03*
D14*
X224100000Y-185800000D03*
%TD*%
D10*
%TO.C,U48*%
X357025000Y-227225100D03*
X357675000Y-227225100D03*
X358325000Y-227225100D03*
X358975000Y-227225100D03*
X358975000Y-222825100D03*
X358325000Y-222825100D03*
X357675000Y-222825100D03*
X357025000Y-222825100D03*
%TD*%
D14*
%TO.C,D6*%
X224100000Y-212000000D03*
D15*
X224170000Y-211150000D03*
D16*
X225000000Y-212000000D03*
D14*
X225900000Y-212000000D03*
X225900000Y-210300000D03*
D16*
X225000000Y-210300000D03*
D17*
X225590000Y-211150000D03*
D14*
X224100000Y-210300000D03*
%TD*%
%TO.C,D33*%
X224100000Y-117500000D03*
D15*
X224170000Y-116650000D03*
D16*
X225000000Y-117500000D03*
D14*
X225900000Y-117500000D03*
X225900000Y-115800000D03*
D16*
X225000000Y-115800000D03*
D17*
X225590000Y-116650000D03*
D14*
X224100000Y-115800000D03*
%TD*%
D10*
%TO.C,U54*%
X399025000Y-227225100D03*
X399675000Y-227225100D03*
X400325000Y-227225100D03*
X400975000Y-227225100D03*
X400975000Y-222825100D03*
X400325000Y-222825100D03*
X399675000Y-222825100D03*
X399025000Y-222825100D03*
%TD*%
D14*
%TO.C,D54*%
X224100000Y-44000000D03*
D15*
X224170000Y-43150000D03*
D16*
X225000000Y-44000000D03*
D14*
X225900000Y-44000000D03*
X225900000Y-42300000D03*
D16*
X225000000Y-42300000D03*
D17*
X225590000Y-43150000D03*
D14*
X224100000Y-42300000D03*
%TD*%
%TO.C,D36*%
X224100000Y-107000000D03*
D15*
X224170000Y-106150000D03*
D16*
X225000000Y-107000000D03*
D14*
X225900000Y-107000000D03*
X225900000Y-105300000D03*
D16*
X225000000Y-105300000D03*
D17*
X225590000Y-106150000D03*
D14*
X224100000Y-105300000D03*
%TD*%
D10*
%TO.C,U53*%
X392025000Y-227225100D03*
X392675000Y-227225100D03*
X393325000Y-227225100D03*
X393975000Y-227225100D03*
X393975000Y-222825100D03*
X393325000Y-222825100D03*
X392675000Y-222825100D03*
X392025000Y-222825100D03*
%TD*%
D14*
%TO.C,D49*%
X224100000Y-61500000D03*
D15*
X224170000Y-60650000D03*
D16*
X225000000Y-61500000D03*
D14*
X225900000Y-61500000D03*
X225900000Y-59800000D03*
D16*
X225000000Y-59800000D03*
D17*
X225590000Y-60650000D03*
D14*
X224100000Y-59800000D03*
%TD*%
D10*
%TO.C,U22*%
X168000000Y-227200000D03*
X168650000Y-227200000D03*
X169300000Y-227200000D03*
X169950000Y-227200000D03*
X169950000Y-222800000D03*
X169300000Y-222800000D03*
X168650000Y-222800000D03*
X168000000Y-222800000D03*
%TD*%
D14*
%TO.C,D43*%
X224100000Y-82500000D03*
D15*
X224170000Y-81650000D03*
D16*
X225000000Y-82500000D03*
D14*
X225900000Y-82500000D03*
X225900000Y-80800000D03*
D16*
X225000000Y-80800000D03*
D17*
X225590000Y-81650000D03*
D14*
X224100000Y-80800000D03*
%TD*%
D35*
%TO.C,R3*%
X237573000Y-254155450D03*
X237573000Y-253135450D03*
%TD*%
D12*
%TO.C,C51*%
X337040000Y-221000000D03*
X338000000Y-221000000D03*
%TD*%
D35*
%TO.C,R60*%
X221518120Y-222501826D03*
X221518120Y-221481826D03*
%TD*%
D12*
%TO.C,C29*%
X176000000Y-221000000D03*
X176960000Y-221000000D03*
%TD*%
D10*
%TO.C,U13*%
X105025000Y-227200000D03*
X105675000Y-227200000D03*
X106325000Y-227200000D03*
X106975000Y-227200000D03*
X106975000Y-222800000D03*
X106325000Y-222800000D03*
X105675000Y-222800000D03*
X105025000Y-222800000D03*
%TD*%
D11*
%TO.C,R8*%
X74000000Y-226025100D03*
X75020000Y-226025100D03*
%TD*%
D10*
%TO.C,U34*%
X259025000Y-227200000D03*
X259675000Y-227200000D03*
X260325000Y-227200000D03*
X260975000Y-227200000D03*
X260975000Y-222800000D03*
X260325000Y-222800000D03*
X259675000Y-222800000D03*
X259025000Y-222800000D03*
%TD*%
D14*
%TO.C,D28*%
X224100000Y-135000000D03*
D15*
X224170000Y-134150000D03*
D16*
X225000000Y-135000000D03*
D14*
X225900000Y-135000000D03*
X225900000Y-133300000D03*
D16*
X225000000Y-133300000D03*
D17*
X225590000Y-134150000D03*
D14*
X224100000Y-133300000D03*
%TD*%
D11*
%TO.C,R37*%
X284080416Y-226042324D03*
X285100416Y-226042324D03*
%TD*%
D12*
%TO.C,C53*%
X351020000Y-221000000D03*
X351980000Y-221000000D03*
%TD*%
D11*
%TO.C,R52*%
X389080416Y-226042324D03*
X390100416Y-226042324D03*
%TD*%
D14*
%TO.C,D7*%
X224100000Y-208350000D03*
D15*
X224170000Y-207500000D03*
D16*
X225000000Y-208350000D03*
D14*
X225900000Y-208350000D03*
X225900000Y-206650000D03*
D16*
X225000000Y-206650000D03*
D17*
X225590000Y-207500000D03*
D14*
X224100000Y-206650000D03*
%TD*%
D12*
%TO.C,C38*%
X246040000Y-221000000D03*
X247000000Y-221000000D03*
%TD*%
D10*
%TO.C,U12*%
X98025000Y-227200000D03*
X98675000Y-227200000D03*
X99325000Y-227200000D03*
X99975000Y-227200000D03*
X99975000Y-222800000D03*
X99325000Y-222800000D03*
X98675000Y-222800000D03*
X98025000Y-222800000D03*
%TD*%
%TO.C,U28*%
X210025000Y-227200000D03*
X210675000Y-227200000D03*
X211325000Y-227200000D03*
X211975000Y-227200000D03*
X211975000Y-222800000D03*
X211325000Y-222800000D03*
X210675000Y-222800000D03*
X210025000Y-222800000D03*
%TD*%
D14*
%TO.C,D26*%
X224100000Y-142000000D03*
D15*
X224170000Y-141150000D03*
D16*
X225000000Y-142000000D03*
D14*
X225900000Y-142000000D03*
X225900000Y-140300000D03*
D16*
X225000000Y-140300000D03*
D17*
X225590000Y-141150000D03*
D14*
X224100000Y-140300000D03*
%TD*%
D11*
%TO.C,R16*%
X129980000Y-226025100D03*
X131000000Y-226025100D03*
%TD*%
D10*
%TO.C,U16*%
X126025000Y-227200000D03*
X126675000Y-227200000D03*
X127325000Y-227200000D03*
X127975000Y-227200000D03*
X127975000Y-222800000D03*
X127325000Y-222800000D03*
X126675000Y-222800000D03*
X126025000Y-222800000D03*
%TD*%
D12*
%TO.C,C49*%
X323020000Y-221000000D03*
X323980000Y-221000000D03*
%TD*%
D14*
%TO.C,D22*%
X224100000Y-156000000D03*
D15*
X224170000Y-155150000D03*
D16*
X225000000Y-156000000D03*
D14*
X225900000Y-156000000D03*
X225900000Y-154300000D03*
D16*
X225000000Y-154300000D03*
D17*
X225590000Y-155150000D03*
D14*
X224100000Y-154300000D03*
%TD*%
D10*
%TO.C,U43*%
X322025000Y-227225100D03*
X322675000Y-227225100D03*
X323325000Y-227225100D03*
X323975000Y-227225100D03*
X323975000Y-222825100D03*
X323325000Y-222825100D03*
X322675000Y-222825100D03*
X322025000Y-222825100D03*
%TD*%
D12*
%TO.C,C12*%
X57020000Y-221000000D03*
X57980000Y-221000000D03*
%TD*%
D11*
%TO.C,R46*%
X347080416Y-226042324D03*
X348100416Y-226042324D03*
%TD*%
D12*
%TO.C,C52*%
X344020000Y-221000000D03*
X344980000Y-221000000D03*
%TD*%
D10*
%TO.C,U29*%
X217025000Y-227200000D03*
X217675000Y-227200000D03*
X218325000Y-227200000D03*
X218975000Y-227200000D03*
X218975000Y-222800000D03*
X218325000Y-222800000D03*
X217675000Y-222800000D03*
X217025000Y-222800000D03*
%TD*%
D21*
%TO.C,C62*%
X254541306Y-264696053D03*
X254541306Y-265656053D03*
%TD*%
D12*
%TO.C,C36*%
X232040000Y-221000000D03*
X233000000Y-221000000D03*
%TD*%
D11*
%TO.C,R4*%
X45980000Y-226025100D03*
X47000000Y-226025100D03*
%TD*%
D14*
%TO.C,D24*%
X224100000Y-149000000D03*
D15*
X224170000Y-148150000D03*
D16*
X225000000Y-149000000D03*
D14*
X225900000Y-149000000D03*
X225900000Y-147300000D03*
D16*
X225000000Y-147300000D03*
D17*
X225590000Y-148150000D03*
D14*
X224100000Y-147300000D03*
%TD*%
D36*
%TO.C,C8*%
X254541306Y-261670053D03*
X254541306Y-260710053D03*
%TD*%
D12*
%TO.C,C22*%
X127000000Y-221000000D03*
X127960000Y-221000000D03*
%TD*%
%TO.C,C44*%
X288020000Y-221000000D03*
X288980000Y-221000000D03*
%TD*%
D11*
%TO.C,R25*%
X192980000Y-226025100D03*
X194000000Y-226025100D03*
%TD*%
D12*
%TO.C,C35*%
X218040000Y-221000000D03*
X219000000Y-221000000D03*
%TD*%
%TO.C,C42*%
X274040000Y-221000000D03*
X275000000Y-221000000D03*
%TD*%
D10*
%TO.C,U23*%
X175025000Y-227200000D03*
X175675000Y-227200000D03*
X176325000Y-227200000D03*
X176975000Y-227200000D03*
X176975000Y-222800000D03*
X176325000Y-222800000D03*
X175675000Y-222800000D03*
X175025000Y-222800000D03*
%TD*%
%TO.C,U7*%
X63025000Y-227200000D03*
X63675000Y-227200000D03*
X64325000Y-227200000D03*
X64975000Y-227200000D03*
X64975000Y-222800000D03*
X64325000Y-222800000D03*
X63675000Y-222800000D03*
X63025000Y-222800000D03*
%TD*%
D12*
%TO.C,C46*%
X302000000Y-221000000D03*
X302960000Y-221000000D03*
%TD*%
D14*
%TO.C,D41*%
X224100000Y-89500000D03*
D15*
X224170000Y-88650000D03*
D16*
X225000000Y-89500000D03*
D14*
X225900000Y-89500000D03*
X225900000Y-87800000D03*
D16*
X225000000Y-87800000D03*
D17*
X225590000Y-88650000D03*
D14*
X224100000Y-87800000D03*
%TD*%
D12*
%TO.C,C57*%
X379040000Y-221000000D03*
X380000000Y-221000000D03*
%TD*%
%TO.C,C23*%
X134000000Y-221000000D03*
X134960000Y-221000000D03*
%TD*%
%TO.C,C61*%
X407000000Y-221000000D03*
X407960000Y-221000000D03*
%TD*%
D11*
%TO.C,R20*%
X157980000Y-226025100D03*
X159000000Y-226025100D03*
%TD*%
%TO.C,R22*%
X171980000Y-226025100D03*
X173000000Y-226025100D03*
%TD*%
D10*
%TO.C,U10*%
X84025000Y-227200000D03*
X84675000Y-227200000D03*
X85325000Y-227200000D03*
X85975000Y-227200000D03*
X85975000Y-222800000D03*
X85325000Y-222800000D03*
X84675000Y-222800000D03*
X84025000Y-222800000D03*
%TD*%
D12*
%TO.C,C39*%
X253040000Y-221000000D03*
X254000000Y-221000000D03*
%TD*%
D11*
%TO.C,R28*%
X213980000Y-226025100D03*
X215000000Y-226025100D03*
%TD*%
D14*
%TO.C,D27*%
X224100000Y-138500000D03*
D15*
X224170000Y-137650000D03*
D16*
X225000000Y-138500000D03*
D14*
X225900000Y-138500000D03*
X225900000Y-136800000D03*
D16*
X225000000Y-136800000D03*
D17*
X225590000Y-137650000D03*
D14*
X224100000Y-136800000D03*
%TD*%
D37*
%TO.C,C5*%
X252000000Y-209537500D03*
X252000000Y-206462500D03*
%TD*%
D14*
%TO.C,D10*%
X224100000Y-198000000D03*
D15*
X224170000Y-197150000D03*
D16*
X225000000Y-198000000D03*
D14*
X225900000Y-198000000D03*
X225900000Y-196300000D03*
D16*
X225000000Y-196300000D03*
D17*
X225590000Y-197150000D03*
D14*
X224100000Y-196300000D03*
%TD*%
D10*
%TO.C,U35*%
X266025000Y-227200000D03*
X266675000Y-227200000D03*
X267325000Y-227200000D03*
X267975000Y-227200000D03*
X267975000Y-222800000D03*
X267325000Y-222800000D03*
X266675000Y-222800000D03*
X266025000Y-222800000D03*
%TD*%
D11*
%TO.C,R51*%
X382080416Y-226042324D03*
X383100416Y-226042324D03*
%TD*%
D12*
%TO.C,C26*%
X155020000Y-221000000D03*
X155980000Y-221000000D03*
%TD*%
%TO.C,C18*%
X99020000Y-221000000D03*
X99980000Y-221000000D03*
%TD*%
D10*
%TO.C,U45*%
X336025000Y-227225100D03*
X336675000Y-227225100D03*
X337325000Y-227225100D03*
X337975000Y-227225100D03*
X337975000Y-222825100D03*
X337325000Y-222825100D03*
X336675000Y-222825100D03*
X336025000Y-222825100D03*
%TD*%
D11*
%TO.C,R12*%
X102000000Y-226025100D03*
X103020000Y-226025100D03*
%TD*%
D10*
%TO.C,U21*%
X161025000Y-227200000D03*
X161675000Y-227200000D03*
X162325000Y-227200000D03*
X162975000Y-227200000D03*
X162975000Y-222800000D03*
X162325000Y-222800000D03*
X161675000Y-222800000D03*
X161025000Y-222800000D03*
%TD*%
%TO.C,U20*%
X154025000Y-227200000D03*
X154675000Y-227200000D03*
X155325000Y-227200000D03*
X155975000Y-227200000D03*
X155975000Y-222800000D03*
X155325000Y-222800000D03*
X154675000Y-222800000D03*
X154025000Y-222800000D03*
%TD*%
D12*
%TO.C,C33*%
X204020000Y-221000000D03*
X204980000Y-221000000D03*
%TD*%
D10*
%TO.C,U39*%
X294025000Y-227225100D03*
X294675000Y-227225100D03*
X295325000Y-227225100D03*
X295975000Y-227225100D03*
X295975000Y-222825100D03*
X295325000Y-222825100D03*
X294675000Y-222825100D03*
X294025000Y-222825100D03*
%TD*%
%TO.C,U32*%
X245025000Y-227225100D03*
X245675000Y-227225100D03*
X246325000Y-227225100D03*
X246975000Y-227225100D03*
X246975000Y-222825100D03*
X246325000Y-222825100D03*
X245675000Y-222825100D03*
X245025000Y-222825100D03*
%TD*%
D12*
%TO.C,C21*%
X120020000Y-221000000D03*
X120980000Y-221000000D03*
%TD*%
D10*
%TO.C,U36*%
X273025000Y-227225100D03*
X273675000Y-227225100D03*
X274325000Y-227225100D03*
X274975000Y-227225100D03*
X274975000Y-222825100D03*
X274325000Y-222825100D03*
X273675000Y-222825100D03*
X273025000Y-222825100D03*
%TD*%
D14*
%TO.C,D51*%
X224100000Y-54500000D03*
D15*
X224170000Y-53650000D03*
D16*
X225000000Y-54500000D03*
D14*
X225900000Y-54500000D03*
X225900000Y-52800000D03*
D16*
X225000000Y-52800000D03*
D17*
X225590000Y-53650000D03*
D14*
X224100000Y-52800000D03*
%TD*%
D12*
%TO.C,C19*%
X106020000Y-221000000D03*
X106980000Y-221000000D03*
%TD*%
D11*
%TO.C,R53*%
X396080416Y-226042324D03*
X397100416Y-226042324D03*
%TD*%
D32*
%TO.C,SW1*%
X204250000Y-254845000D03*
X207650000Y-254845000D03*
%TD*%
D14*
%TO.C,D38*%
X224100000Y-100000000D03*
D15*
X224170000Y-99150000D03*
D16*
X225000000Y-100000000D03*
D14*
X225900000Y-100000000D03*
X225900000Y-98300000D03*
D16*
X225000000Y-98300000D03*
D17*
X225590000Y-99150000D03*
D14*
X224100000Y-98300000D03*
%TD*%
D11*
%TO.C,R35*%
X270080416Y-226042324D03*
X271100416Y-226042324D03*
%TD*%
D10*
%TO.C,U6*%
X56025000Y-227200000D03*
X56675000Y-227200000D03*
X57325000Y-227200000D03*
X57975000Y-227200000D03*
X57975000Y-222800000D03*
X57325000Y-222800000D03*
X56675000Y-222800000D03*
X56025000Y-222800000D03*
%TD*%
D11*
%TO.C,R30*%
X235080416Y-226042324D03*
X236100416Y-226042324D03*
%TD*%
%TO.C,R17*%
X136980000Y-226025100D03*
X138000000Y-226025100D03*
%TD*%
D14*
%TO.C,D23*%
X224100000Y-152500000D03*
D15*
X224170000Y-151650000D03*
D16*
X225000000Y-152500000D03*
D14*
X225900000Y-152500000D03*
X225900000Y-150800000D03*
D16*
X225000000Y-150800000D03*
D17*
X225590000Y-151650000D03*
D14*
X224100000Y-150800000D03*
%TD*%
D11*
%TO.C,R27*%
X206980000Y-226025100D03*
X208000000Y-226025100D03*
%TD*%
D33*
%TO.C,U2*%
X234000000Y-210202000D03*
X234000000Y-209252000D03*
X234000000Y-208302000D03*
X231725000Y-208302000D03*
X231725000Y-210202000D03*
%TD*%
D13*
%TO.C,R61*%
X220385113Y-221483007D03*
X220385113Y-222503007D03*
%TD*%
D14*
%TO.C,D14*%
X224100000Y-184000000D03*
D15*
X224170000Y-183150000D03*
D16*
X225000000Y-184000000D03*
D14*
X225900000Y-184000000D03*
X225900000Y-182300000D03*
D16*
X225000000Y-182300000D03*
D17*
X225590000Y-183150000D03*
D14*
X224100000Y-182300000D03*
%TD*%
D11*
%TO.C,R24*%
X185980000Y-226025100D03*
X187000000Y-226025100D03*
%TD*%
D10*
%TO.C,U30*%
X231025000Y-227225100D03*
X231675000Y-227225100D03*
X232325000Y-227225100D03*
X232975000Y-227225100D03*
X232975000Y-222825100D03*
X232325000Y-222825100D03*
X231675000Y-222825100D03*
X231025000Y-222825100D03*
%TD*%
D12*
%TO.C,C31*%
X190000000Y-221000000D03*
X190960000Y-221000000D03*
%TD*%
D11*
%TO.C,R6*%
X60000000Y-226025100D03*
X61020000Y-226025100D03*
%TD*%
D36*
%TO.C,C7*%
X238862364Y-252925780D03*
X238862364Y-251965780D03*
%TD*%
D10*
%TO.C,U44*%
X329025000Y-227225100D03*
X329675000Y-227225100D03*
X330325000Y-227225100D03*
X330975000Y-227225100D03*
X330975000Y-222825100D03*
X330325000Y-222825100D03*
X329675000Y-222825100D03*
X329025000Y-222825100D03*
%TD*%
D14*
%TO.C,D50*%
X224100000Y-58000000D03*
D15*
X224170000Y-57150000D03*
D16*
X225000000Y-58000000D03*
D14*
X225900000Y-58000000D03*
X225900000Y-56300000D03*
D16*
X225000000Y-56300000D03*
D17*
X225590000Y-57150000D03*
D14*
X224100000Y-56300000D03*
%TD*%
D12*
%TO.C,C14*%
X71020000Y-221000000D03*
X71980000Y-221000000D03*
%TD*%
%TO.C,C60*%
X400040000Y-221000000D03*
X401000000Y-221000000D03*
%TD*%
%TO.C,C28*%
X169020000Y-221000000D03*
X169980000Y-221000000D03*
%TD*%
D11*
%TO.C,R5*%
X52980000Y-226025100D03*
X54000000Y-226025100D03*
%TD*%
D12*
%TO.C,C50*%
X330040000Y-221000000D03*
X331000000Y-221000000D03*
%TD*%
D14*
%TO.C,D12*%
X224100000Y-191000000D03*
D15*
X224170000Y-190150000D03*
D16*
X225000000Y-191000000D03*
D14*
X225900000Y-191000000D03*
X225900000Y-189300000D03*
D16*
X225000000Y-189300000D03*
D17*
X225590000Y-190150000D03*
D14*
X224100000Y-189300000D03*
%TD*%
D11*
%TO.C,R13*%
X109000000Y-226025100D03*
X110020000Y-226025100D03*
%TD*%
D21*
%TO.C,C64*%
X257598757Y-237647203D03*
X257598757Y-238607203D03*
%TD*%
D11*
%TO.C,R44*%
X333080416Y-226042324D03*
X334100416Y-226042324D03*
%TD*%
D10*
%TO.C,U19*%
X147025000Y-227200000D03*
X147675000Y-227200000D03*
X148325000Y-227200000D03*
X148975000Y-227200000D03*
X148975000Y-222800000D03*
X148325000Y-222800000D03*
X147675000Y-222800000D03*
X147025000Y-222800000D03*
%TD*%
%TO.C,U38*%
X287025000Y-227225100D03*
X287675000Y-227225100D03*
X288325000Y-227225100D03*
X288975000Y-227225100D03*
X288975000Y-222825100D03*
X288325000Y-222825100D03*
X287675000Y-222825100D03*
X287025000Y-222825100D03*
%TD*%
%TO.C,U33*%
X252025000Y-227225100D03*
X252675000Y-227225100D03*
X253325000Y-227225100D03*
X253975000Y-227225100D03*
X253975000Y-222825100D03*
X253325000Y-222825100D03*
X252675000Y-222825100D03*
X252025000Y-222825100D03*
%TD*%
D11*
%TO.C,R33*%
X256080416Y-226042324D03*
X257100416Y-226042324D03*
%TD*%
D14*
%TO.C,D47*%
X224100000Y-68500000D03*
D15*
X224170000Y-67650000D03*
D16*
X225000000Y-68500000D03*
D14*
X225900000Y-68500000D03*
X225900000Y-66800000D03*
D16*
X225000000Y-66800000D03*
D17*
X225590000Y-67650000D03*
D14*
X224100000Y-66800000D03*
%TD*%
D10*
%TO.C,U24*%
X182025000Y-227200000D03*
X182675000Y-227200000D03*
X183325000Y-227200000D03*
X183975000Y-227200000D03*
X183975000Y-222800000D03*
X183325000Y-222800000D03*
X182675000Y-222800000D03*
X182025000Y-222800000D03*
%TD*%
D12*
%TO.C,C11*%
X50040000Y-221000000D03*
X51000000Y-221000000D03*
%TD*%
D38*
%TO.C,R55*%
X407080416Y-230042324D03*
X406060416Y-230042324D03*
%TD*%
D11*
%TO.C,R38*%
X291080416Y-226042324D03*
X292100416Y-226042324D03*
%TD*%
D31*
%TO.C,C9*%
X233775246Y-212226954D03*
X232815246Y-212226954D03*
%TD*%
D21*
%TO.C,C4*%
X237561216Y-255288733D03*
X237561216Y-256248733D03*
%TD*%
D12*
%TO.C,C40*%
X260020000Y-221000000D03*
X260980000Y-221000000D03*
%TD*%
D14*
%TO.C,D5*%
X224100000Y-215500000D03*
D15*
X224170000Y-214650000D03*
D16*
X225000000Y-215500000D03*
D14*
X225900000Y-215500000D03*
X225900000Y-213800000D03*
D16*
X225000000Y-213800000D03*
D17*
X225590000Y-214650000D03*
D14*
X224100000Y-213800000D03*
%TD*%
D10*
%TO.C,U4*%
X42025000Y-227200000D03*
X42675000Y-227200000D03*
X43325000Y-227200000D03*
X43975000Y-227200000D03*
X43975000Y-222800000D03*
X43325000Y-222800000D03*
X42675000Y-222800000D03*
X42025000Y-222800000D03*
%TD*%
D12*
%TO.C,C16*%
X85020000Y-221000000D03*
X85980000Y-221000000D03*
%TD*%
D14*
%TO.C,D46*%
X224100000Y-72000000D03*
D15*
X224170000Y-71150000D03*
D16*
X225000000Y-72000000D03*
D14*
X225900000Y-72000000D03*
X225900000Y-70300000D03*
D16*
X225000000Y-70300000D03*
D17*
X225590000Y-71150000D03*
D14*
X224100000Y-70300000D03*
%TD*%
D12*
%TO.C,C15*%
X78020000Y-221000000D03*
X78980000Y-221000000D03*
%TD*%
D11*
%TO.C,R40*%
X305080416Y-226042324D03*
X306100416Y-226042324D03*
%TD*%
D14*
%TO.C,D17*%
X224100000Y-173500000D03*
D15*
X224170000Y-172650000D03*
D16*
X225000000Y-173500000D03*
D14*
X225900000Y-173500000D03*
X225900000Y-171800000D03*
D16*
X225000000Y-171800000D03*
D17*
X225590000Y-172650000D03*
D14*
X224100000Y-171800000D03*
%TD*%
D11*
%TO.C,R50*%
X375080416Y-226042324D03*
X376100416Y-226042324D03*
%TD*%
D12*
%TO.C,C48*%
X316020000Y-221000000D03*
X316980000Y-221000000D03*
%TD*%
%TO.C,C56*%
X372040000Y-221000000D03*
X373000000Y-221000000D03*
%TD*%
%TO.C,C41*%
X267020000Y-221000000D03*
X267980000Y-221000000D03*
%TD*%
D36*
%TO.C,C2*%
X192726652Y-248472338D03*
X192726652Y-247512338D03*
%TD*%
D10*
%TO.C,U18*%
X140025000Y-227200000D03*
X140675000Y-227200000D03*
X141325000Y-227200000D03*
X141975000Y-227200000D03*
X141975000Y-222800000D03*
X141325000Y-222800000D03*
X140675000Y-222800000D03*
X140025000Y-222800000D03*
%TD*%
D14*
%TO.C,D40*%
X224100000Y-93000000D03*
D15*
X224170000Y-92150000D03*
D16*
X225000000Y-93000000D03*
D14*
X225900000Y-93000000D03*
X225900000Y-91300000D03*
D16*
X225000000Y-91300000D03*
D17*
X225590000Y-92150000D03*
D14*
X224100000Y-91300000D03*
%TD*%
D11*
%TO.C,R14*%
X115980000Y-226025100D03*
X117000000Y-226025100D03*
%TD*%
D14*
%TO.C,D8*%
X224100000Y-205000000D03*
D15*
X224170000Y-204150000D03*
D16*
X225000000Y-205000000D03*
D14*
X225900000Y-205000000D03*
X225900000Y-203300000D03*
D16*
X225000000Y-203300000D03*
D17*
X225590000Y-204150000D03*
D14*
X224100000Y-203300000D03*
%TD*%
D10*
%TO.C,U15*%
X119025000Y-227200000D03*
X119675000Y-227200000D03*
X120325000Y-227200000D03*
X120975000Y-227200000D03*
X120975000Y-222800000D03*
X120325000Y-222800000D03*
X119675000Y-222800000D03*
X119025000Y-222800000D03*
%TD*%
D12*
%TO.C,C54*%
X358040000Y-221000000D03*
X359000000Y-221000000D03*
%TD*%
%TO.C,C10*%
X43020000Y-221000000D03*
X43980000Y-221000000D03*
%TD*%
D10*
%TO.C,U9*%
X77025000Y-227200000D03*
X77675000Y-227200000D03*
X78325000Y-227200000D03*
X78975000Y-227200000D03*
X78975000Y-222800000D03*
X78325000Y-222800000D03*
X77675000Y-222800000D03*
X77025000Y-222800000D03*
%TD*%
D12*
%TO.C,C43*%
X281020000Y-221000000D03*
X281980000Y-221000000D03*
%TD*%
M02*
