%TF.GenerationSoftware,KiCad,Pcbnew,7.0.9*%
%TF.CreationDate,2023-12-06T10:58:59+01:00*%
%TF.ProjectId,board_fully_integrated,626f6172-645f-4667-956c-6c795f696e74,rev?*%
%TF.SameCoordinates,Original*%
%TF.FileFunction,Soldermask,Bot*%
%TF.FilePolarity,Negative*%
%FSLAX46Y46*%
G04 Gerber Fmt 4.6, Leading zero omitted, Abs format (unit mm)*
G04 Created by KiCad (PCBNEW 7.0.9) date 2023-12-06 10:58:59*
%MOMM*%
%LPD*%
G01*
G04 APERTURE LIST*
G04 Aperture macros list*
%AMRoundRect*
0 Rectangle with rounded corners*
0 $1 Rounding radius*
0 $2 $3 $4 $5 $6 $7 $8 $9 X,Y pos of 4 corners*
0 Add a 4 corners polygon primitive as box body*
4,1,4,$2,$3,$4,$5,$6,$7,$8,$9,$2,$3,0*
0 Add four circle primitives for the rounded corners*
1,1,$1+$1,$2,$3*
1,1,$1+$1,$4,$5*
1,1,$1+$1,$6,$7*
1,1,$1+$1,$8,$9*
0 Add four rect primitives between the rounded corners*
20,1,$1+$1,$2,$3,$4,$5,0*
20,1,$1+$1,$4,$5,$6,$7,0*
20,1,$1+$1,$6,$7,$8,$9,0*
20,1,$1+$1,$8,$9,$2,$3,0*%
G04 Aperture macros list end*
%ADD10C,3.800000*%
%ADD11C,3.200000*%
%ADD12R,1.700000X1.700000*%
%ADD13O,1.700000X1.700000*%
%ADD14R,0.850000X0.850000*%
%ADD15O,0.850000X0.850000*%
%ADD16RoundRect,0.250000X0.450000X-0.350000X0.450000X0.350000X-0.450000X0.350000X-0.450000X-0.350000X0*%
%ADD17RoundRect,0.250000X-0.450000X0.350000X-0.450000X-0.350000X0.450000X-0.350000X0.450000X0.350000X0*%
%ADD18R,2.600000X2.600000*%
%ADD19C,2.600000*%
%ADD20RoundRect,0.197500X-0.632500X0.197500X-0.632500X-0.197500X0.632500X-0.197500X0.632500X0.197500X0*%
G04 APERTURE END LIST*
D10*
%TO.C,H1*%
X225000000Y-323000000D03*
%TD*%
%TO.C,H1*%
X89770384Y-188765334D03*
%TD*%
D11*
%TO.C,H6*%
X273497423Y-253000000D03*
%TD*%
D10*
%TO.C,H1*%
X155000000Y-346243557D03*
%TD*%
%TO.C,H1*%
X103756443Y-155000000D03*
%TD*%
%TO.C,H1*%
X170750000Y-131036244D03*
%TD*%
%TO.C,H1*%
X355336823Y-300250000D03*
%TD*%
%TO.C,H1*%
X319660731Y-250364266D03*
%TD*%
%TO.C,H1*%
X286871843Y-286871843D03*
%TD*%
%TO.C,H1*%
X140481490Y-202353334D03*
%TD*%
%TO.C,H1*%
X346268813Y-346268813D03*
%TD*%
%TO.C,H1*%
X263952266Y-79628163D03*
%TD*%
%TO.C,H1*%
X300250000Y-94663177D03*
%TD*%
%TO.C,H1*%
X301721086Y-301721086D03*
%TD*%
%TO.C,H1*%
X126005051Y-126005051D03*
%TD*%
%TO.C,H1*%
X268750000Y-149222777D03*
%TD*%
%TO.C,H1*%
X149222777Y-268750000D03*
%TD*%
%TO.C,H1*%
X310750000Y-76476643D03*
%TD*%
%TO.C,H1*%
X264597980Y-264597980D03*
%TD*%
%TO.C,H1*%
X301721086Y-148278914D03*
%TD*%
%TO.C,H1*%
X170908154Y-210506133D03*
%TD*%
%TO.C,H1*%
X134000000Y-382616623D03*
%TD*%
%TO.C,H1*%
X158316044Y-186500000D03*
%TD*%
%TO.C,H1*%
X316570328Y-133429672D03*
%TD*%
%TO.C,H1*%
X266669866Y-69485942D03*
%TD*%
D11*
%TO.C,H4*%
X253000000Y-176502577D03*
%TD*%
D10*
%TO.C,H1*%
X400798500Y-177894934D03*
%TD*%
%TO.C,H1*%
X337150290Y-160250000D03*
%TD*%
%TO.C,H1*%
X120197048Y-196918134D03*
%TD*%
%TO.C,H1*%
X180612534Y-390656279D03*
%TD*%
%TO.C,H1*%
X360229616Y-261234666D03*
%TD*%
%TO.C,H1*%
X191482934Y-350087395D03*
%TD*%
%TO.C,H1*%
X255799466Y-339945173D03*
%TD*%
%TO.C,H1*%
X331419571Y-331419571D03*
%TD*%
D12*
%TO.C,J1*%
X257141306Y-267040053D03*
D13*
X257141306Y-264500053D03*
X257141306Y-261960053D03*
X257141306Y-259420053D03*
%TD*%
D10*
%TO.C,H1*%
X346243557Y-295000000D03*
%TD*%
%TO.C,H1*%
X370371837Y-186047734D03*
%TD*%
%TO.C,H1*%
X112849710Y-160250000D03*
%TD*%
D11*
%TO.C,H5*%
X273497423Y-197000000D03*
%TD*%
D10*
%TO.C,H1*%
X316000000Y-382616623D03*
%TD*%
%TO.C,H1*%
X69485942Y-266669866D03*
%TD*%
D14*
%TO.C,J35*%
X213391306Y-254830053D03*
D15*
X213391306Y-253830053D03*
X213391306Y-252830053D03*
X213391306Y-251830053D03*
X213391306Y-250830053D03*
X213391306Y-249830053D03*
X213391306Y-248830053D03*
X213391306Y-247830053D03*
X213391306Y-246830053D03*
X213391306Y-245830053D03*
X213391306Y-244830053D03*
%TD*%
D10*
%TO.C,H1*%
X176000000Y-309870490D03*
%TD*%
%TO.C,H1*%
X272022601Y-272022601D03*
%TD*%
%TO.C,H1*%
X258517066Y-350087395D03*
%TD*%
%TO.C,H1*%
X373523357Y-139250000D03*
%TD*%
%TO.C,H1*%
X167409311Y-191750000D03*
%TD*%
%TO.C,H1*%
X355336823Y-149750000D03*
%TD*%
%TO.C,H1*%
X67383377Y-134000000D03*
%TD*%
%TO.C,H1*%
X188765334Y-89770384D03*
%TD*%
%TO.C,H1*%
X282590689Y-258250000D03*
%TD*%
%TO.C,H1*%
X337150290Y-289750000D03*
%TD*%
%TO.C,H1*%
X225000000Y-375500000D03*
%TD*%
%TO.C,H1*%
X85569910Y-305500000D03*
%TD*%
%TO.C,H1*%
X225000000Y-354500000D03*
%TD*%
%TO.C,H1*%
X353693434Y-353693434D03*
%TD*%
%TO.C,H1*%
X139250000Y-76476643D03*
%TD*%
%TO.C,H1*%
X261234666Y-89770384D03*
%TD*%
%TO.C,H1*%
X318963756Y-279250000D03*
%TD*%
%TO.C,H1*%
X185402020Y-185402020D03*
%TD*%
%TO.C,H1*%
X364430090Y-305500000D03*
%TD*%
%TO.C,H1*%
X120197048Y-253081866D03*
%TD*%
%TO.C,H1*%
X111155808Y-111155808D03*
%TD*%
%TO.C,H1*%
X346243557Y-155000000D03*
%TD*%
%TO.C,H1*%
X148278914Y-148278914D03*
%TD*%
%TO.C,H1*%
X160250000Y-337150290D03*
%TD*%
%TO.C,H1*%
X103756443Y-295000000D03*
%TD*%
%TO.C,H1*%
X225000000Y-291500000D03*
%TD*%
%TO.C,H1*%
X382616623Y-316000000D03*
%TD*%
%TO.C,H1*%
X94663177Y-300250000D03*
%TD*%
%TO.C,H1*%
X131036244Y-170750000D03*
%TD*%
%TO.C,H1*%
X140129510Y-176000000D03*
%TD*%
%TO.C,H1*%
X299376289Y-244929066D03*
%TD*%
%TO.C,H1*%
X199635734Y-130339269D03*
%TD*%
%TO.C,H1*%
X284500000Y-328057023D03*
%TD*%
%TO.C,H1*%
X364430090Y-144500000D03*
%TD*%
%TO.C,H1*%
X183330134Y-380514058D03*
%TD*%
%TO.C,H1*%
X279091846Y-210506133D03*
%TD*%
%TO.C,H1*%
X207788534Y-289234067D03*
%TD*%
%TO.C,H1*%
X289234067Y-207788534D03*
%TD*%
%TO.C,H1*%
X295000000Y-346243557D03*
%TD*%
%TO.C,H1*%
X76476643Y-310750000D03*
%TD*%
%TO.C,H1*%
X49201500Y-177894934D03*
%TD*%
%TO.C,H1*%
X49201500Y-272105066D03*
%TD*%
%TO.C,H1*%
X181250000Y-149222777D03*
%TD*%
%TO.C,H1*%
X205070934Y-299376289D03*
%TD*%
D11*
%TO.C,H8*%
X197000000Y-273497423D03*
%TD*%
D10*
%TO.C,H1*%
X170552778Y-279447222D03*
%TD*%
%TO.C,H1*%
X110054827Y-194200534D03*
%TD*%
%TO.C,H1*%
X253081866Y-329802952D03*
%TD*%
%TO.C,H1*%
X244929066Y-299376289D03*
%TD*%
%TO.C,H1*%
X264597980Y-185402020D03*
%TD*%
%TO.C,H1*%
X295000000Y-103756443D03*
%TD*%
%TO.C,H1*%
X310750000Y-373523357D03*
%TD*%
%TO.C,H1*%
X319660731Y-199635734D03*
%TD*%
%TO.C,H1*%
X149750000Y-355336823D03*
%TD*%
%TO.C,H1*%
X242211466Y-160765933D03*
%TD*%
%TO.C,H1*%
X170552778Y-170552778D03*
%TD*%
D11*
%TO.C,H9*%
X176502577Y-253000000D03*
%TD*%
D10*
%TO.C,H1*%
X309145707Y-309145707D03*
%TD*%
%TO.C,H1*%
X294296465Y-155703535D03*
%TD*%
%TO.C,H1*%
X255799466Y-110054827D03*
%TD*%
%TO.C,H1*%
X133429672Y-316570328D03*
%TD*%
%TO.C,H1*%
X274000000Y-309870490D03*
%TD*%
%TO.C,H1*%
X258250000Y-167409311D03*
%TD*%
%TO.C,H1*%
X268750000Y-300777223D03*
%TD*%
%TO.C,H1*%
X380514058Y-183330134D03*
%TD*%
%TO.C,H1*%
X279250000Y-318963756D03*
%TD*%
%TO.C,H1*%
X155703535Y-155703535D03*
%TD*%
%TO.C,H1*%
X111155808Y-338844192D03*
%TD*%
%TO.C,H1*%
X79628163Y-186047734D03*
%TD*%
%TO.C,H1*%
X188765334Y-360229616D03*
%TD*%
%TO.C,H1*%
X186500000Y-291683956D03*
%TD*%
%TO.C,H1*%
X400798500Y-272105066D03*
%TD*%
%TO.C,H1*%
X323994949Y-323994949D03*
%TD*%
%TO.C,H1*%
X225000000Y-312500000D03*
%TD*%
%TO.C,H1*%
X253081866Y-120197048D03*
%TD*%
%TO.C,H1*%
X247646666Y-309518510D03*
%TD*%
%TO.C,H1*%
X163128157Y-163128157D03*
%TD*%
%TO.C,H1*%
X186500000Y-158316044D03*
%TD*%
%TO.C,H1*%
X300777223Y-181250000D03*
%TD*%
%TO.C,H1*%
X225000000Y-386000000D03*
%TD*%
%TO.C,H1*%
X289234067Y-242211466D03*
%TD*%
%TO.C,H1*%
X338844192Y-338844192D03*
%TD*%
%TO.C,H1*%
X144500000Y-85569910D03*
%TD*%
%TO.C,H1*%
X133429672Y-133429672D03*
%TD*%
%TO.C,H1*%
X284500000Y-121942977D03*
%TD*%
%TO.C,H1*%
X170750000Y-318963756D03*
%TD*%
%TO.C,H1*%
X239493867Y-170908154D03*
%TD*%
%TO.C,H1*%
X225000000Y-344000000D03*
%TD*%
%TO.C,H1*%
X291683956Y-263500000D03*
%TD*%
%TO.C,H1*%
X309518510Y-202353334D03*
%TD*%
%TO.C,H1*%
X177977399Y-177977399D03*
%TD*%
%TO.C,H1*%
X180612534Y-59343721D03*
%TD*%
%TO.C,H1*%
X299376289Y-205070934D03*
%TD*%
%TO.C,H1*%
X191482934Y-99912605D03*
%TD*%
%TO.C,H1*%
X225000000Y-302000000D03*
%TD*%
%TO.C,H1*%
X305500000Y-85569910D03*
%TD*%
%TO.C,H1*%
X130339269Y-250364266D03*
%TD*%
%TO.C,H1*%
X225000000Y-333500000D03*
%TD*%
%TO.C,H1*%
X99912605Y-191482934D03*
%TD*%
%TO.C,H1*%
X346268813Y-103731187D03*
%TD*%
%TO.C,H1*%
X294296465Y-294296465D03*
%TD*%
%TO.C,H1*%
X126005051Y-323994949D03*
%TD*%
%TO.C,H1*%
X390656279Y-269387466D03*
%TD*%
%TO.C,H1*%
X289750000Y-337150290D03*
%TD*%
%TO.C,H1*%
X199635734Y-319660731D03*
%TD*%
%TO.C,H1*%
X309870490Y-274000000D03*
%TD*%
%TO.C,H1*%
X258517066Y-99912605D03*
%TD*%
%TO.C,H1*%
X350087395Y-191482934D03*
%TD*%
%TO.C,H1*%
X149222777Y-181250000D03*
%TD*%
%TO.C,H1*%
X186047734Y-79628163D03*
%TD*%
%TO.C,H1*%
X329802952Y-196918134D03*
%TD*%
%TO.C,H1*%
X309870490Y-176000000D03*
%TD*%
%TO.C,H1*%
X196918134Y-120197048D03*
%TD*%
%TO.C,H1*%
X328057023Y-284500000D03*
%TD*%
%TO.C,H1*%
X194200534Y-339945173D03*
%TD*%
%TO.C,H1*%
X339945173Y-194200534D03*
%TD*%
%TO.C,H1*%
X242211466Y-289234067D03*
%TD*%
%TO.C,H1*%
X158316044Y-263500000D03*
%TD*%
%TO.C,H1*%
X194200534Y-110054827D03*
%TD*%
%TO.C,H1*%
X380514058Y-266669866D03*
%TD*%
%TO.C,H1*%
X79628163Y-263952266D03*
%TD*%
%TO.C,H1*%
X263500000Y-291683956D03*
%TD*%
%TO.C,H1*%
X263952266Y-370371837D03*
%TD*%
%TO.C,H1*%
X170908154Y-239493867D03*
%TD*%
%TO.C,H1*%
X140854293Y-309145707D03*
%TD*%
%TO.C,H1*%
X160765933Y-207788534D03*
%TD*%
%TO.C,H1*%
X353693434Y-96306566D03*
%TD*%
%TO.C,H1*%
X300777223Y-268750000D03*
%TD*%
%TO.C,H1*%
X279447222Y-279447222D03*
%TD*%
%TO.C,H1*%
X331419571Y-118580429D03*
%TD*%
%TO.C,H1*%
X309145707Y-140854293D03*
%TD*%
%TO.C,H1*%
X118580429Y-118580429D03*
%TD*%
%TO.C,H1*%
X191750000Y-282590689D03*
%TD*%
%TO.C,H1*%
X279091846Y-239493867D03*
%TD*%
%TO.C,H1*%
X269387466Y-59343721D03*
%TD*%
%TO.C,H1*%
X373523357Y-310750000D03*
%TD*%
%TO.C,H1*%
X207788534Y-160765933D03*
%TD*%
%TO.C,H1*%
X177894934Y-49201500D03*
%TD*%
%TO.C,H1*%
X205070934Y-150623711D03*
%TD*%
%TO.C,H1*%
X139250000Y-373523357D03*
%TD*%
%TO.C,H1*%
X165500000Y-121942977D03*
%TD*%
%TO.C,H1*%
X316570328Y-316570328D03*
%TD*%
%TO.C,H1*%
X160250000Y-112849710D03*
%TD*%
%TO.C,H1*%
X140481490Y-247646666D03*
%TD*%
%TO.C,H1*%
X121942977Y-165500000D03*
%TD*%
%TO.C,H1*%
X160765933Y-242211466D03*
%TD*%
%TO.C,H1*%
X89770384Y-261234666D03*
%TD*%
%TO.C,H1*%
X134000000Y-67383377D03*
%TD*%
%TO.C,H1*%
X250364266Y-319660731D03*
%TD*%
%TO.C,H1*%
X155703535Y-294296465D03*
%TD*%
D11*
%TO.C,H10*%
X176502577Y-197000000D03*
%TD*%
D10*
%TO.C,H1*%
X328057023Y-165500000D03*
%TD*%
%TO.C,H1*%
X350087395Y-258517066D03*
%TD*%
%TO.C,H1*%
X279447222Y-170552778D03*
%TD*%
%TO.C,H1*%
X210506133Y-170908154D03*
%TD*%
%TO.C,H1*%
X305500000Y-364430090D03*
%TD*%
%TO.C,H1*%
X59343721Y-269387466D03*
%TD*%
%TO.C,H1*%
X279250000Y-131036244D03*
%TD*%
%TO.C,H1*%
X316000000Y-67383377D03*
%TD*%
%TO.C,H1*%
X177894934Y-400798500D03*
%TD*%
%TO.C,H1*%
X225000000Y-407000000D03*
%TD*%
%TO.C,H1*%
X269387466Y-390656279D03*
%TD*%
%TO.C,H1*%
X250364266Y-130339269D03*
%TD*%
%TO.C,H1*%
X309518510Y-247646666D03*
%TD*%
%TO.C,H1*%
X225000000Y-396500000D03*
%TD*%
%TO.C,H1*%
X323994949Y-126005051D03*
%TD*%
%TO.C,H1*%
X390656279Y-180612534D03*
%TD*%
%TO.C,H1*%
X186047734Y-370371837D03*
%TD*%
%TO.C,H1*%
X286871843Y-163128157D03*
%TD*%
%TO.C,H1*%
X148278914Y-301721086D03*
%TD*%
%TO.C,H1*%
X163128157Y-286871843D03*
%TD*%
%TO.C,H1*%
X177977399Y-272022601D03*
%TD*%
%TO.C,H1*%
X121942977Y-284500000D03*
%TD*%
%TO.C,H1*%
X103731187Y-346268813D03*
%TD*%
D11*
%TO.C,H3*%
X197000000Y-176502577D03*
%TD*%
D10*
%TO.C,H1*%
X59343721Y-180612534D03*
%TD*%
D11*
%TO.C,H7*%
X253000000Y-273497423D03*
%TD*%
D10*
%TO.C,H1*%
X274000000Y-140129510D03*
%TD*%
%TO.C,H1*%
X112849710Y-289750000D03*
%TD*%
%TO.C,H1*%
X85569910Y-144500000D03*
%TD*%
%TO.C,H1*%
X339945173Y-255799466D03*
%TD*%
%TO.C,H1*%
X110054827Y-255799466D03*
%TD*%
%TO.C,H1*%
X149750000Y-94663177D03*
%TD*%
%TO.C,H1*%
X99912605Y-258517066D03*
%TD*%
%TO.C,H1*%
X165500000Y-328057023D03*
%TD*%
%TO.C,H1*%
X338844192Y-111155808D03*
%TD*%
%TO.C,H1*%
X263500000Y-158316044D03*
%TD*%
%TO.C,H1*%
X140854293Y-140854293D03*
%TD*%
%TO.C,H1*%
X318963756Y-170750000D03*
%TD*%
%TO.C,H1*%
X247646666Y-140481490D03*
%TD*%
%TO.C,H1*%
X131036244Y-279250000D03*
%TD*%
%TO.C,H1*%
X176000000Y-140129510D03*
%TD*%
%TO.C,H1*%
X150623711Y-244929066D03*
%TD*%
%TO.C,H1*%
X272105066Y-49201500D03*
%TD*%
%TO.C,H1*%
X360229616Y-188765334D03*
%TD*%
%TO.C,H1*%
X196918134Y-329802952D03*
%TD*%
%TO.C,H1*%
X155000000Y-103756443D03*
%TD*%
%TO.C,H1*%
X289750000Y-112849710D03*
%TD*%
%TO.C,H1*%
X300250000Y-355336823D03*
%TD*%
%TO.C,H1*%
X76476643Y-139250000D03*
%TD*%
%TO.C,H1*%
X261234666Y-360229616D03*
%TD*%
%TO.C,H1*%
X150623711Y-205070934D03*
%TD*%
%TO.C,H1*%
X103731187Y-103731187D03*
%TD*%
%TO.C,H1*%
X130339269Y-199635734D03*
%TD*%
%TO.C,H1*%
X272105066Y-400798500D03*
%TD*%
%TO.C,H1*%
X258250000Y-282590689D03*
%TD*%
%TO.C,H1*%
X69485942Y-183330134D03*
%TD*%
%TO.C,H1*%
X181250000Y-300777223D03*
%TD*%
%TO.C,H1*%
X329802952Y-253081866D03*
%TD*%
%TO.C,H1*%
X96306566Y-96306566D03*
%TD*%
%TO.C,H1*%
X202353334Y-309518510D03*
%TD*%
%TO.C,H1*%
X183330134Y-69485942D03*
%TD*%
%TO.C,H1*%
X291683956Y-186500000D03*
%TD*%
%TO.C,H1*%
X225000000Y-365000000D03*
%TD*%
%TO.C,H1*%
X272022601Y-177977399D03*
%TD*%
%TO.C,H1*%
X191750000Y-167409311D03*
%TD*%
%TO.C,H1*%
X94663177Y-149750000D03*
%TD*%
%TO.C,H1*%
X140129510Y-274000000D03*
%TD*%
%TO.C,H1*%
X244929066Y-150623711D03*
%TD*%
%TO.C,H1*%
X67383377Y-316000000D03*
%TD*%
%TO.C,H1*%
X282590689Y-191750000D03*
%TD*%
%TO.C,H1*%
X266669866Y-380514058D03*
%TD*%
%TO.C,H1*%
X202353334Y-140481490D03*
%TD*%
%TO.C,H1*%
X382616623Y-134000000D03*
%TD*%
%TO.C,H1*%
X167409311Y-258250000D03*
%TD*%
%TO.C,H1*%
X370371837Y-263952266D03*
%TD*%
%TO.C,H1*%
X185402020Y-264597980D03*
%TD*%
%TO.C,H1*%
X144500000Y-364430090D03*
%TD*%
%TO.C,H1*%
X96306566Y-353693434D03*
%TD*%
%TO.C,H1*%
X118580429Y-331419571D03*
%TD*%
D16*
%TO.C,R2*%
X231839065Y-296708309D03*
X231839065Y-294708309D03*
%TD*%
D17*
%TO.C,R1*%
X229737066Y-294708309D03*
X229737066Y-296708309D03*
%TD*%
D18*
%TO.C,J11*%
X260000000Y-212000000D03*
D19*
X260000000Y-206920000D03*
%TD*%
D20*
%TO.C,U62*%
X222989606Y-295931922D03*
X226989606Y-295931922D03*
X226989606Y-297731922D03*
X222989606Y-297731922D03*
%TD*%
M02*
