M48
; DRILL file {KiCad 7.0.9} date Di 05 Dez 2023 15:59:31 CET
; FORMAT={-:-/ absolute / inch / decimal}
; #@! TF.CreationDate,2023-12-05T15:59:31+01:00
; #@! TF.GenerationSoftware,Kicad,Pcbnew,7.0.9
; #@! TF.FileFunction,Plated,1,4,PTH
FMAT,2
INCH
; #@! TA.AperFunction,Plated,PTH,ViaDrill
T1C0.0118
; #@! TA.AperFunction,Plated,PTH,ViaDrill
T2C0.0157
; #@! TA.AperFunction,Plated,PTH,ComponentDrill
T3C0.0197
; #@! TA.AperFunction,Plated,PTH,ViaDrill
T4C0.0236
; #@! TA.AperFunction,Plated,PTH,ComponentDrill
T5C0.0236
; #@! TA.AperFunction,Plated,PTH,ComponentDrill
T6C0.0394
; #@! TA.AperFunction,Plated,PTH,ComponentDrill
T7C0.0512
; #@! TA.AperFunction,Plated,PTH,ComponentDrill
T8C0.0866
%
G90
G05
T1
X1.811Y-8.1004
X1.811Y-8.4941
X1.811Y-9.1732
X1.811Y-9.5669
X1.811Y-10.0295
X2.2047Y-8.1004
X2.2047Y-8.4941
X2.2047Y-9.1732
X2.2047Y-9.5669
X2.2047Y-10.0295
X2.2047Y-10.4232
X2.4902Y-9.1732
X2.5984Y-8.1004
X2.5984Y-8.4941
X2.5984Y-9.5669
X2.5984Y-10.0295
X2.5984Y-10.4232
X2.7756Y-9.1732
X2.8543Y-9.5669
X2.9921Y-8.1004
X2.9921Y-8.4941
X2.9921Y-10.0295
X2.9921Y-10.4232
X3.0413Y-9.1732
X3.1102Y-9.5669
X3.3858Y-8.1004
X3.3858Y-8.4941
X3.3858Y-9.1732
X3.3858Y-10.0295
X3.3858Y-10.4232
X3.4449Y-9.5768
X3.6319Y-9.1732
X3.7795Y-8.1004
X3.7795Y-8.4941
X3.7795Y-9.5669
X3.7795Y-10.0295
X3.7795Y-10.4232
X3.8878Y-9.1732
X4.0256Y-9.5669
X4.1437Y-9.1732
X4.1732Y-8.1004
X4.1732Y-8.4941
X4.1732Y-10.0295
X4.1732Y-10.4232
X4.2618Y-9.5669
X4.4193Y-9.1732
X4.5374Y-9.5669
X4.5669Y-8.1004
X4.5669Y-8.4941
X4.5669Y-10.4232
X4.5866Y-9.872
X4.6654Y-9.1732
X4.9508Y-9.5079
X4.9606Y-8.1004
X4.9606Y-8.4941
X4.9606Y-9.1732
X4.9606Y-10.4232
X5.2362Y-9.1732
X5.3543Y-8.1004
X5.3543Y-8.4941
X5.3543Y-10.4232
X5.374Y-9.4488
X5.374Y-9.872
X5.4823Y-9.1732
X5.748Y-8.1004
X5.748Y-8.4941
X5.7677Y-9.4587
X5.7677Y-9.9311
X5.7677Y-10.4232
X5.8071Y-9.1732
X6.1024Y-9.1732
X6.1417Y-8.1004
X6.1417Y-8.4941
X6.1417Y-9.5669
X6.3484Y-9.1732
X6.5354Y-8.1004
X6.5354Y-8.4941
X6.5354Y-9.5669
X6.5354Y-9.9311
X6.5551Y-10.4232
X6.5945Y-9.1732
X6.8996Y-9.1771
X6.939Y-8.1004
X6.939Y-8.4941
X6.9488Y-9.5669
X6.9488Y-10.4232
X7.2441Y-9.1732
X7.3327Y-7.7067
X7.3327Y-8.1004
X7.3327Y-8.4941
X7.3489Y-9.9645
X7.5295Y-9.1732
X7.7067Y-9.1043
X7.7264Y-7.313
X7.7264Y-7.7067
X7.7264Y-8.1004
X7.7264Y-8.4941
X7.7362Y-11.2008
X7.7362Y-11.5945
X7.7362Y-11.9882
X7.7426Y-10.3582
X7.9001Y-10.9886
X7.9004Y-10.1864
X7.9004Y-10.2364
X7.9004Y-10.2864
X7.9004Y-10.3364
X7.9004Y-10.3864
X7.9004Y-10.4364
X7.9004Y-10.4864
X7.9004Y-10.5364
X7.9004Y-10.5864
X7.9004Y-10.6364
X7.9004Y-10.6864
X7.9004Y-10.7364
X7.9004Y-10.7864
X7.9004Y-10.8364
X7.9004Y-10.8864
X7.9004Y-10.9364
X7.9321Y-10.1571
X7.9344Y-11.0121
X7.9821Y-10.1571
X7.9844Y-11.0121
X8.0121Y-9.1413
X8.0321Y-10.1571
X8.0344Y-11.0121
X8.0821Y-10.1571
X8.0844Y-11.0121
X8.1201Y-6.9193
X8.1201Y-7.313
X8.1201Y-7.7067
X8.1201Y-8.1004
X8.1201Y-8.4941
X8.1299Y-11.2008
X8.1299Y-11.5945
X8.1299Y-11.9882
X8.1321Y-10.1571
X8.1344Y-11.0121
X8.1363Y-9.9645
X8.1693Y-9.1437
X8.1821Y-10.1571
X8.1844Y-11.0121
X8.2321Y-10.1571
X8.2344Y-11.0121
X8.2821Y-10.1571
X8.2844Y-11.0121
X8.2997Y-9.9047
X8.3051Y-9.4311
X8.3321Y-10.1571
X8.3344Y-11.0121
X8.3821Y-10.1571
X8.3844Y-11.0121
X8.4321Y-10.1571
X8.4344Y-11.0121
X8.4821Y-10.1571
X8.4844Y-11.0121
X8.5138Y-6.9193
X8.5138Y-7.313
X8.5138Y-7.7067
X8.5138Y-8.1004
X8.5138Y-8.4941
X8.5236Y-11.2008
X8.5236Y-11.5945
X8.5236Y-11.9882
X8.5321Y-10.1571
X8.5344Y-11.0121
X8.5821Y-10.1571
X8.5844Y-11.0121
X8.6209Y-9.2813
X8.6209Y-9.2275
X8.6216Y-9.1791
X8.6217Y-9.1365
X8.6321Y-10.1571
X8.6344Y-11.0121
X8.6821Y-10.1571
X8.6844Y-11.0121
X8.7059Y-9.5964
X8.7081Y-10.0146
X8.7321Y-10.1571
X8.7344Y-11.0121
X8.7821Y-10.1571
X8.7879Y-11.0125
X8.8138Y-9.073
X8.8321Y-10.1571
X8.8344Y-11.0121
X8.8442Y-11.7219
X8.8583Y-11.2008
X8.8718Y-11.6511
X8.8821Y-10.1571
X8.8844Y-11.0121
X8.9321Y-10.1571
X8.9344Y-11.0121
X8.9583Y-9.2988
X8.9821Y-10.1571
X8.9844Y-11.0121
X9.0108Y-9.2988
X9.0321Y-10.1571
X9.0344Y-11.0121
X9.0513Y-10.0166
X9.0518Y-9.5964
X9.0699Y-9.2988
X9.0821Y-10.1571
X9.0844Y-11.0121
X9.125Y-9.2988
X9.1321Y-10.1571
X9.1344Y-11.0121
X9.1821Y-10.1571
X9.1844Y-11.0121
X9.1929Y-11.2008
X9.1929Y-11.5945
X9.1929Y-11.9882
X9.207Y-6.9185
X9.207Y-7.3122
X9.207Y-7.7059
X9.207Y-8.0996
X9.2321Y-10.1571
X9.2344Y-11.0121
X9.2821Y-10.1571
X9.2844Y-11.0121
X9.311Y-9.252
X9.3321Y-10.1571
X9.3344Y-11.0121
X9.3821Y-10.1571
X9.3844Y-11.0121
X9.4321Y-10.1571
X9.4335Y-11.0121
X9.4821Y-10.1571
X9.4844Y-11.0121
X9.4882Y-8.4933
X9.5321Y-10.1571
X9.5344Y-11.0121
X9.5571Y-10.0098
X9.5821Y-10.1571
X9.5844Y-11.0121
X9.5866Y-11.2008
X9.5866Y-11.9882
X9.6007Y-6.9185
X9.6007Y-7.3122
X9.6007Y-7.7059
X9.6007Y-8.0996
X9.6276Y-11.5945
X9.6321Y-10.1571
X9.6335Y-11.0121
X9.6457Y-9.6654
X9.6473Y-9.7739
X9.6821Y-10.1571
X9.6844Y-11.0121
X9.7321Y-10.1571
X9.7344Y-11.0121
X9.7821Y-10.1571
X9.7835Y-11.0121
X9.819Y-10.9872
X9.819Y-10.1852
X9.819Y-10.2352
X9.819Y-10.2852
X9.819Y-10.3352
X9.819Y-10.3852
X9.819Y-10.4352
X9.819Y-10.4852
X9.819Y-10.5352
X9.819Y-10.5852
X9.819Y-10.6352
X9.819Y-10.6852
X9.819Y-10.7352
X9.819Y-10.7852
X9.819Y-10.8352
X9.819Y-10.8852
X9.819Y-10.9352
X9.854Y-8.098
X9.8726Y-8.059
X9.8819Y-9.0748
X9.9218Y-8.059
X9.9711Y-8.059
X9.9803Y-11.5945
X9.9803Y-11.9882
X9.9819Y-7.8815
X9.9819Y-7.9307
X9.9819Y-7.9799
X9.9902Y-9.6161
X9.9918Y-8.098
X9.9944Y-7.3122
X9.9944Y-7.7059
X10.0213Y-10.5193
X10.0312Y-11.2008
X10.0591Y-9.2618
X10.1476Y-9.0748
X10.3248Y-9.2717
X10.3881Y-7.7059
X10.3937Y-9.0748
X10.415Y-8.098
X10.6398Y-10.0098
X10.6988Y-9.0748
X10.6988Y-9.4882
X10.7818Y-8.0996
X10.7818Y-8.4933
X10.7818Y-10.4126
X10.8366Y-9.6063
X11.0138Y-9.0748
X11.1122Y-9.3701
X11.1713Y-8.1004
X11.1713Y-8.4941
X11.1713Y-10.0197
X11.1713Y-10.4134
X11.1811Y-9.6063
X11.2795Y-9.0748
X11.5157Y-9.4783
X11.565Y-8.1004
X11.565Y-8.4941
X11.565Y-9.813
X11.6043Y-9.0748
X11.8504Y-9.0748
X11.9587Y-8.1004
X11.9587Y-8.4941
X11.9587Y-10.0197
X11.9587Y-10.4134
X11.9685Y-9.6063
X12.0374Y-9.8327
X12.1161Y-9.0748
X12.3524Y-8.1004
X12.3524Y-8.4941
X12.3524Y-10.4134
X12.3917Y-9.0748
X12.4016Y-9.6063
X12.6772Y-9.0748
X12.7461Y-8.1004
X12.7461Y-8.4941
X12.7461Y-10.0197
X12.7461Y-10.4134
X12.9528Y-9.0748
X13.1398Y-8.1004
X13.1398Y-8.4941
X13.1398Y-9.5965
X13.1398Y-10.0197
X13.1398Y-10.4134
X13.2283Y-9.0748
X13.5039Y-9.0748
X13.5335Y-8.1004
X13.5335Y-8.4941
X13.5335Y-10.0197
X13.5335Y-10.4134
X13.7795Y-9.0748
X13.9272Y-8.1004
X13.9272Y-8.4941
X13.9272Y-9.5965
X13.9272Y-10.0197
X13.9272Y-10.4134
X14.0551Y-9.0748
X14.3209Y-8.1004
X14.3209Y-8.4941
X14.3209Y-10.0197
X14.3209Y-10.4134
X14.3307Y-9.0748
X14.6063Y-9.0748
X14.7146Y-8.1004
X14.7146Y-8.4941
X14.7146Y-9.5965
X14.7146Y-10.0197
X14.7146Y-10.4134
X14.8819Y-9.0748
X15.0098Y-9.5965
X15.1083Y-8.1004
X15.1083Y-8.4941
X15.1083Y-10.0197
X15.1083Y-10.4134
X15.1476Y-9.0748
X15.2657Y-9.5965
X15.4528Y-9.0748
X15.502Y-8.1004
X15.502Y-8.4941
X15.502Y-10.0197
X15.502Y-10.4134
X15.5217Y-9.5965
X15.7185Y-9.0748
X15.8858Y-9.5965
X15.8957Y-8.1004
X15.8957Y-8.4941
X15.8957Y-10.0197
X15.935Y-9.0748
T2
X1.6803Y-8.8823
X1.6925Y-8.6614
X1.7319Y-8.6614
X1.7789Y-8.9433
X1.8547Y-8.9425
X1.9357Y-8.8485
X1.9559Y-8.8823
X1.9681Y-8.6614
X2.0075Y-8.6614
X2.0545Y-8.9433
X2.1303Y-8.9425
X2.2113Y-8.8485
X2.2315Y-8.8823
X2.2452Y-8.6609
X2.2846Y-8.6609
X2.3301Y-8.9433
X2.4059Y-8.9425
X2.4868Y-8.8485
X2.5071Y-8.8823
X2.5193Y-8.6614
X2.5586Y-8.6614
X2.6057Y-8.9433
X2.6815Y-8.9425
X2.7624Y-8.8485
X2.7827Y-8.8823
X2.7949Y-8.6614
X2.8342Y-8.6614
X2.8813Y-8.9433
X2.9571Y-8.9425
X3.038Y-8.8485
X3.0583Y-8.8823
X3.0705Y-8.6614
X3.1098Y-8.6614
X3.1569Y-8.9433
X3.2327Y-8.9425
X3.3136Y-8.8485
X3.3339Y-8.8823
X3.3461Y-8.6614
X3.3854Y-8.6614
X3.4324Y-8.9433
X3.5083Y-8.9425
X3.5892Y-8.8485
X3.6094Y-8.8823
X3.6217Y-8.6614
X3.661Y-8.6614
X3.708Y-8.9433
X3.7839Y-8.9425
X3.8648Y-8.8485
X3.885Y-8.8823
X3.8972Y-8.6614
X3.9366Y-8.6614
X3.9836Y-8.9433
X4.0594Y-8.9425
X4.1404Y-8.8485
X4.1606Y-8.8823
X4.1728Y-8.6614
X4.2122Y-8.6614
X4.2592Y-8.9433
X4.335Y-8.9425
X4.416Y-8.8485
X4.4362Y-8.8823
X4.4484Y-8.6614
X4.4878Y-8.6614
X4.5348Y-8.9433
X4.6106Y-8.9425
X4.6916Y-8.8485
X4.7118Y-8.8823
X4.724Y-8.6614
X4.7634Y-8.6614
X4.8104Y-8.9433
X4.8862Y-8.9425
X4.9672Y-8.8485
X4.9874Y-8.8823
X4.9996Y-8.6614
X5.039Y-8.6614
X5.086Y-8.9433
X5.1618Y-8.9425
X5.2427Y-8.8485
X5.263Y-8.8823
X5.2752Y-8.6614
X5.3145Y-8.6614
X5.3616Y-8.9433
X5.4374Y-8.9425
X5.5183Y-8.8485
X5.5386Y-8.8823
X5.5508Y-8.6614
X5.5901Y-8.6614
X5.6372Y-8.9433
X5.713Y-8.9425
X5.7939Y-8.8485
X5.8142Y-8.8823
X5.8264Y-8.6614
X5.8657Y-8.6614
X5.9128Y-8.9433
X5.9886Y-8.9425
X6.0695Y-8.8485
X6.0898Y-8.8823
X6.102Y-8.6614
X6.1413Y-8.6614
X6.1883Y-8.9433
X6.2642Y-8.9425
X6.3451Y-8.8485
X6.3654Y-8.8823
X6.3776Y-8.6614
X6.4169Y-8.6614
X6.4639Y-8.9433
X6.5398Y-8.9425
X6.6207Y-8.8485
X6.6409Y-8.8823
X6.6531Y-8.6614
X6.6925Y-8.6614
X6.7395Y-8.9433
X6.8153Y-8.9425
X6.8963Y-8.8485
X6.9165Y-8.8823
X6.9287Y-8.6614
X6.9681Y-8.6614
X7.0151Y-8.9433
X7.0909Y-8.9425
X7.1719Y-8.8485
X7.1833Y-9.5833
X7.1921Y-8.8823
X7.2043Y-8.6614
X7.2383Y-9.6133
X7.2437Y-8.6614
X7.2478Y-9.5487
X7.2907Y-8.9433
X7.2933Y-9.6393
X7.3013Y-9.5263
X7.3453Y-9.6673
X7.3523Y-9.4983
X7.3665Y-8.9425
X7.4023Y-9.6923
X7.4043Y-9.4723
X7.4475Y-8.8485
X7.4513Y-9.7213
X7.4543Y-9.4443
X7.4677Y-8.8823
X7.4799Y-8.6614
X7.5063Y-9.4163
X7.5193Y-8.6614
X7.5524Y-9.7447
X7.5663Y-8.9433
X7.5787Y-9.3376
X7.6191Y-9.2943
X7.6359Y-9.8007
X7.6421Y-8.9425
X7.6732Y-9.2598
X7.6835Y-9.6787
X7.6971Y-9.4734
X7.7229Y-9.6792
X7.7231Y-8.8485
X7.7336Y-9.4734
X7.7433Y-8.8823
X7.7555Y-8.6614
X7.7677Y-9.2579
X7.7949Y-8.6614
X7.8327Y-9.2874
X7.841Y-9.8023
X7.8419Y-8.9433
X7.872Y-9.3346
X7.9177Y-8.9425
X7.9631Y-9.7243
X7.9987Y-8.8485
X8.0182Y-9.7007
X8.0189Y-8.8823
X8.0311Y-8.6614
X8.0704Y-8.6614
X8.0709Y-9.6771
X8.1175Y-8.9433
X8.1209Y-9.6495
X8.1709Y-9.6204
X8.1933Y-8.9425
X8.2209Y-9.5854
X8.2741Y-9.5571
X8.2742Y-8.8485
X8.2945Y-8.8823
X8.3067Y-8.6614
X8.3253Y-9.5235
X8.346Y-8.6614
X8.3931Y-8.9433
X8.4626Y-9.1575
X8.4644Y-9.121
X8.4689Y-8.9425
X8.4733Y-9.2528
X8.4733Y-9.2894
X8.5049Y-9.3484
X8.5433Y-9.3474
X8.5498Y-8.8485
X8.56Y-9.1417
X8.5701Y-8.8823
X8.5823Y-8.6614
X8.6216Y-8.6614
X8.6687Y-8.9433
X8.6694Y-8.9039
X8.6985Y-8.6738
X8.7012Y-9.0491
X8.7795Y-8.2536
X8.7795Y-8.2929
X8.7795Y-8.3323
X8.7795Y-8.3717
X8.7795Y-8.411
X8.7795Y-8.4504
X8.7795Y-8.4898
X8.7795Y-8.5291
X8.7795Y-8.5685
X8.8426Y-8.822
X8.8717Y-8.8945
X8.9194Y-9.0353
X8.9363Y-8.6997
X8.937Y-8.5893
X8.9378Y-1.8364
X8.9378Y-1.9742
X8.9378Y-2.112
X8.9378Y-2.2498
X8.9378Y-2.3876
X8.9378Y-2.5254
X8.9378Y-2.6632
X8.9378Y-2.801
X8.9378Y-2.9388
X8.9378Y-3.0766
X8.9378Y-3.2144
X8.9378Y-3.3522
X8.9378Y-3.4899
X8.9378Y-3.6277
X8.9378Y-3.7655
X8.9378Y-3.9033
X8.9378Y-4.0411
X8.9378Y-4.1789
X8.9378Y-4.3167
X8.9378Y-4.4545
X8.9378Y-4.5923
X8.9378Y-4.7301
X8.9378Y-4.8679
X8.9378Y-5.0057
X8.9378Y-5.1435
X8.9378Y-5.2813
X8.9378Y-5.4191
X8.9378Y-5.5569
X8.9378Y-5.6947
X8.9378Y-5.8325
X8.9378Y-5.9703
X8.9378Y-6.1081
X8.9378Y-6.2459
X8.9378Y-6.3836
X8.9378Y-6.5214
X8.9378Y-6.6592
X8.9378Y-6.797
X8.9378Y-6.9348
X8.9378Y-7.0726
X8.9378Y-7.2104
X8.9378Y-7.3482
X8.9378Y-7.486
X8.9378Y-7.6238
X8.9378Y-7.7616
X8.9378Y-7.8994
X8.9378Y-8.0372
X8.9378Y-8.175
X8.9378Y-8.3128
X8.9378Y-8.4506
X8.9384Y-1.6988
X8.9577Y-9.0354
X9.0089Y-9.0748
X9.0403Y-9.0561
X9.0453Y-8.5827
X9.0841Y-11.5338
X9.1158Y-9.2245
X9.1273Y-8.3556
X9.1278Y-8.563
X9.1339Y-8.6614
X9.1339Y-9.1472
X9.1467Y-8.8976
X9.1666Y-8.8671
X9.1705Y-9.1476
X9.1722Y-8.6614
X9.2239Y-8.9433
X9.2394Y-8.5625
X9.2399Y-8.3552
X9.2656Y-8.2008
X9.2656Y-8.4337
X9.2996Y-8.9432
X9.311Y-9.8622
X9.3117Y-9.8987
X9.4044Y-9.6182
X9.4059Y-10.0109
X9.4094Y-8.6614
X9.4222Y-8.8612
X9.4222Y-8.8976
X9.4488Y-8.6614
X9.4556Y-9.5847
X9.4994Y-8.9433
X9.5088Y-9.5563
X9.5588Y-9.5213
X9.5752Y-8.9432
X9.6088Y-9.4922
X9.6555Y-8.3409
X9.6555Y-8.3774
X9.6558Y-8.3051
X9.6588Y-9.4647
X9.685Y-8.6614
X9.6978Y-8.8612
X9.6978Y-8.8976
X9.7115Y-9.4411
X9.7244Y-8.6614
X9.7666Y-9.4174
X9.775Y-8.9433
X9.8508Y-8.9432
X9.8576Y-9.8071
X9.8886Y-9.3395
X9.897Y-9.8544
X9.9213Y-8.3071
X9.9619Y-9.8839
X9.9621Y-8.6609
X9.9734Y-8.8612
X9.9734Y-8.8976
X9.9969Y-9.4851
X10.0015Y-8.6609
X10.0113Y-9.5186
X10.0394Y-8.2283
X10.0394Y-8.3071
X10.0506Y-8.9433
X10.0564Y-9.8819
X10.0787Y-8.2677
X10.0787Y-8.3465
X10.0787Y-8.5039
X10.0937Y-9.341
X10.1106Y-9.8475
X10.1181Y-8.2283
X10.1181Y-8.3071
X10.1264Y-8.9432
X10.1575Y-8.2677
X10.1575Y-8.3465
X10.1575Y-8.4252
X10.1575Y-8.5039
X10.1575Y-9.7933
X10.1829Y-9.3932
X10.1969Y-8.2283
X10.1969Y-8.4646
X10.2067Y-9.7255
X10.2076Y-10.2139
X10.2362Y-8.2677
X10.2362Y-8.4252
X10.2362Y-8.5039
X10.2362Y-8.6614
X10.249Y-8.8612
X10.249Y-8.8976
X10.2754Y-9.6975
X10.2756Y-8.6614
X10.2756Y-8.2283
X10.2756Y-8.4646
X10.2784Y-9.4205
X10.315Y-8.2677
X10.315Y-8.3465
X10.315Y-8.4252
X10.315Y-8.5039
X10.3254Y-9.6695
X10.3262Y-8.9433
X10.3274Y-9.4495
X10.3543Y-8.2283
X10.3543Y-8.3071
X10.3543Y-8.3858
X10.3543Y-8.4646
X10.3774Y-9.6435
X10.3844Y-9.4745
X10.402Y-8.9432
X10.4284Y-9.6155
X10.4364Y-9.5025
X10.4819Y-9.593
X10.4914Y-9.5285
X10.5118Y-8.6614
X10.5246Y-8.8612
X10.5246Y-8.8976
X10.5464Y-9.5585
X10.5512Y-8.6614
X10.6018Y-8.9433
X10.6776Y-8.9432
X10.7874Y-8.6614
X10.8002Y-8.8612
X10.8002Y-8.8976
X10.8267Y-8.6614
X10.8774Y-8.9433
X10.9532Y-8.9432
X11.063Y-8.6614
X11.0758Y-8.8612
X11.0758Y-8.8976
X11.1023Y-8.6614
X11.153Y-8.9433
X11.2288Y-8.9432
X11.3386Y-8.6614
X11.3514Y-8.8612
X11.3514Y-8.8976
X11.3779Y-8.6614
X11.4286Y-8.9433
X11.5043Y-8.9432
X11.6142Y-8.6614
X11.627Y-8.8612
X11.627Y-8.8976
X11.6535Y-8.6614
X11.7042Y-8.9433
X11.7799Y-8.9432
X11.8898Y-8.6614
X11.9026Y-8.8612
X11.9026Y-8.8976
X11.9291Y-8.6614
X11.9798Y-8.9433
X12.0555Y-8.9432
X12.1654Y-8.6614
X12.1781Y-8.8612
X12.1781Y-8.8976
X12.2047Y-8.6614
X12.2554Y-8.9433
X12.3311Y-8.9432
X12.4409Y-8.6614
X12.4537Y-8.8612
X12.4537Y-8.8976
X12.4803Y-8.6614
X12.5309Y-8.9433
X12.6067Y-8.9432
X12.7165Y-8.6614
X12.7293Y-8.8612
X12.7293Y-8.8976
X12.7559Y-8.6614
X12.8065Y-8.9433
X12.8823Y-8.9432
X12.9921Y-8.6614
X13.0049Y-8.8612
X13.0049Y-8.8976
X13.0315Y-8.6614
X13.0821Y-8.9433
X13.1579Y-8.9432
X13.2677Y-8.6614
X13.2805Y-8.8612
X13.2805Y-8.8976
X13.3071Y-8.6614
X13.3577Y-8.9433
X13.4335Y-8.9432
X13.5433Y-8.6614
X13.5561Y-8.8612
X13.5561Y-8.8976
X13.5827Y-8.6614
X13.6333Y-8.9433
X13.7091Y-8.9432
X13.8189Y-8.6614
X13.8317Y-8.8612
X13.8317Y-8.8976
X13.8582Y-8.6614
X13.9089Y-8.9433
X13.9847Y-8.9432
X14.0945Y-8.6614
X14.1073Y-8.8612
X14.1073Y-8.8976
X14.1338Y-8.6614
X14.1845Y-8.9433
X14.2602Y-8.9432
X14.3701Y-8.6614
X14.3829Y-8.8612
X14.3829Y-8.8976
X14.4094Y-8.6614
X14.4601Y-8.9433
X14.5358Y-8.9432
X14.6457Y-8.6614
X14.6585Y-8.8612
X14.6585Y-8.8976
X14.685Y-8.6614
X14.7357Y-8.9433
X14.8114Y-8.9432
X14.9213Y-8.6614
X14.9341Y-8.8612
X14.9341Y-8.8976
X14.9606Y-8.6614
X15.0113Y-8.9433
X15.087Y-8.9432
X15.1969Y-8.6614
X15.2096Y-8.8612
X15.2096Y-8.8976
X15.2362Y-8.6614
X15.2869Y-8.9433
X15.3626Y-8.9432
X15.4724Y-8.6614
X15.4852Y-8.8612
X15.4852Y-8.8976
X15.5118Y-8.6614
X15.5624Y-8.9433
X15.6382Y-8.9432
X15.748Y-8.6614
X15.7608Y-8.8612
X15.7608Y-8.8976
X15.7874Y-8.6614
X15.8381Y-8.9444
X15.9138Y-8.9432
X15.9874Y-9.0962
X16.0236Y-8.6614
X16.0364Y-8.8976
X16.048Y-8.8629
X16.063Y-8.6614
X16.063Y-9.0354
T3
X8.4012Y-9.639
X8.4012Y-9.6783
X8.4012Y-9.7177
X8.4012Y-9.7571
X8.4012Y-9.7965
X8.4012Y-9.8358
X8.4012Y-9.8752
X8.4012Y-9.9146
X8.4012Y-9.9539
X8.4012Y-9.9933
X8.4012Y-10.0327
T4
X9.6654Y-8.189
X9.6654Y-8.248
X9.7343Y-8.189
X9.8031Y-8.189
X9.8031Y-8.248
T5
X8.8618Y-9.7541
X8.8618Y-9.8093
X8.8618Y-9.8644
X8.9169Y-9.7541
X8.9169Y-9.8093
X8.9169Y-9.8644
X8.972Y-9.7541
X8.972Y-9.8093
X8.972Y-9.8644
T6
X10.1237Y-10.2134
X10.1237Y-10.3134
X10.1237Y-10.4134
X10.1237Y-10.5134
T7
X10.2362Y-8.1465
X10.2362Y-8.3465
T8
X1.9371Y-7.0037
X1.9371Y-10.7128
X2.3364Y-7.1107
X2.3364Y-10.6058
X2.6529Y-5.2756
X2.6529Y-12.4409
X2.7357Y-7.2177
X2.7357Y-10.4988
X3.0109Y-5.4823
X3.0109Y-12.2343
X3.135Y-7.3247
X3.135Y-10.3918
X3.3689Y-5.689
X3.3689Y-12.0276
X3.5343Y-7.4317
X3.5343Y-10.2848
X3.7269Y-5.8957
X3.7269Y-11.8209
X3.7916Y-3.7916
X3.7916Y-13.9249
X3.9336Y-7.5387
X3.9336Y-10.1778
X4.0839Y-4.0839
X4.0839Y-13.6326
X4.0849Y-6.1024
X4.0849Y-11.6142
X4.3329Y-7.6457
X4.3329Y-10.0708
X4.3762Y-4.3762
X4.3762Y-13.3403
X4.4429Y-6.3091
X4.4429Y-11.4075
X4.6685Y-4.6685
X4.6685Y-13.048
X4.7322Y-7.7527
X4.7322Y-9.9639
X4.8009Y-6.5157
X4.8009Y-11.2008
X4.9608Y-4.9608
X4.9608Y-12.7557
X5.1315Y-7.8597
X5.1315Y-9.8569
X5.1589Y-6.7224
X5.1589Y-10.9941
X5.2531Y-5.2531
X5.2531Y-12.4634
X5.2756Y-2.6529
X5.2756Y-15.0636
X5.4823Y-3.0109
X5.4823Y-14.7056
X5.5169Y-6.9291
X5.5169Y-10.7874
X5.5308Y-7.9667
X5.5308Y-9.7499
X5.5454Y-5.5454
X5.5454Y-12.1711
X5.689Y-3.3689
X5.689Y-14.3476
X5.8378Y-5.8378
X5.8378Y-11.8788
X5.8749Y-7.1358
X5.8749Y-10.5807
X5.8957Y-3.7269
X5.8957Y-13.9896
X5.9301Y-8.0737
X5.9301Y-9.6429
X6.1024Y-4.0849
X6.1024Y-13.6316
X6.1301Y-6.1301
X6.1301Y-11.5865
X6.2329Y-7.3425
X6.2329Y-10.374
X6.3091Y-4.4429
X6.3091Y-13.2736
X6.3294Y-8.1807
X6.3294Y-9.5359
X6.4224Y-6.4224
X6.4224Y-11.2942
X6.5157Y-4.8009
X6.5157Y-12.9156
X6.5909Y-7.5492
X6.5909Y-10.1673
X6.7147Y-6.7147
X6.7147Y-11.0019
X6.7224Y-5.1589
X6.7224Y-12.5576
X6.7287Y-8.2876
X6.7287Y-9.4289
X6.9291Y-5.5169
X6.9291Y-12.1996
X7.0037Y-1.9371
X7.0037Y-15.7795
X7.007Y-7.007
X7.007Y-10.7096
X7.1107Y-2.3364
X7.1107Y-15.3802
X7.1358Y-5.8749
X7.1358Y-11.8416
X7.2177Y-2.7357
X7.2177Y-14.9809
X7.2993Y-7.2993
X7.2993Y-10.4172
X7.3247Y-3.135
X7.3247Y-14.5816
X7.3425Y-6.2329
X7.3425Y-11.4836
X7.4317Y-3.5343
X7.4317Y-14.1823
X7.5387Y-3.9336
X7.5387Y-13.783
X7.5492Y-6.5909
X7.5492Y-11.1256
X7.6457Y-4.3329
X7.6457Y-13.3837
X7.7527Y-4.7322
X7.7527Y-12.9844
X7.8597Y-5.1315
X7.8597Y-12.5851
X7.9667Y-5.5308
X7.9667Y-12.1858
X8.0737Y-5.9301
X8.0737Y-11.7865
X8.1807Y-6.3294
X8.1807Y-11.3872
X8.2876Y-6.7287
X8.8583Y-11.4764
X8.8583Y-11.8898
X8.8583Y-12.3031
X8.8583Y-12.7165
X8.8583Y-13.1299
X8.8583Y-13.5433
X8.8583Y-13.9567
X8.8583Y-14.3701
X8.8583Y-14.7835
X8.8583Y-15.1969
X8.8583Y-15.6102
X8.8583Y-16.0236
X9.4289Y-6.7287
X9.5359Y-6.3294
X9.5359Y-11.3872
X9.6429Y-5.9301
X9.6429Y-11.7865
X9.7499Y-5.5308
X9.7499Y-12.1858
X9.8569Y-5.1315
X9.8569Y-12.5851
X9.9639Y-4.7322
X9.9639Y-12.9844
X10.0708Y-4.3329
X10.0708Y-13.3837
X10.1673Y-6.5909
X10.1673Y-11.1256
X10.1778Y-3.9336
X10.1778Y-13.783
X10.2848Y-3.5343
X10.2848Y-14.1823
X10.374Y-6.2329
X10.374Y-11.4836
X10.3918Y-3.135
X10.3918Y-14.5816
X10.4172Y-7.2993
X10.4172Y-10.4172
X10.4988Y-2.7357
X10.4988Y-14.9809
X10.5807Y-5.8749
X10.5807Y-11.8416
X10.6058Y-2.3364
X10.6058Y-15.3802
X10.7096Y-7.007
X10.7096Y-10.7096
X10.7128Y-1.9371
X10.7128Y-15.7795
X10.7874Y-5.5169
X10.7874Y-12.1996
X10.9879Y-8.2876
X10.9879Y-9.4289
X10.9941Y-5.1589
X10.9941Y-12.5576
X11.0019Y-6.7147
X11.0019Y-11.0019
X11.1256Y-7.5492
X11.1256Y-10.1673
X11.2008Y-4.8009
X11.2008Y-12.9156
X11.2942Y-6.4224
X11.2942Y-11.2942
X11.3872Y-8.1807
X11.3872Y-9.5359
X11.4075Y-4.4429
X11.4075Y-13.2736
X11.4836Y-7.3425
X11.4836Y-10.374
X11.5865Y-6.1301
X11.5865Y-11.5865
X11.6142Y-4.0849
X11.6142Y-13.6316
X11.7865Y-8.0737
X11.7865Y-9.6429
X11.8209Y-3.7269
X11.8209Y-13.9896
X11.8416Y-7.1358
X11.8416Y-10.5807
X11.8788Y-5.8378
X11.8788Y-11.8788
X12.0276Y-3.3689
X12.0276Y-14.3476
X12.1711Y-5.5454
X12.1711Y-12.1711
X12.1858Y-7.9667
X12.1858Y-9.7499
X12.1996Y-6.9291
X12.1996Y-10.7874
X12.2343Y-3.0109
X12.2343Y-14.7056
X12.4409Y-2.6529
X12.4409Y-15.0636
X12.4634Y-5.2531
X12.4634Y-12.4634
X12.5576Y-6.7224
X12.5576Y-10.9941
X12.5851Y-7.8597
X12.5851Y-9.8569
X12.7557Y-4.9608
X12.7557Y-12.7557
X12.9156Y-6.5157
X12.9156Y-11.2008
X12.9844Y-7.7527
X12.9844Y-9.9639
X13.048Y-4.6685
X13.048Y-13.048
X13.2736Y-6.3091
X13.2736Y-11.4075
X13.3403Y-4.3762
X13.3403Y-13.3403
X13.3837Y-7.6457
X13.3837Y-10.0708
X13.6316Y-6.1024
X13.6316Y-11.6142
X13.6326Y-4.0839
X13.6326Y-13.6326
X13.783Y-7.5387
X13.783Y-10.1778
X13.9249Y-3.7916
X13.9249Y-13.9249
X13.9896Y-5.8957
X13.9896Y-11.8209
X14.1823Y-7.4317
X14.1823Y-10.2848
X14.3476Y-5.689
X14.3476Y-12.0276
X14.5816Y-7.3247
X14.5816Y-10.3918
X14.7056Y-5.4823
X14.7056Y-12.2343
X14.9809Y-7.2177
X14.9809Y-10.4988
X15.0636Y-5.2756
X15.0636Y-12.4409
X15.3802Y-7.1107
X15.3802Y-10.6058
X15.7795Y-7.0037
X15.7795Y-10.7128
T0
M30
