%TF.GenerationSoftware,KiCad,Pcbnew,7.0.9*%
%TF.CreationDate,2023-12-05T15:59:31+01:00*%
%TF.ProjectId,board_fully_integrated,626f6172-645f-4667-956c-6c795f696e74,rev?*%
%TF.SameCoordinates,Original*%
%TF.FileFunction,Legend,Bot*%
%TF.FilePolarity,Positive*%
%FSLAX46Y46*%
G04 Gerber Fmt 4.6, Leading zero omitted, Abs format (unit mm)*
G04 Created by KiCad (PCBNEW 7.0.9) date 2023-12-05 15:59:31*
%MOMM*%
%LPD*%
G01*
G04 APERTURE LIST*
G04 Aperture macros list*
%AMRoundRect*
0 Rectangle with rounded corners*
0 $1 Rounding radius*
0 $2 $3 $4 $5 $6 $7 $8 $9 X,Y pos of 4 corners*
0 Add a 4 corners polygon primitive as box body*
4,1,4,$2,$3,$4,$5,$6,$7,$8,$9,$2,$3,0*
0 Add four circle primitives for the rounded corners*
1,1,$1+$1,$2,$3*
1,1,$1+$1,$4,$5*
1,1,$1+$1,$6,$7*
1,1,$1+$1,$8,$9*
0 Add four rect primitives between the rounded corners*
20,1,$1+$1,$2,$3,$4,$5,0*
20,1,$1+$1,$4,$5,$6,$7,0*
20,1,$1+$1,$6,$7,$8,$9,0*
20,1,$1+$1,$8,$9,$2,$3,0*%
G04 Aperture macros list end*
%ADD10C,0.150000*%
%ADD11C,0.120000*%
%ADD12R,0.850000X0.850000*%
%ADD13O,0.850000X0.850000*%
%ADD14R,1.700000X1.700000*%
%ADD15O,1.700000X1.700000*%
%ADD16C,3.800000*%
%ADD17C,3.200000*%
%ADD18RoundRect,0.250000X0.450000X-0.350000X0.450000X0.350000X-0.450000X0.350000X-0.450000X-0.350000X0*%
%ADD19RoundRect,0.250000X-0.450000X0.350000X-0.450000X-0.350000X0.450000X-0.350000X0.450000X0.350000X0*%
%ADD20R,2.600000X2.600000*%
%ADD21C,2.600000*%
%ADD22RoundRect,0.197500X-0.632500X0.197500X-0.632500X-0.197500X0.632500X-0.197500X0.632500X0.197500X0*%
G04 APERTURE END LIST*
D10*
X231441304Y-293176269D02*
X231441304Y-293747697D01*
X231441304Y-293461983D02*
X232441304Y-293461983D01*
X232441304Y-293461983D02*
X232298447Y-293557221D01*
X232298447Y-293557221D02*
X232203209Y-293652459D01*
X232203209Y-293652459D02*
X232155590Y-293747697D01*
X232441304Y-292557221D02*
X232441304Y-292461983D01*
X232441304Y-292461983D02*
X232393685Y-292366745D01*
X232393685Y-292366745D02*
X232346066Y-292319126D01*
X232346066Y-292319126D02*
X232250828Y-292271507D01*
X232250828Y-292271507D02*
X232060352Y-292223888D01*
X232060352Y-292223888D02*
X231822257Y-292223888D01*
X231822257Y-292223888D02*
X231631781Y-292271507D01*
X231631781Y-292271507D02*
X231536543Y-292319126D01*
X231536543Y-292319126D02*
X231488924Y-292366745D01*
X231488924Y-292366745D02*
X231441304Y-292461983D01*
X231441304Y-292461983D02*
X231441304Y-292557221D01*
X231441304Y-292557221D02*
X231488924Y-292652459D01*
X231488924Y-292652459D02*
X231536543Y-292700078D01*
X231536543Y-292700078D02*
X231631781Y-292747697D01*
X231631781Y-292747697D02*
X231822257Y-292795316D01*
X231822257Y-292795316D02*
X232060352Y-292795316D01*
X232060352Y-292795316D02*
X232250828Y-292747697D01*
X232250828Y-292747697D02*
X232346066Y-292700078D01*
X232346066Y-292700078D02*
X232393685Y-292652459D01*
X232393685Y-292652459D02*
X232441304Y-292557221D01*
X231441304Y-291795316D02*
X232441304Y-291795316D01*
X231441304Y-291223888D02*
X232012733Y-291652459D01*
X232441304Y-291223888D02*
X231869876Y-291795316D01*
X229333992Y-293186199D02*
X229333992Y-293757627D01*
X229333992Y-293471913D02*
X230333992Y-293471913D01*
X230333992Y-293471913D02*
X230191135Y-293567151D01*
X230191135Y-293567151D02*
X230095897Y-293662389D01*
X230095897Y-293662389D02*
X230048278Y-293757627D01*
X230333992Y-292567151D02*
X230333992Y-292471913D01*
X230333992Y-292471913D02*
X230286373Y-292376675D01*
X230286373Y-292376675D02*
X230238754Y-292329056D01*
X230238754Y-292329056D02*
X230143516Y-292281437D01*
X230143516Y-292281437D02*
X229953040Y-292233818D01*
X229953040Y-292233818D02*
X229714945Y-292233818D01*
X229714945Y-292233818D02*
X229524469Y-292281437D01*
X229524469Y-292281437D02*
X229429231Y-292329056D01*
X229429231Y-292329056D02*
X229381612Y-292376675D01*
X229381612Y-292376675D02*
X229333992Y-292471913D01*
X229333992Y-292471913D02*
X229333992Y-292567151D01*
X229333992Y-292567151D02*
X229381612Y-292662389D01*
X229381612Y-292662389D02*
X229429231Y-292710008D01*
X229429231Y-292710008D02*
X229524469Y-292757627D01*
X229524469Y-292757627D02*
X229714945Y-292805246D01*
X229714945Y-292805246D02*
X229953040Y-292805246D01*
X229953040Y-292805246D02*
X230143516Y-292757627D01*
X230143516Y-292757627D02*
X230238754Y-292710008D01*
X230238754Y-292710008D02*
X230286373Y-292662389D01*
X230286373Y-292662389D02*
X230333992Y-292567151D01*
X230333992Y-291614770D02*
X230333992Y-291519532D01*
X230333992Y-291519532D02*
X230286373Y-291424294D01*
X230286373Y-291424294D02*
X230238754Y-291376675D01*
X230238754Y-291376675D02*
X230143516Y-291329056D01*
X230143516Y-291329056D02*
X229953040Y-291281437D01*
X229953040Y-291281437D02*
X229714945Y-291281437D01*
X229714945Y-291281437D02*
X229524469Y-291329056D01*
X229524469Y-291329056D02*
X229429231Y-291376675D01*
X229429231Y-291376675D02*
X229381612Y-291424294D01*
X229381612Y-291424294D02*
X229333992Y-291519532D01*
X229333992Y-291519532D02*
X229333992Y-291614770D01*
X229333992Y-291614770D02*
X229381612Y-291710008D01*
X229381612Y-291710008D02*
X229429231Y-291757627D01*
X229429231Y-291757627D02*
X229524469Y-291805246D01*
X229524469Y-291805246D02*
X229714945Y-291852865D01*
X229714945Y-291852865D02*
X229953040Y-291852865D01*
X229953040Y-291852865D02*
X230143516Y-291805246D01*
X230143516Y-291805246D02*
X230238754Y-291757627D01*
X230238754Y-291757627D02*
X230286373Y-291710008D01*
X230286373Y-291710008D02*
X230333992Y-291614770D01*
X229333992Y-290281437D02*
X229810183Y-290614770D01*
X229333992Y-290852865D02*
X230333992Y-290852865D01*
X230333992Y-290852865D02*
X230333992Y-290471913D01*
X230333992Y-290471913D02*
X230286373Y-290376675D01*
X230286373Y-290376675D02*
X230238754Y-290329056D01*
X230238754Y-290329056D02*
X230143516Y-290281437D01*
X230143516Y-290281437D02*
X230000659Y-290281437D01*
X230000659Y-290281437D02*
X229905421Y-290329056D01*
X229905421Y-290329056D02*
X229857802Y-290376675D01*
X229857802Y-290376675D02*
X229810183Y-290471913D01*
X229810183Y-290471913D02*
X229810183Y-290852865D01*
X232312813Y-298299879D02*
X231836622Y-297966546D01*
X232312813Y-297728451D02*
X231312813Y-297728451D01*
X231312813Y-297728451D02*
X231312813Y-298109403D01*
X231312813Y-298109403D02*
X231360432Y-298204641D01*
X231360432Y-298204641D02*
X231408051Y-298252260D01*
X231408051Y-298252260D02*
X231503289Y-298299879D01*
X231503289Y-298299879D02*
X231646146Y-298299879D01*
X231646146Y-298299879D02*
X231741384Y-298252260D01*
X231741384Y-298252260D02*
X231789003Y-298204641D01*
X231789003Y-298204641D02*
X231836622Y-298109403D01*
X231836622Y-298109403D02*
X231836622Y-297728451D01*
X231408051Y-298680832D02*
X231360432Y-298728451D01*
X231360432Y-298728451D02*
X231312813Y-298823689D01*
X231312813Y-298823689D02*
X231312813Y-299061784D01*
X231312813Y-299061784D02*
X231360432Y-299157022D01*
X231360432Y-299157022D02*
X231408051Y-299204641D01*
X231408051Y-299204641D02*
X231503289Y-299252260D01*
X231503289Y-299252260D02*
X231598527Y-299252260D01*
X231598527Y-299252260D02*
X231741384Y-299204641D01*
X231741384Y-299204641D02*
X232312813Y-298633213D01*
X232312813Y-298633213D02*
X232312813Y-299252260D01*
X230195397Y-298396581D02*
X229719206Y-298063248D01*
X230195397Y-297825153D02*
X229195397Y-297825153D01*
X229195397Y-297825153D02*
X229195397Y-298206105D01*
X229195397Y-298206105D02*
X229243016Y-298301343D01*
X229243016Y-298301343D02*
X229290635Y-298348962D01*
X229290635Y-298348962D02*
X229385873Y-298396581D01*
X229385873Y-298396581D02*
X229528730Y-298396581D01*
X229528730Y-298396581D02*
X229623968Y-298348962D01*
X229623968Y-298348962D02*
X229671587Y-298301343D01*
X229671587Y-298301343D02*
X229719206Y-298206105D01*
X229719206Y-298206105D02*
X229719206Y-297825153D01*
X230195397Y-299348962D02*
X230195397Y-298777534D01*
X230195397Y-299063248D02*
X229195397Y-299063248D01*
X229195397Y-299063248D02*
X229338254Y-298968010D01*
X229338254Y-298968010D02*
X229433492Y-298872772D01*
X229433492Y-298872772D02*
X229481111Y-298777534D01*
X226227700Y-293786741D02*
X226227700Y-294596264D01*
X226227700Y-294596264D02*
X226180081Y-294691502D01*
X226180081Y-294691502D02*
X226132462Y-294739122D01*
X226132462Y-294739122D02*
X226037224Y-294786741D01*
X226037224Y-294786741D02*
X225846748Y-294786741D01*
X225846748Y-294786741D02*
X225751510Y-294739122D01*
X225751510Y-294739122D02*
X225703891Y-294691502D01*
X225703891Y-294691502D02*
X225656272Y-294596264D01*
X225656272Y-294596264D02*
X225656272Y-293786741D01*
X224751510Y-293786741D02*
X224941986Y-293786741D01*
X224941986Y-293786741D02*
X225037224Y-293834360D01*
X225037224Y-293834360D02*
X225084843Y-293881979D01*
X225084843Y-293881979D02*
X225180081Y-294024836D01*
X225180081Y-294024836D02*
X225227700Y-294215312D01*
X225227700Y-294215312D02*
X225227700Y-294596264D01*
X225227700Y-294596264D02*
X225180081Y-294691502D01*
X225180081Y-294691502D02*
X225132462Y-294739122D01*
X225132462Y-294739122D02*
X225037224Y-294786741D01*
X225037224Y-294786741D02*
X224846748Y-294786741D01*
X224846748Y-294786741D02*
X224751510Y-294739122D01*
X224751510Y-294739122D02*
X224703891Y-294691502D01*
X224703891Y-294691502D02*
X224656272Y-294596264D01*
X224656272Y-294596264D02*
X224656272Y-294358169D01*
X224656272Y-294358169D02*
X224703891Y-294262931D01*
X224703891Y-294262931D02*
X224751510Y-294215312D01*
X224751510Y-294215312D02*
X224846748Y-294167693D01*
X224846748Y-294167693D02*
X225037224Y-294167693D01*
X225037224Y-294167693D02*
X225132462Y-294215312D01*
X225132462Y-294215312D02*
X225180081Y-294262931D01*
X225180081Y-294262931D02*
X225227700Y-294358169D01*
X224275319Y-293881979D02*
X224227700Y-293834360D01*
X224227700Y-293834360D02*
X224132462Y-293786741D01*
X224132462Y-293786741D02*
X223894367Y-293786741D01*
X223894367Y-293786741D02*
X223799129Y-293834360D01*
X223799129Y-293834360D02*
X223751510Y-293881979D01*
X223751510Y-293881979D02*
X223703891Y-293977217D01*
X223703891Y-293977217D02*
X223703891Y-294072455D01*
X223703891Y-294072455D02*
X223751510Y-294215312D01*
X223751510Y-294215312D02*
X224322938Y-294786741D01*
X224322938Y-294786741D02*
X223703891Y-294786741D01*
D11*
%TO.C,R2*%
X231104065Y-295935373D02*
X231104065Y-295481245D01*
X232574065Y-295935373D02*
X232574065Y-295481245D01*
%TO.C,R1*%
X230472066Y-295481245D02*
X230472066Y-295935373D01*
X229002066Y-295481245D02*
X229002066Y-295935373D01*
%TO.C,J11*%
X255100000Y-214840000D02*
X255100000Y-214340000D01*
X255840000Y-214840000D02*
X255100000Y-214840000D01*
X255340000Y-214600000D02*
X255340000Y-204320000D01*
X255900000Y-214600000D02*
X255900000Y-204320000D01*
X257400000Y-214600000D02*
X257400000Y-204320000D01*
X262301000Y-214600000D02*
X262301000Y-204320000D01*
X265261000Y-214600000D02*
X255340000Y-214600000D01*
X265261000Y-214600000D02*
X265261000Y-204320000D01*
X258977000Y-208147000D02*
X258931000Y-208194000D01*
X258761000Y-207954000D02*
X258726000Y-207989000D01*
X261275000Y-205850000D02*
X261239000Y-205885000D01*
X261069000Y-205645000D02*
X261023000Y-205692000D01*
X265261000Y-204320000D02*
X255340000Y-204320000D01*
X259316958Y-213535427D02*
G75*
G03*
X260684000Y-213535000I683041J1535420D01*
G01*
X258319748Y-211971195D02*
G75*
G03*
X258465001Y-212684000I1680253J-28806D01*
G01*
X258465244Y-211316682D02*
G75*
G03*
X258320000Y-212000000I1534756J-683318D01*
G01*
X261535427Y-212683042D02*
G75*
G03*
X261535000Y-211316000I-1535420J683041D01*
G01*
X260683042Y-210464573D02*
G75*
G03*
X259316000Y-210465000I-683041J-1535431D01*
G01*
X261680000Y-206920000D02*
G75*
G03*
X261680000Y-206920000I-1680000J0D01*
G01*
%TO.C,U62*%
X226389606Y-295131922D02*
X222189606Y-295131922D01*
X226389606Y-298531922D02*
X223589606Y-298531922D01*
%TD*%
%LPC*%
D12*
%TO.C,J35*%
X213391306Y-254830053D03*
D13*
X213391306Y-253830053D03*
X213391306Y-252830053D03*
X213391306Y-251830053D03*
X213391306Y-250830053D03*
X213391306Y-249830053D03*
X213391306Y-248830053D03*
X213391306Y-247830053D03*
X213391306Y-246830053D03*
X213391306Y-245830053D03*
X213391306Y-244830053D03*
%TD*%
D14*
%TO.C,J1*%
X257141306Y-267040053D03*
D15*
X257141306Y-264500053D03*
X257141306Y-261960053D03*
X257141306Y-259420053D03*
%TD*%
D16*
%TO.C,H1*%
X225000000Y-323000000D03*
%TD*%
%TO.C,H1*%
X89770384Y-188765334D03*
%TD*%
D17*
%TO.C,H6*%
X273497423Y-253000000D03*
%TD*%
D16*
%TO.C,H1*%
X155000000Y-346243557D03*
%TD*%
%TO.C,H1*%
X103756443Y-155000000D03*
%TD*%
%TO.C,H1*%
X170750000Y-131036244D03*
%TD*%
%TO.C,H1*%
X355336823Y-300250000D03*
%TD*%
%TO.C,H1*%
X319660731Y-250364266D03*
%TD*%
%TO.C,H1*%
X286871843Y-286871843D03*
%TD*%
%TO.C,H1*%
X140481490Y-202353334D03*
%TD*%
%TO.C,H1*%
X346268813Y-346268813D03*
%TD*%
%TO.C,H1*%
X263952266Y-79628163D03*
%TD*%
%TO.C,H1*%
X300250000Y-94663177D03*
%TD*%
%TO.C,H1*%
X301721086Y-301721086D03*
%TD*%
%TO.C,H1*%
X126005051Y-126005051D03*
%TD*%
%TO.C,H1*%
X268750000Y-149222777D03*
%TD*%
%TO.C,H1*%
X149222777Y-268750000D03*
%TD*%
%TO.C,H1*%
X310750000Y-76476643D03*
%TD*%
%TO.C,H1*%
X264597980Y-264597980D03*
%TD*%
%TO.C,H1*%
X301721086Y-148278914D03*
%TD*%
%TO.C,H1*%
X170908154Y-210506133D03*
%TD*%
%TO.C,H1*%
X134000000Y-382616623D03*
%TD*%
%TO.C,H1*%
X158316044Y-186500000D03*
%TD*%
%TO.C,H1*%
X316570328Y-133429672D03*
%TD*%
%TO.C,H1*%
X266669866Y-69485942D03*
%TD*%
D17*
%TO.C,H4*%
X253000000Y-176502577D03*
%TD*%
D16*
%TO.C,H1*%
X400798500Y-177894934D03*
%TD*%
%TO.C,H1*%
X337150290Y-160250000D03*
%TD*%
%TO.C,H1*%
X120197048Y-196918134D03*
%TD*%
%TO.C,H1*%
X180612534Y-390656279D03*
%TD*%
%TO.C,H1*%
X360229616Y-261234666D03*
%TD*%
%TO.C,H1*%
X191482934Y-350087395D03*
%TD*%
%TO.C,H1*%
X255799466Y-339945173D03*
%TD*%
%TO.C,H1*%
X331419571Y-331419571D03*
%TD*%
%TO.C,H1*%
X346243557Y-295000000D03*
%TD*%
%TO.C,H1*%
X370371837Y-186047734D03*
%TD*%
%TO.C,H1*%
X112849710Y-160250000D03*
%TD*%
D17*
%TO.C,H5*%
X273497423Y-197000000D03*
%TD*%
D16*
%TO.C,H1*%
X316000000Y-382616623D03*
%TD*%
%TO.C,H1*%
X69485942Y-266669866D03*
%TD*%
%TO.C,H1*%
X176000000Y-309870490D03*
%TD*%
%TO.C,H1*%
X272022601Y-272022601D03*
%TD*%
%TO.C,H1*%
X258517066Y-350087395D03*
%TD*%
%TO.C,H1*%
X373523357Y-139250000D03*
%TD*%
%TO.C,H1*%
X167409311Y-191750000D03*
%TD*%
%TO.C,H1*%
X355336823Y-149750000D03*
%TD*%
%TO.C,H1*%
X67383377Y-134000000D03*
%TD*%
%TO.C,H1*%
X188765334Y-89770384D03*
%TD*%
%TO.C,H1*%
X282590689Y-258250000D03*
%TD*%
%TO.C,H1*%
X337150290Y-289750000D03*
%TD*%
%TO.C,H1*%
X225000000Y-375500000D03*
%TD*%
%TO.C,H1*%
X85569910Y-305500000D03*
%TD*%
%TO.C,H1*%
X225000000Y-354500000D03*
%TD*%
%TO.C,H1*%
X353693434Y-353693434D03*
%TD*%
%TO.C,H1*%
X139250000Y-76476643D03*
%TD*%
%TO.C,H1*%
X261234666Y-89770384D03*
%TD*%
%TO.C,H1*%
X318963756Y-279250000D03*
%TD*%
%TO.C,H1*%
X185402020Y-185402020D03*
%TD*%
%TO.C,H1*%
X364430090Y-305500000D03*
%TD*%
%TO.C,H1*%
X120197048Y-253081866D03*
%TD*%
%TO.C,H1*%
X111155808Y-111155808D03*
%TD*%
%TO.C,H1*%
X346243557Y-155000000D03*
%TD*%
%TO.C,H1*%
X148278914Y-148278914D03*
%TD*%
%TO.C,H1*%
X160250000Y-337150290D03*
%TD*%
%TO.C,H1*%
X103756443Y-295000000D03*
%TD*%
%TO.C,H1*%
X225000000Y-291500000D03*
%TD*%
%TO.C,H1*%
X382616623Y-316000000D03*
%TD*%
%TO.C,H1*%
X94663177Y-300250000D03*
%TD*%
%TO.C,H1*%
X131036244Y-170750000D03*
%TD*%
%TO.C,H1*%
X140129510Y-176000000D03*
%TD*%
%TO.C,H1*%
X299376289Y-244929066D03*
%TD*%
%TO.C,H1*%
X199635734Y-130339269D03*
%TD*%
%TO.C,H1*%
X284500000Y-328057023D03*
%TD*%
%TO.C,H1*%
X364430090Y-144500000D03*
%TD*%
%TO.C,H1*%
X183330134Y-380514058D03*
%TD*%
%TO.C,H1*%
X279091846Y-210506133D03*
%TD*%
%TO.C,H1*%
X207788534Y-289234067D03*
%TD*%
%TO.C,H1*%
X289234067Y-207788534D03*
%TD*%
%TO.C,H1*%
X295000000Y-346243557D03*
%TD*%
%TO.C,H1*%
X76476643Y-310750000D03*
%TD*%
%TO.C,H1*%
X49201500Y-177894934D03*
%TD*%
%TO.C,H1*%
X49201500Y-272105066D03*
%TD*%
%TO.C,H1*%
X181250000Y-149222777D03*
%TD*%
%TO.C,H1*%
X205070934Y-299376289D03*
%TD*%
D17*
%TO.C,H8*%
X197000000Y-273497423D03*
%TD*%
D16*
%TO.C,H1*%
X170552778Y-279447222D03*
%TD*%
%TO.C,H1*%
X110054827Y-194200534D03*
%TD*%
%TO.C,H1*%
X253081866Y-329802952D03*
%TD*%
%TO.C,H1*%
X244929066Y-299376289D03*
%TD*%
%TO.C,H1*%
X264597980Y-185402020D03*
%TD*%
%TO.C,H1*%
X295000000Y-103756443D03*
%TD*%
%TO.C,H1*%
X310750000Y-373523357D03*
%TD*%
%TO.C,H1*%
X319660731Y-199635734D03*
%TD*%
%TO.C,H1*%
X149750000Y-355336823D03*
%TD*%
%TO.C,H1*%
X242211466Y-160765933D03*
%TD*%
%TO.C,H1*%
X170552778Y-170552778D03*
%TD*%
D17*
%TO.C,H9*%
X176502577Y-253000000D03*
%TD*%
D16*
%TO.C,H1*%
X309145707Y-309145707D03*
%TD*%
%TO.C,H1*%
X294296465Y-155703535D03*
%TD*%
%TO.C,H1*%
X255799466Y-110054827D03*
%TD*%
%TO.C,H1*%
X133429672Y-316570328D03*
%TD*%
%TO.C,H1*%
X274000000Y-309870490D03*
%TD*%
%TO.C,H1*%
X258250000Y-167409311D03*
%TD*%
%TO.C,H1*%
X268750000Y-300777223D03*
%TD*%
%TO.C,H1*%
X380514058Y-183330134D03*
%TD*%
%TO.C,H1*%
X279250000Y-318963756D03*
%TD*%
%TO.C,H1*%
X155703535Y-155703535D03*
%TD*%
%TO.C,H1*%
X111155808Y-338844192D03*
%TD*%
%TO.C,H1*%
X79628163Y-186047734D03*
%TD*%
%TO.C,H1*%
X188765334Y-360229616D03*
%TD*%
%TO.C,H1*%
X186500000Y-291683956D03*
%TD*%
%TO.C,H1*%
X400798500Y-272105066D03*
%TD*%
%TO.C,H1*%
X323994949Y-323994949D03*
%TD*%
%TO.C,H1*%
X225000000Y-312500000D03*
%TD*%
%TO.C,H1*%
X253081866Y-120197048D03*
%TD*%
%TO.C,H1*%
X247646666Y-309518510D03*
%TD*%
%TO.C,H1*%
X163128157Y-163128157D03*
%TD*%
%TO.C,H1*%
X186500000Y-158316044D03*
%TD*%
%TO.C,H1*%
X300777223Y-181250000D03*
%TD*%
%TO.C,H1*%
X225000000Y-386000000D03*
%TD*%
%TO.C,H1*%
X289234067Y-242211466D03*
%TD*%
%TO.C,H1*%
X338844192Y-338844192D03*
%TD*%
%TO.C,H1*%
X144500000Y-85569910D03*
%TD*%
%TO.C,H1*%
X133429672Y-133429672D03*
%TD*%
%TO.C,H1*%
X284500000Y-121942977D03*
%TD*%
%TO.C,H1*%
X170750000Y-318963756D03*
%TD*%
%TO.C,H1*%
X239493867Y-170908154D03*
%TD*%
%TO.C,H1*%
X225000000Y-344000000D03*
%TD*%
%TO.C,H1*%
X291683956Y-263500000D03*
%TD*%
%TO.C,H1*%
X309518510Y-202353334D03*
%TD*%
%TO.C,H1*%
X177977399Y-177977399D03*
%TD*%
%TO.C,H1*%
X180612534Y-59343721D03*
%TD*%
%TO.C,H1*%
X299376289Y-205070934D03*
%TD*%
%TO.C,H1*%
X191482934Y-99912605D03*
%TD*%
%TO.C,H1*%
X225000000Y-302000000D03*
%TD*%
%TO.C,H1*%
X305500000Y-85569910D03*
%TD*%
%TO.C,H1*%
X130339269Y-250364266D03*
%TD*%
%TO.C,H1*%
X225000000Y-333500000D03*
%TD*%
%TO.C,H1*%
X99912605Y-191482934D03*
%TD*%
%TO.C,H1*%
X346268813Y-103731187D03*
%TD*%
%TO.C,H1*%
X294296465Y-294296465D03*
%TD*%
%TO.C,H1*%
X126005051Y-323994949D03*
%TD*%
%TO.C,H1*%
X390656279Y-269387466D03*
%TD*%
%TO.C,H1*%
X289750000Y-337150290D03*
%TD*%
%TO.C,H1*%
X199635734Y-319660731D03*
%TD*%
%TO.C,H1*%
X309870490Y-274000000D03*
%TD*%
%TO.C,H1*%
X258517066Y-99912605D03*
%TD*%
%TO.C,H1*%
X350087395Y-191482934D03*
%TD*%
%TO.C,H1*%
X149222777Y-181250000D03*
%TD*%
%TO.C,H1*%
X186047734Y-79628163D03*
%TD*%
%TO.C,H1*%
X329802952Y-196918134D03*
%TD*%
%TO.C,H1*%
X309870490Y-176000000D03*
%TD*%
%TO.C,H1*%
X196918134Y-120197048D03*
%TD*%
%TO.C,H1*%
X328057023Y-284500000D03*
%TD*%
%TO.C,H1*%
X194200534Y-339945173D03*
%TD*%
%TO.C,H1*%
X339945173Y-194200534D03*
%TD*%
%TO.C,H1*%
X242211466Y-289234067D03*
%TD*%
%TO.C,H1*%
X158316044Y-263500000D03*
%TD*%
%TO.C,H1*%
X194200534Y-110054827D03*
%TD*%
%TO.C,H1*%
X380514058Y-266669866D03*
%TD*%
%TO.C,H1*%
X79628163Y-263952266D03*
%TD*%
%TO.C,H1*%
X263500000Y-291683956D03*
%TD*%
%TO.C,H1*%
X263952266Y-370371837D03*
%TD*%
%TO.C,H1*%
X170908154Y-239493867D03*
%TD*%
%TO.C,H1*%
X140854293Y-309145707D03*
%TD*%
%TO.C,H1*%
X160765933Y-207788534D03*
%TD*%
%TO.C,H1*%
X353693434Y-96306566D03*
%TD*%
%TO.C,H1*%
X300777223Y-268750000D03*
%TD*%
%TO.C,H1*%
X279447222Y-279447222D03*
%TD*%
%TO.C,H1*%
X331419571Y-118580429D03*
%TD*%
%TO.C,H1*%
X309145707Y-140854293D03*
%TD*%
%TO.C,H1*%
X118580429Y-118580429D03*
%TD*%
%TO.C,H1*%
X191750000Y-282590689D03*
%TD*%
%TO.C,H1*%
X279091846Y-239493867D03*
%TD*%
%TO.C,H1*%
X269387466Y-59343721D03*
%TD*%
%TO.C,H1*%
X373523357Y-310750000D03*
%TD*%
%TO.C,H1*%
X207788534Y-160765933D03*
%TD*%
%TO.C,H1*%
X177894934Y-49201500D03*
%TD*%
%TO.C,H1*%
X205070934Y-150623711D03*
%TD*%
%TO.C,H1*%
X139250000Y-373523357D03*
%TD*%
%TO.C,H1*%
X165500000Y-121942977D03*
%TD*%
%TO.C,H1*%
X316570328Y-316570328D03*
%TD*%
%TO.C,H1*%
X160250000Y-112849710D03*
%TD*%
%TO.C,H1*%
X140481490Y-247646666D03*
%TD*%
%TO.C,H1*%
X121942977Y-165500000D03*
%TD*%
%TO.C,H1*%
X160765933Y-242211466D03*
%TD*%
%TO.C,H1*%
X89770384Y-261234666D03*
%TD*%
%TO.C,H1*%
X134000000Y-67383377D03*
%TD*%
%TO.C,H1*%
X250364266Y-319660731D03*
%TD*%
%TO.C,H1*%
X155703535Y-294296465D03*
%TD*%
D17*
%TO.C,H10*%
X176502577Y-197000000D03*
%TD*%
D16*
%TO.C,H1*%
X328057023Y-165500000D03*
%TD*%
%TO.C,H1*%
X350087395Y-258517066D03*
%TD*%
%TO.C,H1*%
X279447222Y-170552778D03*
%TD*%
%TO.C,H1*%
X210506133Y-170908154D03*
%TD*%
%TO.C,H1*%
X305500000Y-364430090D03*
%TD*%
%TO.C,H1*%
X59343721Y-269387466D03*
%TD*%
%TO.C,H1*%
X279250000Y-131036244D03*
%TD*%
%TO.C,H1*%
X316000000Y-67383377D03*
%TD*%
%TO.C,H1*%
X177894934Y-400798500D03*
%TD*%
%TO.C,H1*%
X225000000Y-407000000D03*
%TD*%
%TO.C,H1*%
X269387466Y-390656279D03*
%TD*%
%TO.C,H1*%
X250364266Y-130339269D03*
%TD*%
%TO.C,H1*%
X309518510Y-247646666D03*
%TD*%
%TO.C,H1*%
X225000000Y-396500000D03*
%TD*%
%TO.C,H1*%
X323994949Y-126005051D03*
%TD*%
%TO.C,H1*%
X390656279Y-180612534D03*
%TD*%
%TO.C,H1*%
X186047734Y-370371837D03*
%TD*%
%TO.C,H1*%
X286871843Y-163128157D03*
%TD*%
%TO.C,H1*%
X148278914Y-301721086D03*
%TD*%
%TO.C,H1*%
X163128157Y-286871843D03*
%TD*%
%TO.C,H1*%
X177977399Y-272022601D03*
%TD*%
%TO.C,H1*%
X121942977Y-284500000D03*
%TD*%
%TO.C,H1*%
X103731187Y-346268813D03*
%TD*%
D17*
%TO.C,H3*%
X197000000Y-176502577D03*
%TD*%
D16*
%TO.C,H1*%
X59343721Y-180612534D03*
%TD*%
D17*
%TO.C,H7*%
X253000000Y-273497423D03*
%TD*%
D16*
%TO.C,H1*%
X274000000Y-140129510D03*
%TD*%
%TO.C,H1*%
X112849710Y-289750000D03*
%TD*%
%TO.C,H1*%
X85569910Y-144500000D03*
%TD*%
%TO.C,H1*%
X339945173Y-255799466D03*
%TD*%
%TO.C,H1*%
X110054827Y-255799466D03*
%TD*%
%TO.C,H1*%
X149750000Y-94663177D03*
%TD*%
%TO.C,H1*%
X99912605Y-258517066D03*
%TD*%
%TO.C,H1*%
X165500000Y-328057023D03*
%TD*%
%TO.C,H1*%
X338844192Y-111155808D03*
%TD*%
%TO.C,H1*%
X263500000Y-158316044D03*
%TD*%
%TO.C,H1*%
X140854293Y-140854293D03*
%TD*%
%TO.C,H1*%
X318963756Y-170750000D03*
%TD*%
%TO.C,H1*%
X247646666Y-140481490D03*
%TD*%
%TO.C,H1*%
X131036244Y-279250000D03*
%TD*%
%TO.C,H1*%
X176000000Y-140129510D03*
%TD*%
%TO.C,H1*%
X150623711Y-244929066D03*
%TD*%
%TO.C,H1*%
X272105066Y-49201500D03*
%TD*%
%TO.C,H1*%
X360229616Y-188765334D03*
%TD*%
%TO.C,H1*%
X196918134Y-329802952D03*
%TD*%
%TO.C,H1*%
X155000000Y-103756443D03*
%TD*%
%TO.C,H1*%
X289750000Y-112849710D03*
%TD*%
%TO.C,H1*%
X300250000Y-355336823D03*
%TD*%
%TO.C,H1*%
X76476643Y-139250000D03*
%TD*%
%TO.C,H1*%
X261234666Y-360229616D03*
%TD*%
%TO.C,H1*%
X150623711Y-205070934D03*
%TD*%
%TO.C,H1*%
X103731187Y-103731187D03*
%TD*%
%TO.C,H1*%
X130339269Y-199635734D03*
%TD*%
%TO.C,H1*%
X272105066Y-400798500D03*
%TD*%
%TO.C,H1*%
X258250000Y-282590689D03*
%TD*%
%TO.C,H1*%
X69485942Y-183330134D03*
%TD*%
%TO.C,H1*%
X181250000Y-300777223D03*
%TD*%
%TO.C,H1*%
X329802952Y-253081866D03*
%TD*%
%TO.C,H1*%
X96306566Y-96306566D03*
%TD*%
%TO.C,H1*%
X202353334Y-309518510D03*
%TD*%
%TO.C,H1*%
X183330134Y-69485942D03*
%TD*%
%TO.C,H1*%
X291683956Y-186500000D03*
%TD*%
%TO.C,H1*%
X225000000Y-365000000D03*
%TD*%
%TO.C,H1*%
X272022601Y-177977399D03*
%TD*%
%TO.C,H1*%
X191750000Y-167409311D03*
%TD*%
%TO.C,H1*%
X94663177Y-149750000D03*
%TD*%
%TO.C,H1*%
X140129510Y-274000000D03*
%TD*%
%TO.C,H1*%
X244929066Y-150623711D03*
%TD*%
%TO.C,H1*%
X67383377Y-316000000D03*
%TD*%
%TO.C,H1*%
X282590689Y-191750000D03*
%TD*%
%TO.C,H1*%
X266669866Y-380514058D03*
%TD*%
%TO.C,H1*%
X202353334Y-140481490D03*
%TD*%
%TO.C,H1*%
X382616623Y-134000000D03*
%TD*%
%TO.C,H1*%
X167409311Y-258250000D03*
%TD*%
%TO.C,H1*%
X370371837Y-263952266D03*
%TD*%
%TO.C,H1*%
X185402020Y-264597980D03*
%TD*%
%TO.C,H1*%
X144500000Y-364430090D03*
%TD*%
%TO.C,H1*%
X96306566Y-353693434D03*
%TD*%
%TO.C,H1*%
X118580429Y-331419571D03*
%TD*%
D18*
%TO.C,R2*%
X231839065Y-296708309D03*
X231839065Y-294708309D03*
%TD*%
D19*
%TO.C,R1*%
X229737066Y-294708309D03*
X229737066Y-296708309D03*
%TD*%
D20*
%TO.C,J11*%
X260000000Y-212000000D03*
D21*
X260000000Y-206920000D03*
%TD*%
D22*
%TO.C,U62*%
X222989606Y-295931922D03*
X226989606Y-295931922D03*
X226989606Y-297731922D03*
X222989606Y-297731922D03*
%TD*%
%LPD*%
M02*
