%TF.GenerationSoftware,KiCad,Pcbnew,7.0.8*%
%TF.CreationDate,2023-11-15T16:38:26+01:00*%
%TF.ProjectId,main_board_new-3.2,6d61696e-5f62-46f6-9172-645f6e65772d,rev?*%
%TF.SameCoordinates,Original*%
%TF.FileFunction,Legend,Top*%
%TF.FilePolarity,Positive*%
%FSLAX46Y46*%
G04 Gerber Fmt 4.6, Leading zero omitted, Abs format (unit mm)*
G04 Created by KiCad (PCBNEW 7.0.8) date 2023-11-15 16:38:26*
%MOMM*%
%LPD*%
G01*
G04 APERTURE LIST*
G04 Aperture macros list*
%AMRoundRect*
0 Rectangle with rounded corners*
0 $1 Rounding radius*
0 $2 $3 $4 $5 $6 $7 $8 $9 X,Y pos of 4 corners*
0 Add a 4 corners polygon primitive as box body*
4,1,4,$2,$3,$4,$5,$6,$7,$8,$9,$2,$3,0*
0 Add four circle primitives for the rounded corners*
1,1,$1+$1,$2,$3*
1,1,$1+$1,$4,$5*
1,1,$1+$1,$6,$7*
1,1,$1+$1,$8,$9*
0 Add four rect primitives between the rounded corners*
20,1,$1+$1,$2,$3,$4,$5,0*
20,1,$1+$1,$4,$5,$6,$7,0*
20,1,$1+$1,$6,$7,$8,$9,0*
20,1,$1+$1,$8,$9,$2,$3,0*%
G04 Aperture macros list end*
%ADD10C,0.500000*%
%ADD11C,0.300000*%
%ADD12C,0.150000*%
%ADD13C,0.100000*%
%ADD14C,0.200000*%
%ADD15C,0.127000*%
%ADD16C,0.120000*%
%ADD17C,0.780999*%
%ADD18RoundRect,0.102000X0.684000X0.684000X-0.684000X0.684000X-0.684000X-0.684000X0.684000X-0.684000X0*%
%ADD19C,1.572000*%
%ADD20C,3.800000*%
%ADD21C,3.200000*%
%ADD22RoundRect,0.102000X0.750000X0.450000X-0.750000X0.450000X-0.750000X-0.450000X0.750000X-0.450000X0*%
%ADD23RoundRect,0.102000X0.450000X0.750000X-0.450000X0.750000X-0.450000X-0.750000X0.450000X-0.750000X0*%
%ADD24RoundRect,0.140000X-0.170000X0.140000X-0.170000X-0.140000X0.170000X-0.140000X0.170000X0.140000X0*%
%ADD25C,2.000000*%
%ADD26R,2.000000X1.500000*%
%ADD27R,2.000000X3.800000*%
%ADD28RoundRect,0.140000X0.170000X-0.140000X0.170000X0.140000X-0.170000X0.140000X-0.170000X-0.140000X0*%
%ADD29RoundRect,0.100000X0.637500X0.100000X-0.637500X0.100000X-0.637500X-0.100000X0.637500X-0.100000X0*%
%ADD30R,0.900000X1.700000*%
%ADD31RoundRect,0.150000X0.150000X-0.512500X0.150000X0.512500X-0.150000X0.512500X-0.150000X-0.512500X0*%
%ADD32R,1.000000X1.500000*%
%ADD33RoundRect,0.250000X0.925000X-0.412500X0.925000X0.412500X-0.925000X0.412500X-0.925000X-0.412500X0*%
%ADD34RoundRect,0.135000X0.185000X-0.135000X0.185000X0.135000X-0.185000X0.135000X-0.185000X-0.135000X0*%
%ADD35RoundRect,0.140000X0.140000X0.170000X-0.140000X0.170000X-0.140000X-0.170000X0.140000X-0.170000X0*%
%ADD36RoundRect,0.225000X0.250000X-0.225000X0.250000X0.225000X-0.250000X0.225000X-0.250000X-0.225000X0*%
%ADD37R,1.700000X1.700000*%
%ADD38O,1.700000X1.700000*%
%ADD39R,0.500000X0.800000*%
%ADD40R,1.000000X0.500000*%
%ADD41R,0.300000X0.800000*%
%ADD42R,1.480000X0.500000*%
%ADD43RoundRect,0.075000X-0.662500X-0.075000X0.662500X-0.075000X0.662500X0.075000X-0.662500X0.075000X0*%
%ADD44RoundRect,0.075000X-0.075000X-0.662500X0.075000X-0.662500X0.075000X0.662500X-0.075000X0.662500X0*%
%ADD45R,2.600000X2.600000*%
%ADD46C,2.600000*%
G04 APERTURE END LIST*
D10*
X287000000Y-225000000D02*
G75*
G03*
X287000000Y-225000000I-62000000J0D01*
G01*
X315000000Y-225000000D02*
G75*
G03*
X315000000Y-225000000I-90000000J0D01*
G01*
X364000000Y-225000000D02*
G75*
G03*
X364000000Y-225000000I-139000000J0D01*
G01*
X399000000Y-225000000D02*
G75*
G03*
X399000000Y-225000000I-174000000J0D01*
G01*
X357000000Y-225000000D02*
G75*
G03*
X357000000Y-225000000I-132000000J0D01*
G01*
X329000000Y-225000000D02*
G75*
G03*
X329000000Y-225000000I-104000000J0D01*
G01*
X294000000Y-225000000D02*
G75*
G03*
X294000000Y-225000000I-69000000J0D01*
G01*
X385000000Y-225000000D02*
G75*
G03*
X385000000Y-225000000I-160000000J0D01*
G01*
X336000000Y-225000000D02*
G75*
G03*
X336000000Y-225000000I-111000000J0D01*
G01*
X308000000Y-225000000D02*
G75*
G03*
X308000000Y-225000000I-83000000J0D01*
G01*
X343000000Y-225000000D02*
G75*
G03*
X343000000Y-225000000I-118000000J0D01*
G01*
X392000000Y-225000000D02*
G75*
G03*
X392000000Y-225000000I-167000000J0D01*
G01*
X322000000Y-225000000D02*
G75*
G03*
X322000000Y-225000000I-97000000J0D01*
G01*
X406000000Y-225000000D02*
G75*
G03*
X406000000Y-225000000I-181000000J0D01*
G01*
X301000000Y-225000000D02*
G75*
G03*
X301000000Y-225000000I-76000000J0D01*
G01*
X378000000Y-225000000D02*
G75*
G03*
X378000000Y-225000000I-153000000J0D01*
G01*
X371000000Y-225000000D02*
G75*
G03*
X371000000Y-225000000I-146000000J0D01*
G01*
X350000000Y-225000000D02*
G75*
G03*
X350000000Y-225000000I-125000000J0D01*
G01*
D11*
X255594510Y-238857828D02*
X255594510Y-240072114D01*
X255594510Y-240072114D02*
X255665939Y-240214971D01*
X255665939Y-240214971D02*
X255737368Y-240286400D01*
X255737368Y-240286400D02*
X255880225Y-240357828D01*
X255880225Y-240357828D02*
X256165939Y-240357828D01*
X256165939Y-240357828D02*
X256308796Y-240286400D01*
X256308796Y-240286400D02*
X256380225Y-240214971D01*
X256380225Y-240214971D02*
X256451653Y-240072114D01*
X256451653Y-240072114D02*
X256451653Y-238857828D01*
X257094511Y-240286400D02*
X257308797Y-240357828D01*
X257308797Y-240357828D02*
X257665939Y-240357828D01*
X257665939Y-240357828D02*
X257808797Y-240286400D01*
X257808797Y-240286400D02*
X257880225Y-240214971D01*
X257880225Y-240214971D02*
X257951654Y-240072114D01*
X257951654Y-240072114D02*
X257951654Y-239929257D01*
X257951654Y-239929257D02*
X257880225Y-239786400D01*
X257880225Y-239786400D02*
X257808797Y-239714971D01*
X257808797Y-239714971D02*
X257665939Y-239643542D01*
X257665939Y-239643542D02*
X257380225Y-239572114D01*
X257380225Y-239572114D02*
X257237368Y-239500685D01*
X257237368Y-239500685D02*
X257165939Y-239429257D01*
X257165939Y-239429257D02*
X257094511Y-239286400D01*
X257094511Y-239286400D02*
X257094511Y-239143542D01*
X257094511Y-239143542D02*
X257165939Y-239000685D01*
X257165939Y-239000685D02*
X257237368Y-238929257D01*
X257237368Y-238929257D02*
X257380225Y-238857828D01*
X257380225Y-238857828D02*
X257737368Y-238857828D01*
X257737368Y-238857828D02*
X257951654Y-238929257D01*
X259094510Y-239572114D02*
X259308796Y-239643542D01*
X259308796Y-239643542D02*
X259380225Y-239714971D01*
X259380225Y-239714971D02*
X259451653Y-239857828D01*
X259451653Y-239857828D02*
X259451653Y-240072114D01*
X259451653Y-240072114D02*
X259380225Y-240214971D01*
X259380225Y-240214971D02*
X259308796Y-240286400D01*
X259308796Y-240286400D02*
X259165939Y-240357828D01*
X259165939Y-240357828D02*
X258594510Y-240357828D01*
X258594510Y-240357828D02*
X258594510Y-238857828D01*
X258594510Y-238857828D02*
X259094510Y-238857828D01*
X259094510Y-238857828D02*
X259237368Y-238929257D01*
X259237368Y-238929257D02*
X259308796Y-239000685D01*
X259308796Y-239000685D02*
X259380225Y-239143542D01*
X259380225Y-239143542D02*
X259380225Y-239286400D01*
X259380225Y-239286400D02*
X259308796Y-239429257D01*
X259308796Y-239429257D02*
X259237368Y-239500685D01*
X259237368Y-239500685D02*
X259094510Y-239572114D01*
X259094510Y-239572114D02*
X258594510Y-239572114D01*
X261237367Y-240357828D02*
X261237367Y-238857828D01*
X261237367Y-238857828D02*
X261594510Y-238857828D01*
X261594510Y-238857828D02*
X261808796Y-238929257D01*
X261808796Y-238929257D02*
X261951653Y-239072114D01*
X261951653Y-239072114D02*
X262023082Y-239214971D01*
X262023082Y-239214971D02*
X262094510Y-239500685D01*
X262094510Y-239500685D02*
X262094510Y-239714971D01*
X262094510Y-239714971D02*
X262023082Y-240000685D01*
X262023082Y-240000685D02*
X261951653Y-240143542D01*
X261951653Y-240143542D02*
X261808796Y-240286400D01*
X261808796Y-240286400D02*
X261594510Y-240357828D01*
X261594510Y-240357828D02*
X261237367Y-240357828D01*
X262737367Y-239786400D02*
X263880225Y-239786400D01*
X263308796Y-240357828D02*
X263308796Y-239214971D01*
X259182828Y-215666203D02*
X259182828Y-216380489D01*
X259182828Y-216380489D02*
X259897114Y-216451917D01*
X259897114Y-216451917D02*
X259825685Y-216380489D01*
X259825685Y-216380489D02*
X259754257Y-216237632D01*
X259754257Y-216237632D02*
X259754257Y-215880489D01*
X259754257Y-215880489D02*
X259825685Y-215737632D01*
X259825685Y-215737632D02*
X259897114Y-215666203D01*
X259897114Y-215666203D02*
X260039971Y-215594774D01*
X260039971Y-215594774D02*
X260397114Y-215594774D01*
X260397114Y-215594774D02*
X260539971Y-215666203D01*
X260539971Y-215666203D02*
X260611400Y-215737632D01*
X260611400Y-215737632D02*
X260682828Y-215880489D01*
X260682828Y-215880489D02*
X260682828Y-216237632D01*
X260682828Y-216237632D02*
X260611400Y-216380489D01*
X260611400Y-216380489D02*
X260539971Y-216451917D01*
X259182828Y-215166203D02*
X260682828Y-214666203D01*
X260682828Y-214666203D02*
X259182828Y-214166203D01*
X256380225Y-244009257D02*
X256237368Y-243937828D01*
X256237368Y-243937828D02*
X256023082Y-243937828D01*
X256023082Y-243937828D02*
X255808796Y-244009257D01*
X255808796Y-244009257D02*
X255665939Y-244152114D01*
X255665939Y-244152114D02*
X255594510Y-244294971D01*
X255594510Y-244294971D02*
X255523082Y-244580685D01*
X255523082Y-244580685D02*
X255523082Y-244794971D01*
X255523082Y-244794971D02*
X255594510Y-245080685D01*
X255594510Y-245080685D02*
X255665939Y-245223542D01*
X255665939Y-245223542D02*
X255808796Y-245366400D01*
X255808796Y-245366400D02*
X256023082Y-245437828D01*
X256023082Y-245437828D02*
X256165939Y-245437828D01*
X256165939Y-245437828D02*
X256380225Y-245366400D01*
X256380225Y-245366400D02*
X256451653Y-245294971D01*
X256451653Y-245294971D02*
X256451653Y-244794971D01*
X256451653Y-244794971D02*
X256165939Y-244794971D01*
X257094510Y-245437828D02*
X257094510Y-243937828D01*
X257094510Y-243937828D02*
X257951653Y-245437828D01*
X257951653Y-245437828D02*
X257951653Y-243937828D01*
X258665939Y-245437828D02*
X258665939Y-243937828D01*
X258665939Y-243937828D02*
X259023082Y-243937828D01*
X259023082Y-243937828D02*
X259237368Y-244009257D01*
X259237368Y-244009257D02*
X259380225Y-244152114D01*
X259380225Y-244152114D02*
X259451654Y-244294971D01*
X259451654Y-244294971D02*
X259523082Y-244580685D01*
X259523082Y-244580685D02*
X259523082Y-244794971D01*
X259523082Y-244794971D02*
X259451654Y-245080685D01*
X259451654Y-245080685D02*
X259380225Y-245223542D01*
X259380225Y-245223542D02*
X259237368Y-245366400D01*
X259237368Y-245366400D02*
X259023082Y-245437828D01*
X259023082Y-245437828D02*
X258665939Y-245437828D01*
X255594510Y-241651828D02*
X255594510Y-242866114D01*
X255594510Y-242866114D02*
X255665939Y-243008971D01*
X255665939Y-243008971D02*
X255737368Y-243080400D01*
X255737368Y-243080400D02*
X255880225Y-243151828D01*
X255880225Y-243151828D02*
X256165939Y-243151828D01*
X256165939Y-243151828D02*
X256308796Y-243080400D01*
X256308796Y-243080400D02*
X256380225Y-243008971D01*
X256380225Y-243008971D02*
X256451653Y-242866114D01*
X256451653Y-242866114D02*
X256451653Y-241651828D01*
X257094511Y-243080400D02*
X257308797Y-243151828D01*
X257308797Y-243151828D02*
X257665939Y-243151828D01*
X257665939Y-243151828D02*
X257808797Y-243080400D01*
X257808797Y-243080400D02*
X257880225Y-243008971D01*
X257880225Y-243008971D02*
X257951654Y-242866114D01*
X257951654Y-242866114D02*
X257951654Y-242723257D01*
X257951654Y-242723257D02*
X257880225Y-242580400D01*
X257880225Y-242580400D02*
X257808797Y-242508971D01*
X257808797Y-242508971D02*
X257665939Y-242437542D01*
X257665939Y-242437542D02*
X257380225Y-242366114D01*
X257380225Y-242366114D02*
X257237368Y-242294685D01*
X257237368Y-242294685D02*
X257165939Y-242223257D01*
X257165939Y-242223257D02*
X257094511Y-242080400D01*
X257094511Y-242080400D02*
X257094511Y-241937542D01*
X257094511Y-241937542D02*
X257165939Y-241794685D01*
X257165939Y-241794685D02*
X257237368Y-241723257D01*
X257237368Y-241723257D02*
X257380225Y-241651828D01*
X257380225Y-241651828D02*
X257737368Y-241651828D01*
X257737368Y-241651828D02*
X257951654Y-241723257D01*
X259094510Y-242366114D02*
X259308796Y-242437542D01*
X259308796Y-242437542D02*
X259380225Y-242508971D01*
X259380225Y-242508971D02*
X259451653Y-242651828D01*
X259451653Y-242651828D02*
X259451653Y-242866114D01*
X259451653Y-242866114D02*
X259380225Y-243008971D01*
X259380225Y-243008971D02*
X259308796Y-243080400D01*
X259308796Y-243080400D02*
X259165939Y-243151828D01*
X259165939Y-243151828D02*
X258594510Y-243151828D01*
X258594510Y-243151828D02*
X258594510Y-241651828D01*
X258594510Y-241651828D02*
X259094510Y-241651828D01*
X259094510Y-241651828D02*
X259237368Y-241723257D01*
X259237368Y-241723257D02*
X259308796Y-241794685D01*
X259308796Y-241794685D02*
X259380225Y-241937542D01*
X259380225Y-241937542D02*
X259380225Y-242080400D01*
X259380225Y-242080400D02*
X259308796Y-242223257D01*
X259308796Y-242223257D02*
X259237368Y-242294685D01*
X259237368Y-242294685D02*
X259094510Y-242366114D01*
X259094510Y-242366114D02*
X258594510Y-242366114D01*
X261237367Y-243151828D02*
X261237367Y-241651828D01*
X261237367Y-241651828D02*
X261594510Y-241651828D01*
X261594510Y-241651828D02*
X261808796Y-241723257D01*
X261808796Y-241723257D02*
X261951653Y-241866114D01*
X261951653Y-241866114D02*
X262023082Y-242008971D01*
X262023082Y-242008971D02*
X262094510Y-242294685D01*
X262094510Y-242294685D02*
X262094510Y-242508971D01*
X262094510Y-242508971D02*
X262023082Y-242794685D01*
X262023082Y-242794685D02*
X261951653Y-242937542D01*
X261951653Y-242937542D02*
X261808796Y-243080400D01*
X261808796Y-243080400D02*
X261594510Y-243151828D01*
X261594510Y-243151828D02*
X261237367Y-243151828D01*
X262737367Y-242580400D02*
X263880225Y-242580400D01*
X259254257Y-203656774D02*
X259182828Y-203799632D01*
X259182828Y-203799632D02*
X259182828Y-204013917D01*
X259182828Y-204013917D02*
X259254257Y-204228203D01*
X259254257Y-204228203D02*
X259397114Y-204371060D01*
X259397114Y-204371060D02*
X259539971Y-204442489D01*
X259539971Y-204442489D02*
X259825685Y-204513917D01*
X259825685Y-204513917D02*
X260039971Y-204513917D01*
X260039971Y-204513917D02*
X260325685Y-204442489D01*
X260325685Y-204442489D02*
X260468542Y-204371060D01*
X260468542Y-204371060D02*
X260611400Y-204228203D01*
X260611400Y-204228203D02*
X260682828Y-204013917D01*
X260682828Y-204013917D02*
X260682828Y-203871060D01*
X260682828Y-203871060D02*
X260611400Y-203656774D01*
X260611400Y-203656774D02*
X260539971Y-203585346D01*
X260539971Y-203585346D02*
X260039971Y-203585346D01*
X260039971Y-203585346D02*
X260039971Y-203871060D01*
X260682828Y-202942489D02*
X259182828Y-202942489D01*
X259182828Y-202942489D02*
X260682828Y-202085346D01*
X260682828Y-202085346D02*
X259182828Y-202085346D01*
X260682828Y-201371060D02*
X259182828Y-201371060D01*
X259182828Y-201371060D02*
X259182828Y-201013917D01*
X259182828Y-201013917D02*
X259254257Y-200799631D01*
X259254257Y-200799631D02*
X259397114Y-200656774D01*
X259397114Y-200656774D02*
X259539971Y-200585345D01*
X259539971Y-200585345D02*
X259825685Y-200513917D01*
X259825685Y-200513917D02*
X260039971Y-200513917D01*
X260039971Y-200513917D02*
X260325685Y-200585345D01*
X260325685Y-200585345D02*
X260468542Y-200656774D01*
X260468542Y-200656774D02*
X260611400Y-200799631D01*
X260611400Y-200799631D02*
X260682828Y-201013917D01*
X260682828Y-201013917D02*
X260682828Y-201371060D01*
X255380225Y-236317828D02*
X255880225Y-237817828D01*
X255880225Y-237817828D02*
X256380225Y-236317828D01*
X256523082Y-237960685D02*
X257665939Y-237960685D01*
X258023081Y-236317828D02*
X258023081Y-237532114D01*
X258023081Y-237532114D02*
X258094510Y-237674971D01*
X258094510Y-237674971D02*
X258165939Y-237746400D01*
X258165939Y-237746400D02*
X258308796Y-237817828D01*
X258308796Y-237817828D02*
X258594510Y-237817828D01*
X258594510Y-237817828D02*
X258737367Y-237746400D01*
X258737367Y-237746400D02*
X258808796Y-237674971D01*
X258808796Y-237674971D02*
X258880224Y-237532114D01*
X258880224Y-237532114D02*
X258880224Y-236317828D01*
X259523082Y-237746400D02*
X259737368Y-237817828D01*
X259737368Y-237817828D02*
X260094510Y-237817828D01*
X260094510Y-237817828D02*
X260237368Y-237746400D01*
X260237368Y-237746400D02*
X260308796Y-237674971D01*
X260308796Y-237674971D02*
X260380225Y-237532114D01*
X260380225Y-237532114D02*
X260380225Y-237389257D01*
X260380225Y-237389257D02*
X260308796Y-237246400D01*
X260308796Y-237246400D02*
X260237368Y-237174971D01*
X260237368Y-237174971D02*
X260094510Y-237103542D01*
X260094510Y-237103542D02*
X259808796Y-237032114D01*
X259808796Y-237032114D02*
X259665939Y-236960685D01*
X259665939Y-236960685D02*
X259594510Y-236889257D01*
X259594510Y-236889257D02*
X259523082Y-236746400D01*
X259523082Y-236746400D02*
X259523082Y-236603542D01*
X259523082Y-236603542D02*
X259594510Y-236460685D01*
X259594510Y-236460685D02*
X259665939Y-236389257D01*
X259665939Y-236389257D02*
X259808796Y-236317828D01*
X259808796Y-236317828D02*
X260165939Y-236317828D01*
X260165939Y-236317828D02*
X260380225Y-236389257D01*
X261523081Y-237032114D02*
X261737367Y-237103542D01*
X261737367Y-237103542D02*
X261808796Y-237174971D01*
X261808796Y-237174971D02*
X261880224Y-237317828D01*
X261880224Y-237317828D02*
X261880224Y-237532114D01*
X261880224Y-237532114D02*
X261808796Y-237674971D01*
X261808796Y-237674971D02*
X261737367Y-237746400D01*
X261737367Y-237746400D02*
X261594510Y-237817828D01*
X261594510Y-237817828D02*
X261023081Y-237817828D01*
X261023081Y-237817828D02*
X261023081Y-236317828D01*
X261023081Y-236317828D02*
X261523081Y-236317828D01*
X261523081Y-236317828D02*
X261665939Y-236389257D01*
X261665939Y-236389257D02*
X261737367Y-236460685D01*
X261737367Y-236460685D02*
X261808796Y-236603542D01*
X261808796Y-236603542D02*
X261808796Y-236746400D01*
X261808796Y-236746400D02*
X261737367Y-236889257D01*
X261737367Y-236889257D02*
X261665939Y-236960685D01*
X261665939Y-236960685D02*
X261523081Y-237032114D01*
X261523081Y-237032114D02*
X261023081Y-237032114D01*
X240889653Y-260233828D02*
X240389653Y-259519542D01*
X240032510Y-260233828D02*
X240032510Y-258733828D01*
X240032510Y-258733828D02*
X240603939Y-258733828D01*
X240603939Y-258733828D02*
X240746796Y-258805257D01*
X240746796Y-258805257D02*
X240818225Y-258876685D01*
X240818225Y-258876685D02*
X240889653Y-259019542D01*
X240889653Y-259019542D02*
X240889653Y-259233828D01*
X240889653Y-259233828D02*
X240818225Y-259376685D01*
X240818225Y-259376685D02*
X240746796Y-259448114D01*
X240746796Y-259448114D02*
X240603939Y-259519542D01*
X240603939Y-259519542D02*
X240032510Y-259519542D01*
X241532510Y-259448114D02*
X242032510Y-259448114D01*
X242246796Y-260233828D02*
X241532510Y-260233828D01*
X241532510Y-260233828D02*
X241532510Y-258733828D01*
X241532510Y-258733828D02*
X242246796Y-258733828D01*
X242818225Y-260162400D02*
X243032511Y-260233828D01*
X243032511Y-260233828D02*
X243389653Y-260233828D01*
X243389653Y-260233828D02*
X243532511Y-260162400D01*
X243532511Y-260162400D02*
X243603939Y-260090971D01*
X243603939Y-260090971D02*
X243675368Y-259948114D01*
X243675368Y-259948114D02*
X243675368Y-259805257D01*
X243675368Y-259805257D02*
X243603939Y-259662400D01*
X243603939Y-259662400D02*
X243532511Y-259590971D01*
X243532511Y-259590971D02*
X243389653Y-259519542D01*
X243389653Y-259519542D02*
X243103939Y-259448114D01*
X243103939Y-259448114D02*
X242961082Y-259376685D01*
X242961082Y-259376685D02*
X242889653Y-259305257D01*
X242889653Y-259305257D02*
X242818225Y-259162400D01*
X242818225Y-259162400D02*
X242818225Y-259019542D01*
X242818225Y-259019542D02*
X242889653Y-258876685D01*
X242889653Y-258876685D02*
X242961082Y-258805257D01*
X242961082Y-258805257D02*
X243103939Y-258733828D01*
X243103939Y-258733828D02*
X243461082Y-258733828D01*
X243461082Y-258733828D02*
X243675368Y-258805257D01*
X244318224Y-259448114D02*
X244818224Y-259448114D01*
X245032510Y-260233828D02*
X244318224Y-260233828D01*
X244318224Y-260233828D02*
X244318224Y-258733828D01*
X244318224Y-258733828D02*
X245032510Y-258733828D01*
X245461082Y-258733828D02*
X246318225Y-258733828D01*
X245889653Y-260233828D02*
X245889653Y-258733828D01*
X202186510Y-260233828D02*
X202186510Y-258733828D01*
X202186510Y-258733828D02*
X202757939Y-258733828D01*
X202757939Y-258733828D02*
X202900796Y-258805257D01*
X202900796Y-258805257D02*
X202972225Y-258876685D01*
X202972225Y-258876685D02*
X203043653Y-259019542D01*
X203043653Y-259019542D02*
X203043653Y-259233828D01*
X203043653Y-259233828D02*
X202972225Y-259376685D01*
X202972225Y-259376685D02*
X202900796Y-259448114D01*
X202900796Y-259448114D02*
X202757939Y-259519542D01*
X202757939Y-259519542D02*
X202186510Y-259519542D01*
X204543653Y-260233828D02*
X204043653Y-259519542D01*
X203686510Y-260233828D02*
X203686510Y-258733828D01*
X203686510Y-258733828D02*
X204257939Y-258733828D01*
X204257939Y-258733828D02*
X204400796Y-258805257D01*
X204400796Y-258805257D02*
X204472225Y-258876685D01*
X204472225Y-258876685D02*
X204543653Y-259019542D01*
X204543653Y-259019542D02*
X204543653Y-259233828D01*
X204543653Y-259233828D02*
X204472225Y-259376685D01*
X204472225Y-259376685D02*
X204400796Y-259448114D01*
X204400796Y-259448114D02*
X204257939Y-259519542D01*
X204257939Y-259519542D02*
X203686510Y-259519542D01*
X205972225Y-258805257D02*
X205829368Y-258733828D01*
X205829368Y-258733828D02*
X205615082Y-258733828D01*
X205615082Y-258733828D02*
X205400796Y-258805257D01*
X205400796Y-258805257D02*
X205257939Y-258948114D01*
X205257939Y-258948114D02*
X205186510Y-259090971D01*
X205186510Y-259090971D02*
X205115082Y-259376685D01*
X205115082Y-259376685D02*
X205115082Y-259590971D01*
X205115082Y-259590971D02*
X205186510Y-259876685D01*
X205186510Y-259876685D02*
X205257939Y-260019542D01*
X205257939Y-260019542D02*
X205400796Y-260162400D01*
X205400796Y-260162400D02*
X205615082Y-260233828D01*
X205615082Y-260233828D02*
X205757939Y-260233828D01*
X205757939Y-260233828D02*
X205972225Y-260162400D01*
X205972225Y-260162400D02*
X206043653Y-260090971D01*
X206043653Y-260090971D02*
X206043653Y-259590971D01*
X206043653Y-259590971D02*
X205757939Y-259590971D01*
X206329368Y-260376685D02*
X207472225Y-260376685D01*
X207829367Y-259448114D02*
X208329367Y-259448114D01*
X208543653Y-260233828D02*
X207829367Y-260233828D01*
X207829367Y-260233828D02*
X207829367Y-258733828D01*
X207829367Y-258733828D02*
X208543653Y-258733828D01*
X209186510Y-260233828D02*
X209186510Y-258733828D01*
X209186510Y-258733828D02*
X210043653Y-260233828D01*
X210043653Y-260233828D02*
X210043653Y-258733828D01*
D12*
X243778333Y-231033866D02*
X243778333Y-232033866D01*
X243778333Y-232033866D02*
X243711666Y-232233866D01*
X243711666Y-232233866D02*
X243578333Y-232367200D01*
X243578333Y-232367200D02*
X243378333Y-232433866D01*
X243378333Y-232433866D02*
X243245000Y-232433866D01*
X244311667Y-231033866D02*
X245245000Y-231033866D01*
X245245000Y-231033866D02*
X244645000Y-232433866D01*
X267602525Y-265495439D02*
X267602525Y-264495439D01*
X267602525Y-264971629D02*
X268173953Y-264971629D01*
X268173953Y-265495439D02*
X268173953Y-264495439D01*
X269078715Y-264495439D02*
X268888239Y-264495439D01*
X268888239Y-264495439D02*
X268793001Y-264543058D01*
X268793001Y-264543058D02*
X268745382Y-264590677D01*
X268745382Y-264590677D02*
X268650144Y-264733534D01*
X268650144Y-264733534D02*
X268602525Y-264924010D01*
X268602525Y-264924010D02*
X268602525Y-265304962D01*
X268602525Y-265304962D02*
X268650144Y-265400200D01*
X268650144Y-265400200D02*
X268697763Y-265447820D01*
X268697763Y-265447820D02*
X268793001Y-265495439D01*
X268793001Y-265495439D02*
X268983477Y-265495439D01*
X268983477Y-265495439D02*
X269078715Y-265447820D01*
X269078715Y-265447820D02*
X269126334Y-265400200D01*
X269126334Y-265400200D02*
X269173953Y-265304962D01*
X269173953Y-265304962D02*
X269173953Y-265066867D01*
X269173953Y-265066867D02*
X269126334Y-264971629D01*
X269126334Y-264971629D02*
X269078715Y-264924010D01*
X269078715Y-264924010D02*
X268983477Y-264876391D01*
X268983477Y-264876391D02*
X268793001Y-264876391D01*
X268793001Y-264876391D02*
X268697763Y-264924010D01*
X268697763Y-264924010D02*
X268650144Y-264971629D01*
X268650144Y-264971629D02*
X268602525Y-265066867D01*
X269793001Y-264495439D02*
X269888239Y-264495439D01*
X269888239Y-264495439D02*
X269983477Y-264543058D01*
X269983477Y-264543058D02*
X270031096Y-264590677D01*
X270031096Y-264590677D02*
X270078715Y-264685915D01*
X270078715Y-264685915D02*
X270126334Y-264876391D01*
X270126334Y-264876391D02*
X270126334Y-265114486D01*
X270126334Y-265114486D02*
X270078715Y-265304962D01*
X270078715Y-265304962D02*
X270031096Y-265400200D01*
X270031096Y-265400200D02*
X269983477Y-265447820D01*
X269983477Y-265447820D02*
X269888239Y-265495439D01*
X269888239Y-265495439D02*
X269793001Y-265495439D01*
X269793001Y-265495439D02*
X269697763Y-265447820D01*
X269697763Y-265447820D02*
X269650144Y-265400200D01*
X269650144Y-265400200D02*
X269602525Y-265304962D01*
X269602525Y-265304962D02*
X269554906Y-265114486D01*
X269554906Y-265114486D02*
X269554906Y-264876391D01*
X269554906Y-264876391D02*
X269602525Y-264685915D01*
X269602525Y-264685915D02*
X269650144Y-264590677D01*
X269650144Y-264590677D02*
X269697763Y-264543058D01*
X269697763Y-264543058D02*
X269793001Y-264495439D01*
X232651905Y-237154819D02*
X232651905Y-237964342D01*
X232651905Y-237964342D02*
X232699524Y-238059580D01*
X232699524Y-238059580D02*
X232747143Y-238107200D01*
X232747143Y-238107200D02*
X232842381Y-238154819D01*
X232842381Y-238154819D02*
X233032857Y-238154819D01*
X233032857Y-238154819D02*
X233128095Y-238107200D01*
X233128095Y-238107200D02*
X233175714Y-238059580D01*
X233175714Y-238059580D02*
X233223333Y-237964342D01*
X233223333Y-237964342D02*
X233223333Y-237154819D01*
X233604286Y-237154819D02*
X234223333Y-237154819D01*
X234223333Y-237154819D02*
X233890000Y-237535771D01*
X233890000Y-237535771D02*
X234032857Y-237535771D01*
X234032857Y-237535771D02*
X234128095Y-237583390D01*
X234128095Y-237583390D02*
X234175714Y-237631009D01*
X234175714Y-237631009D02*
X234223333Y-237726247D01*
X234223333Y-237726247D02*
X234223333Y-237964342D01*
X234223333Y-237964342D02*
X234175714Y-238059580D01*
X234175714Y-238059580D02*
X234128095Y-238107200D01*
X234128095Y-238107200D02*
X234032857Y-238154819D01*
X234032857Y-238154819D02*
X233747143Y-238154819D01*
X233747143Y-238154819D02*
X233651905Y-238107200D01*
X233651905Y-238107200D02*
X233604286Y-238059580D01*
X235080476Y-237488152D02*
X235080476Y-238154819D01*
X234842381Y-237107200D02*
X234604286Y-237821485D01*
X234604286Y-237821485D02*
X235223333Y-237821485D01*
X239092580Y-255778766D02*
X239140200Y-255826385D01*
X239140200Y-255826385D02*
X239187819Y-255969242D01*
X239187819Y-255969242D02*
X239187819Y-256064480D01*
X239187819Y-256064480D02*
X239140200Y-256207337D01*
X239140200Y-256207337D02*
X239044961Y-256302575D01*
X239044961Y-256302575D02*
X238949723Y-256350194D01*
X238949723Y-256350194D02*
X238759247Y-256397813D01*
X238759247Y-256397813D02*
X238616390Y-256397813D01*
X238616390Y-256397813D02*
X238425914Y-256350194D01*
X238425914Y-256350194D02*
X238330676Y-256302575D01*
X238330676Y-256302575D02*
X238235438Y-256207337D01*
X238235438Y-256207337D02*
X238187819Y-256064480D01*
X238187819Y-256064480D02*
X238187819Y-255969242D01*
X238187819Y-255969242D02*
X238235438Y-255826385D01*
X238235438Y-255826385D02*
X238283057Y-255778766D01*
X239187819Y-254826385D02*
X239187819Y-255397813D01*
X239187819Y-255112099D02*
X238187819Y-255112099D01*
X238187819Y-255112099D02*
X238330676Y-255207337D01*
X238330676Y-255207337D02*
X238425914Y-255302575D01*
X238425914Y-255302575D02*
X238473533Y-255397813D01*
X267602525Y-177814199D02*
X267602525Y-176814199D01*
X267602525Y-177290389D02*
X268173953Y-177290389D01*
X268173953Y-177814199D02*
X268173953Y-176814199D01*
X269078715Y-176814199D02*
X268888239Y-176814199D01*
X268888239Y-176814199D02*
X268793001Y-176861818D01*
X268793001Y-176861818D02*
X268745382Y-176909437D01*
X268745382Y-176909437D02*
X268650144Y-177052294D01*
X268650144Y-177052294D02*
X268602525Y-177242770D01*
X268602525Y-177242770D02*
X268602525Y-177623722D01*
X268602525Y-177623722D02*
X268650144Y-177718960D01*
X268650144Y-177718960D02*
X268697763Y-177766580D01*
X268697763Y-177766580D02*
X268793001Y-177814199D01*
X268793001Y-177814199D02*
X268983477Y-177814199D01*
X268983477Y-177814199D02*
X269078715Y-177766580D01*
X269078715Y-177766580D02*
X269126334Y-177718960D01*
X269126334Y-177718960D02*
X269173953Y-177623722D01*
X269173953Y-177623722D02*
X269173953Y-177385627D01*
X269173953Y-177385627D02*
X269126334Y-177290389D01*
X269126334Y-177290389D02*
X269078715Y-177242770D01*
X269078715Y-177242770D02*
X268983477Y-177195151D01*
X268983477Y-177195151D02*
X268793001Y-177195151D01*
X268793001Y-177195151D02*
X268697763Y-177242770D01*
X268697763Y-177242770D02*
X268650144Y-177290389D01*
X268650144Y-177290389D02*
X268602525Y-177385627D01*
X269793001Y-176814199D02*
X269888239Y-176814199D01*
X269888239Y-176814199D02*
X269983477Y-176861818D01*
X269983477Y-176861818D02*
X270031096Y-176909437D01*
X270031096Y-176909437D02*
X270078715Y-177004675D01*
X270078715Y-177004675D02*
X270126334Y-177195151D01*
X270126334Y-177195151D02*
X270126334Y-177433246D01*
X270126334Y-177433246D02*
X270078715Y-177623722D01*
X270078715Y-177623722D02*
X270031096Y-177718960D01*
X270031096Y-177718960D02*
X269983477Y-177766580D01*
X269983477Y-177766580D02*
X269888239Y-177814199D01*
X269888239Y-177814199D02*
X269793001Y-177814199D01*
X269793001Y-177814199D02*
X269697763Y-177766580D01*
X269697763Y-177766580D02*
X269650144Y-177718960D01*
X269650144Y-177718960D02*
X269602525Y-177623722D01*
X269602525Y-177623722D02*
X269554906Y-177433246D01*
X269554906Y-177433246D02*
X269554906Y-177195151D01*
X269554906Y-177195151D02*
X269602525Y-177004675D01*
X269602525Y-177004675D02*
X269650144Y-176909437D01*
X269650144Y-176909437D02*
X269697763Y-176861818D01*
X269697763Y-176861818D02*
X269793001Y-176814199D01*
X179921285Y-265495439D02*
X179921285Y-264495439D01*
X179921285Y-264971629D02*
X180492713Y-264971629D01*
X180492713Y-265495439D02*
X180492713Y-264495439D01*
X181397475Y-264495439D02*
X181206999Y-264495439D01*
X181206999Y-264495439D02*
X181111761Y-264543058D01*
X181111761Y-264543058D02*
X181064142Y-264590677D01*
X181064142Y-264590677D02*
X180968904Y-264733534D01*
X180968904Y-264733534D02*
X180921285Y-264924010D01*
X180921285Y-264924010D02*
X180921285Y-265304962D01*
X180921285Y-265304962D02*
X180968904Y-265400200D01*
X180968904Y-265400200D02*
X181016523Y-265447820D01*
X181016523Y-265447820D02*
X181111761Y-265495439D01*
X181111761Y-265495439D02*
X181302237Y-265495439D01*
X181302237Y-265495439D02*
X181397475Y-265447820D01*
X181397475Y-265447820D02*
X181445094Y-265400200D01*
X181445094Y-265400200D02*
X181492713Y-265304962D01*
X181492713Y-265304962D02*
X181492713Y-265066867D01*
X181492713Y-265066867D02*
X181445094Y-264971629D01*
X181445094Y-264971629D02*
X181397475Y-264924010D01*
X181397475Y-264924010D02*
X181302237Y-264876391D01*
X181302237Y-264876391D02*
X181111761Y-264876391D01*
X181111761Y-264876391D02*
X181016523Y-264924010D01*
X181016523Y-264924010D02*
X180968904Y-264971629D01*
X180968904Y-264971629D02*
X180921285Y-265066867D01*
X182111761Y-264495439D02*
X182206999Y-264495439D01*
X182206999Y-264495439D02*
X182302237Y-264543058D01*
X182302237Y-264543058D02*
X182349856Y-264590677D01*
X182349856Y-264590677D02*
X182397475Y-264685915D01*
X182397475Y-264685915D02*
X182445094Y-264876391D01*
X182445094Y-264876391D02*
X182445094Y-265114486D01*
X182445094Y-265114486D02*
X182397475Y-265304962D01*
X182397475Y-265304962D02*
X182349856Y-265400200D01*
X182349856Y-265400200D02*
X182302237Y-265447820D01*
X182302237Y-265447820D02*
X182206999Y-265495439D01*
X182206999Y-265495439D02*
X182111761Y-265495439D01*
X182111761Y-265495439D02*
X182016523Y-265447820D01*
X182016523Y-265447820D02*
X181968904Y-265400200D01*
X181968904Y-265400200D02*
X181921285Y-265304962D01*
X181921285Y-265304962D02*
X181873666Y-265114486D01*
X181873666Y-265114486D02*
X181873666Y-264876391D01*
X181873666Y-264876391D02*
X181921285Y-264685915D01*
X181921285Y-264685915D02*
X181968904Y-264590677D01*
X181968904Y-264590677D02*
X182016523Y-264543058D01*
X182016523Y-264543058D02*
X182111761Y-264495439D01*
X403798333Y-231033866D02*
X403798333Y-232033866D01*
X403798333Y-232033866D02*
X403731666Y-232233866D01*
X403731666Y-232233866D02*
X403598333Y-232367200D01*
X403598333Y-232367200D02*
X403398333Y-232433866D01*
X403398333Y-232433866D02*
X403265000Y-232433866D01*
X404665000Y-231633866D02*
X404531667Y-231567200D01*
X404531667Y-231567200D02*
X404465000Y-231500533D01*
X404465000Y-231500533D02*
X404398333Y-231367200D01*
X404398333Y-231367200D02*
X404398333Y-231300533D01*
X404398333Y-231300533D02*
X404465000Y-231167200D01*
X404465000Y-231167200D02*
X404531667Y-231100533D01*
X404531667Y-231100533D02*
X404665000Y-231033866D01*
X404665000Y-231033866D02*
X404931667Y-231033866D01*
X404931667Y-231033866D02*
X405065000Y-231100533D01*
X405065000Y-231100533D02*
X405131667Y-231167200D01*
X405131667Y-231167200D02*
X405198333Y-231300533D01*
X405198333Y-231300533D02*
X405198333Y-231367200D01*
X405198333Y-231367200D02*
X405131667Y-231500533D01*
X405131667Y-231500533D02*
X405065000Y-231567200D01*
X405065000Y-231567200D02*
X404931667Y-231633866D01*
X404931667Y-231633866D02*
X404665000Y-231633866D01*
X404665000Y-231633866D02*
X404531667Y-231700533D01*
X404531667Y-231700533D02*
X404465000Y-231767200D01*
X404465000Y-231767200D02*
X404398333Y-231900533D01*
X404398333Y-231900533D02*
X404398333Y-232167200D01*
X404398333Y-232167200D02*
X404465000Y-232300533D01*
X404465000Y-232300533D02*
X404531667Y-232367200D01*
X404531667Y-232367200D02*
X404665000Y-232433866D01*
X404665000Y-232433866D02*
X404931667Y-232433866D01*
X404931667Y-232433866D02*
X405065000Y-232367200D01*
X405065000Y-232367200D02*
X405131667Y-232300533D01*
X405131667Y-232300533D02*
X405198333Y-232167200D01*
X405198333Y-232167200D02*
X405198333Y-231900533D01*
X405198333Y-231900533D02*
X405131667Y-231767200D01*
X405131667Y-231767200D02*
X405065000Y-231700533D01*
X405065000Y-231700533D02*
X404931667Y-231633866D01*
X243141810Y-216809819D02*
X243141810Y-215809819D01*
X244189428Y-216714580D02*
X244141809Y-216762200D01*
X244141809Y-216762200D02*
X243998952Y-216809819D01*
X243998952Y-216809819D02*
X243903714Y-216809819D01*
X243903714Y-216809819D02*
X243760857Y-216762200D01*
X243760857Y-216762200D02*
X243665619Y-216666961D01*
X243665619Y-216666961D02*
X243618000Y-216571723D01*
X243618000Y-216571723D02*
X243570381Y-216381247D01*
X243570381Y-216381247D02*
X243570381Y-216238390D01*
X243570381Y-216238390D02*
X243618000Y-216047914D01*
X243618000Y-216047914D02*
X243665619Y-215952676D01*
X243665619Y-215952676D02*
X243760857Y-215857438D01*
X243760857Y-215857438D02*
X243903714Y-215809819D01*
X243903714Y-215809819D02*
X243998952Y-215809819D01*
X243998952Y-215809819D02*
X244141809Y-215857438D01*
X244141809Y-215857438D02*
X244189428Y-215905057D01*
X244522762Y-215809819D02*
X245141809Y-215809819D01*
X245141809Y-215809819D02*
X244808476Y-216190771D01*
X244808476Y-216190771D02*
X244951333Y-216190771D01*
X244951333Y-216190771D02*
X245046571Y-216238390D01*
X245046571Y-216238390D02*
X245094190Y-216286009D01*
X245094190Y-216286009D02*
X245141809Y-216381247D01*
X245141809Y-216381247D02*
X245141809Y-216619342D01*
X245141809Y-216619342D02*
X245094190Y-216714580D01*
X245094190Y-216714580D02*
X245046571Y-216762200D01*
X245046571Y-216762200D02*
X244951333Y-216809819D01*
X244951333Y-216809819D02*
X244665619Y-216809819D01*
X244665619Y-216809819D02*
X244570381Y-216762200D01*
X244570381Y-216762200D02*
X244522762Y-216714580D01*
X225232580Y-233167666D02*
X225280200Y-233215285D01*
X225280200Y-233215285D02*
X225327819Y-233358142D01*
X225327819Y-233358142D02*
X225327819Y-233453380D01*
X225327819Y-233453380D02*
X225280200Y-233596237D01*
X225280200Y-233596237D02*
X225184961Y-233691475D01*
X225184961Y-233691475D02*
X225089723Y-233739094D01*
X225089723Y-233739094D02*
X224899247Y-233786713D01*
X224899247Y-233786713D02*
X224756390Y-233786713D01*
X224756390Y-233786713D02*
X224565914Y-233739094D01*
X224565914Y-233739094D02*
X224470676Y-233691475D01*
X224470676Y-233691475D02*
X224375438Y-233596237D01*
X224375438Y-233596237D02*
X224327819Y-233453380D01*
X224327819Y-233453380D02*
X224327819Y-233358142D01*
X224327819Y-233358142D02*
X224375438Y-233215285D01*
X224375438Y-233215285D02*
X224423057Y-233167666D01*
X224327819Y-232310523D02*
X224327819Y-232500999D01*
X224327819Y-232500999D02*
X224375438Y-232596237D01*
X224375438Y-232596237D02*
X224423057Y-232643856D01*
X224423057Y-232643856D02*
X224565914Y-232739094D01*
X224565914Y-232739094D02*
X224756390Y-232786713D01*
X224756390Y-232786713D02*
X225137342Y-232786713D01*
X225137342Y-232786713D02*
X225232580Y-232739094D01*
X225232580Y-232739094D02*
X225280200Y-232691475D01*
X225280200Y-232691475D02*
X225327819Y-232596237D01*
X225327819Y-232596237D02*
X225327819Y-232405761D01*
X225327819Y-232405761D02*
X225280200Y-232310523D01*
X225280200Y-232310523D02*
X225232580Y-232262904D01*
X225232580Y-232262904D02*
X225137342Y-232215285D01*
X225137342Y-232215285D02*
X224899247Y-232215285D01*
X224899247Y-232215285D02*
X224804009Y-232262904D01*
X224804009Y-232262904D02*
X224756390Y-232310523D01*
X224756390Y-232310523D02*
X224708771Y-232405761D01*
X224708771Y-232405761D02*
X224708771Y-232596237D01*
X224708771Y-232596237D02*
X224756390Y-232691475D01*
X224756390Y-232691475D02*
X224804009Y-232739094D01*
X224804009Y-232739094D02*
X224899247Y-232786713D01*
X213355810Y-221771819D02*
X213355810Y-220771819D01*
X214403428Y-221676580D02*
X214355809Y-221724200D01*
X214355809Y-221724200D02*
X214212952Y-221771819D01*
X214212952Y-221771819D02*
X214117714Y-221771819D01*
X214117714Y-221771819D02*
X213974857Y-221724200D01*
X213974857Y-221724200D02*
X213879619Y-221628961D01*
X213879619Y-221628961D02*
X213832000Y-221533723D01*
X213832000Y-221533723D02*
X213784381Y-221343247D01*
X213784381Y-221343247D02*
X213784381Y-221200390D01*
X213784381Y-221200390D02*
X213832000Y-221009914D01*
X213832000Y-221009914D02*
X213879619Y-220914676D01*
X213879619Y-220914676D02*
X213974857Y-220819438D01*
X213974857Y-220819438D02*
X214117714Y-220771819D01*
X214117714Y-220771819D02*
X214212952Y-220771819D01*
X214212952Y-220771819D02*
X214355809Y-220819438D01*
X214355809Y-220819438D02*
X214403428Y-220867057D01*
X214784381Y-220867057D02*
X214832000Y-220819438D01*
X214832000Y-220819438D02*
X214927238Y-220771819D01*
X214927238Y-220771819D02*
X215165333Y-220771819D01*
X215165333Y-220771819D02*
X215260571Y-220819438D01*
X215260571Y-220819438D02*
X215308190Y-220867057D01*
X215308190Y-220867057D02*
X215355809Y-220962295D01*
X215355809Y-220962295D02*
X215355809Y-221057533D01*
X215355809Y-221057533D02*
X215308190Y-221200390D01*
X215308190Y-221200390D02*
X214736762Y-221771819D01*
X214736762Y-221771819D02*
X215355809Y-221771819D01*
X241418667Y-252708200D02*
X241561524Y-252755819D01*
X241561524Y-252755819D02*
X241799619Y-252755819D01*
X241799619Y-252755819D02*
X241894857Y-252708200D01*
X241894857Y-252708200D02*
X241942476Y-252660580D01*
X241942476Y-252660580D02*
X241990095Y-252565342D01*
X241990095Y-252565342D02*
X241990095Y-252470104D01*
X241990095Y-252470104D02*
X241942476Y-252374866D01*
X241942476Y-252374866D02*
X241894857Y-252327247D01*
X241894857Y-252327247D02*
X241799619Y-252279628D01*
X241799619Y-252279628D02*
X241609143Y-252232009D01*
X241609143Y-252232009D02*
X241513905Y-252184390D01*
X241513905Y-252184390D02*
X241466286Y-252136771D01*
X241466286Y-252136771D02*
X241418667Y-252041533D01*
X241418667Y-252041533D02*
X241418667Y-251946295D01*
X241418667Y-251946295D02*
X241466286Y-251851057D01*
X241466286Y-251851057D02*
X241513905Y-251803438D01*
X241513905Y-251803438D02*
X241609143Y-251755819D01*
X241609143Y-251755819D02*
X241847238Y-251755819D01*
X241847238Y-251755819D02*
X241990095Y-251803438D01*
X242323429Y-251755819D02*
X242561524Y-252755819D01*
X242561524Y-252755819D02*
X242752000Y-252041533D01*
X242752000Y-252041533D02*
X242942476Y-252755819D01*
X242942476Y-252755819D02*
X243180572Y-251755819D01*
X243513905Y-251851057D02*
X243561524Y-251803438D01*
X243561524Y-251803438D02*
X243656762Y-251755819D01*
X243656762Y-251755819D02*
X243894857Y-251755819D01*
X243894857Y-251755819D02*
X243990095Y-251803438D01*
X243990095Y-251803438D02*
X244037714Y-251851057D01*
X244037714Y-251851057D02*
X244085333Y-251946295D01*
X244085333Y-251946295D02*
X244085333Y-252041533D01*
X244085333Y-252041533D02*
X244037714Y-252184390D01*
X244037714Y-252184390D02*
X243466286Y-252755819D01*
X243466286Y-252755819D02*
X244085333Y-252755819D01*
X232620095Y-227502819D02*
X232620095Y-228312342D01*
X232620095Y-228312342D02*
X232667714Y-228407580D01*
X232667714Y-228407580D02*
X232715333Y-228455200D01*
X232715333Y-228455200D02*
X232810571Y-228502819D01*
X232810571Y-228502819D02*
X233001047Y-228502819D01*
X233001047Y-228502819D02*
X233096285Y-228455200D01*
X233096285Y-228455200D02*
X233143904Y-228407580D01*
X233143904Y-228407580D02*
X233191523Y-228312342D01*
X233191523Y-228312342D02*
X233191523Y-227502819D01*
X234191523Y-228502819D02*
X233620095Y-228502819D01*
X233905809Y-228502819D02*
X233905809Y-227502819D01*
X233905809Y-227502819D02*
X233810571Y-227645676D01*
X233810571Y-227645676D02*
X233715333Y-227740914D01*
X233715333Y-227740914D02*
X233620095Y-227788533D01*
X235375580Y-252730766D02*
X235423200Y-252778385D01*
X235423200Y-252778385D02*
X235470819Y-252921242D01*
X235470819Y-252921242D02*
X235470819Y-253016480D01*
X235470819Y-253016480D02*
X235423200Y-253159337D01*
X235423200Y-253159337D02*
X235327961Y-253254575D01*
X235327961Y-253254575D02*
X235232723Y-253302194D01*
X235232723Y-253302194D02*
X235042247Y-253349813D01*
X235042247Y-253349813D02*
X234899390Y-253349813D01*
X234899390Y-253349813D02*
X234708914Y-253302194D01*
X234708914Y-253302194D02*
X234613676Y-253254575D01*
X234613676Y-253254575D02*
X234518438Y-253159337D01*
X234518438Y-253159337D02*
X234470819Y-253016480D01*
X234470819Y-253016480D02*
X234470819Y-252921242D01*
X234470819Y-252921242D02*
X234518438Y-252778385D01*
X234518438Y-252778385D02*
X234566057Y-252730766D01*
X234566057Y-252349813D02*
X234518438Y-252302194D01*
X234518438Y-252302194D02*
X234470819Y-252206956D01*
X234470819Y-252206956D02*
X234470819Y-251968861D01*
X234470819Y-251968861D02*
X234518438Y-251873623D01*
X234518438Y-251873623D02*
X234566057Y-251826004D01*
X234566057Y-251826004D02*
X234661295Y-251778385D01*
X234661295Y-251778385D02*
X234756533Y-251778385D01*
X234756533Y-251778385D02*
X234899390Y-251826004D01*
X234899390Y-251826004D02*
X235470819Y-252397432D01*
X235470819Y-252397432D02*
X235470819Y-251778385D01*
X254968666Y-215395819D02*
X254968666Y-216110104D01*
X254968666Y-216110104D02*
X254921047Y-216252961D01*
X254921047Y-216252961D02*
X254825809Y-216348200D01*
X254825809Y-216348200D02*
X254682952Y-216395819D01*
X254682952Y-216395819D02*
X254587714Y-216395819D01*
X255444857Y-216395819D02*
X255444857Y-215395819D01*
X255444857Y-215395819D02*
X255825809Y-215395819D01*
X255825809Y-215395819D02*
X255921047Y-215443438D01*
X255921047Y-215443438D02*
X255968666Y-215491057D01*
X255968666Y-215491057D02*
X256016285Y-215586295D01*
X256016285Y-215586295D02*
X256016285Y-215729152D01*
X256016285Y-215729152D02*
X255968666Y-215824390D01*
X255968666Y-215824390D02*
X255921047Y-215872009D01*
X255921047Y-215872009D02*
X255825809Y-215919628D01*
X255825809Y-215919628D02*
X255444857Y-215919628D01*
X256968666Y-216395819D02*
X256397238Y-216395819D01*
X256682952Y-216395819D02*
X256682952Y-215395819D01*
X256682952Y-215395819D02*
X256587714Y-215538676D01*
X256587714Y-215538676D02*
X256492476Y-215633914D01*
X256492476Y-215633914D02*
X256397238Y-215681533D01*
X250001580Y-208687857D02*
X250049200Y-208735476D01*
X250049200Y-208735476D02*
X250096819Y-208878333D01*
X250096819Y-208878333D02*
X250096819Y-208973571D01*
X250096819Y-208973571D02*
X250049200Y-209116428D01*
X250049200Y-209116428D02*
X249953961Y-209211666D01*
X249953961Y-209211666D02*
X249858723Y-209259285D01*
X249858723Y-209259285D02*
X249668247Y-209306904D01*
X249668247Y-209306904D02*
X249525390Y-209306904D01*
X249525390Y-209306904D02*
X249334914Y-209259285D01*
X249334914Y-209259285D02*
X249239676Y-209211666D01*
X249239676Y-209211666D02*
X249144438Y-209116428D01*
X249144438Y-209116428D02*
X249096819Y-208973571D01*
X249096819Y-208973571D02*
X249096819Y-208878333D01*
X249096819Y-208878333D02*
X249144438Y-208735476D01*
X249144438Y-208735476D02*
X249192057Y-208687857D01*
X249096819Y-208354523D02*
X249096819Y-207735476D01*
X249096819Y-207735476D02*
X249477771Y-208068809D01*
X249477771Y-208068809D02*
X249477771Y-207925952D01*
X249477771Y-207925952D02*
X249525390Y-207830714D01*
X249525390Y-207830714D02*
X249573009Y-207783095D01*
X249573009Y-207783095D02*
X249668247Y-207735476D01*
X249668247Y-207735476D02*
X249906342Y-207735476D01*
X249906342Y-207735476D02*
X250001580Y-207783095D01*
X250001580Y-207783095D02*
X250049200Y-207830714D01*
X250049200Y-207830714D02*
X250096819Y-207925952D01*
X250096819Y-207925952D02*
X250096819Y-208211666D01*
X250096819Y-208211666D02*
X250049200Y-208306904D01*
X250049200Y-208306904D02*
X250001580Y-208354523D01*
X249096819Y-207402142D02*
X249096819Y-206735476D01*
X249096819Y-206735476D02*
X250096819Y-207164047D01*
X216163638Y-181946784D02*
X217235067Y-181946784D01*
X217235067Y-181946784D02*
X217449352Y-182018213D01*
X217449352Y-182018213D02*
X217592210Y-182161070D01*
X217592210Y-182161070D02*
X217663638Y-182375356D01*
X217663638Y-182375356D02*
X217663638Y-182518213D01*
X217663638Y-180446784D02*
X217663638Y-181303927D01*
X217663638Y-180875356D02*
X216163638Y-180875356D01*
X216163638Y-180875356D02*
X216377924Y-181018213D01*
X216377924Y-181018213D02*
X216520781Y-181161070D01*
X216520781Y-181161070D02*
X216592210Y-181303927D01*
X216163638Y-179518213D02*
X216163638Y-179375356D01*
X216163638Y-179375356D02*
X216235067Y-179232499D01*
X216235067Y-179232499D02*
X216306495Y-179161071D01*
X216306495Y-179161071D02*
X216449352Y-179089642D01*
X216449352Y-179089642D02*
X216735067Y-179018213D01*
X216735067Y-179018213D02*
X217092210Y-179018213D01*
X217092210Y-179018213D02*
X217377924Y-179089642D01*
X217377924Y-179089642D02*
X217520781Y-179161071D01*
X217520781Y-179161071D02*
X217592210Y-179232499D01*
X217592210Y-179232499D02*
X217663638Y-179375356D01*
X217663638Y-179375356D02*
X217663638Y-179518213D01*
X217663638Y-179518213D02*
X217592210Y-179661071D01*
X217592210Y-179661071D02*
X217520781Y-179732499D01*
X217520781Y-179732499D02*
X217377924Y-179803928D01*
X217377924Y-179803928D02*
X217092210Y-179875356D01*
X217092210Y-179875356D02*
X216735067Y-179875356D01*
X216735067Y-179875356D02*
X216449352Y-179803928D01*
X216449352Y-179803928D02*
X216306495Y-179732499D01*
X216306495Y-179732499D02*
X216235067Y-179661071D01*
X216235067Y-179661071D02*
X216163638Y-179518213D01*
X212249990Y-204912037D02*
X212202371Y-205007275D01*
X212202371Y-205007275D02*
X212154752Y-205054894D01*
X212154752Y-205054894D02*
X212059514Y-205102513D01*
X212059514Y-205102513D02*
X212011895Y-205102513D01*
X212011895Y-205102513D02*
X211916657Y-205054894D01*
X211916657Y-205054894D02*
X211869038Y-205007275D01*
X211869038Y-205007275D02*
X211821419Y-204912037D01*
X211821419Y-204912037D02*
X211821419Y-204721561D01*
X211821419Y-204721561D02*
X211869038Y-204626323D01*
X211869038Y-204626323D02*
X211916657Y-204578704D01*
X211916657Y-204578704D02*
X212011895Y-204531085D01*
X212011895Y-204531085D02*
X212059514Y-204531085D01*
X212059514Y-204531085D02*
X212154752Y-204578704D01*
X212154752Y-204578704D02*
X212202371Y-204626323D01*
X212202371Y-204626323D02*
X212249990Y-204721561D01*
X212249990Y-204721561D02*
X212249990Y-204912037D01*
X212249990Y-204912037D02*
X212297609Y-205007275D01*
X212297609Y-205007275D02*
X212345228Y-205054894D01*
X212345228Y-205054894D02*
X212440466Y-205102513D01*
X212440466Y-205102513D02*
X212630942Y-205102513D01*
X212630942Y-205102513D02*
X212726180Y-205054894D01*
X212726180Y-205054894D02*
X212773800Y-205007275D01*
X212773800Y-205007275D02*
X212821419Y-204912037D01*
X212821419Y-204912037D02*
X212821419Y-204721561D01*
X212821419Y-204721561D02*
X212773800Y-204626323D01*
X212773800Y-204626323D02*
X212726180Y-204578704D01*
X212726180Y-204578704D02*
X212630942Y-204531085D01*
X212630942Y-204531085D02*
X212440466Y-204531085D01*
X212440466Y-204531085D02*
X212345228Y-204578704D01*
X212345228Y-204578704D02*
X212297609Y-204626323D01*
X212297609Y-204626323D02*
X212249990Y-204721561D01*
X213389819Y-181145285D02*
X213389819Y-181716713D01*
X213389819Y-181430999D02*
X212389819Y-181430999D01*
X212389819Y-181430999D02*
X212532676Y-181526237D01*
X212532676Y-181526237D02*
X212627914Y-181621475D01*
X212627914Y-181621475D02*
X212675533Y-181716713D01*
X239023638Y-181232499D02*
X240095067Y-181232499D01*
X240095067Y-181232499D02*
X240309352Y-181303928D01*
X240309352Y-181303928D02*
X240452210Y-181446785D01*
X240452210Y-181446785D02*
X240523638Y-181661071D01*
X240523638Y-181661071D02*
X240523638Y-181803928D01*
X240523638Y-180446785D02*
X240523638Y-180161071D01*
X240523638Y-180161071D02*
X240452210Y-180018214D01*
X240452210Y-180018214D02*
X240380781Y-179946785D01*
X240380781Y-179946785D02*
X240166495Y-179803928D01*
X240166495Y-179803928D02*
X239880781Y-179732499D01*
X239880781Y-179732499D02*
X239309352Y-179732499D01*
X239309352Y-179732499D02*
X239166495Y-179803928D01*
X239166495Y-179803928D02*
X239095067Y-179875357D01*
X239095067Y-179875357D02*
X239023638Y-180018214D01*
X239023638Y-180018214D02*
X239023638Y-180303928D01*
X239023638Y-180303928D02*
X239095067Y-180446785D01*
X239095067Y-180446785D02*
X239166495Y-180518214D01*
X239166495Y-180518214D02*
X239309352Y-180589642D01*
X239309352Y-180589642D02*
X239666495Y-180589642D01*
X239666495Y-180589642D02*
X239809352Y-180518214D01*
X239809352Y-180518214D02*
X239880781Y-180446785D01*
X239880781Y-180446785D02*
X239952210Y-180303928D01*
X239952210Y-180303928D02*
X239952210Y-180018214D01*
X239952210Y-180018214D02*
X239880781Y-179875357D01*
X239880781Y-179875357D02*
X239809352Y-179803928D01*
X239809352Y-179803928D02*
X239666495Y-179732499D01*
X236249819Y-181145285D02*
X236249819Y-181716713D01*
X236249819Y-181430999D02*
X235249819Y-181430999D01*
X235249819Y-181430999D02*
X235392676Y-181526237D01*
X235392676Y-181526237D02*
X235487914Y-181621475D01*
X235487914Y-181621475D02*
X235535533Y-181716713D01*
X235160790Y-204912037D02*
X235113171Y-205007275D01*
X235113171Y-205007275D02*
X235065552Y-205054894D01*
X235065552Y-205054894D02*
X234970314Y-205102513D01*
X234970314Y-205102513D02*
X234922695Y-205102513D01*
X234922695Y-205102513D02*
X234827457Y-205054894D01*
X234827457Y-205054894D02*
X234779838Y-205007275D01*
X234779838Y-205007275D02*
X234732219Y-204912037D01*
X234732219Y-204912037D02*
X234732219Y-204721561D01*
X234732219Y-204721561D02*
X234779838Y-204626323D01*
X234779838Y-204626323D02*
X234827457Y-204578704D01*
X234827457Y-204578704D02*
X234922695Y-204531085D01*
X234922695Y-204531085D02*
X234970314Y-204531085D01*
X234970314Y-204531085D02*
X235065552Y-204578704D01*
X235065552Y-204578704D02*
X235113171Y-204626323D01*
X235113171Y-204626323D02*
X235160790Y-204721561D01*
X235160790Y-204721561D02*
X235160790Y-204912037D01*
X235160790Y-204912037D02*
X235208409Y-205007275D01*
X235208409Y-205007275D02*
X235256028Y-205054894D01*
X235256028Y-205054894D02*
X235351266Y-205102513D01*
X235351266Y-205102513D02*
X235541742Y-205102513D01*
X235541742Y-205102513D02*
X235636980Y-205054894D01*
X235636980Y-205054894D02*
X235684600Y-205007275D01*
X235684600Y-205007275D02*
X235732219Y-204912037D01*
X235732219Y-204912037D02*
X235732219Y-204721561D01*
X235732219Y-204721561D02*
X235684600Y-204626323D01*
X235684600Y-204626323D02*
X235636980Y-204578704D01*
X235636980Y-204578704D02*
X235541742Y-204531085D01*
X235541742Y-204531085D02*
X235351266Y-204531085D01*
X235351266Y-204531085D02*
X235256028Y-204578704D01*
X235256028Y-204578704D02*
X235208409Y-204626323D01*
X235208409Y-204626323D02*
X235160790Y-204721561D01*
X238027819Y-251780116D02*
X237551628Y-252113449D01*
X238027819Y-252351544D02*
X237027819Y-252351544D01*
X237027819Y-252351544D02*
X237027819Y-251970592D01*
X237027819Y-251970592D02*
X237075438Y-251875354D01*
X237075438Y-251875354D02*
X237123057Y-251827735D01*
X237123057Y-251827735D02*
X237218295Y-251780116D01*
X237218295Y-251780116D02*
X237361152Y-251780116D01*
X237361152Y-251780116D02*
X237456390Y-251827735D01*
X237456390Y-251827735D02*
X237504009Y-251875354D01*
X237504009Y-251875354D02*
X237551628Y-251970592D01*
X237551628Y-251970592D02*
X237551628Y-252351544D01*
X237027819Y-251446782D02*
X237027819Y-250827735D01*
X237027819Y-250827735D02*
X237408771Y-251161068D01*
X237408771Y-251161068D02*
X237408771Y-251018211D01*
X237408771Y-251018211D02*
X237456390Y-250922973D01*
X237456390Y-250922973D02*
X237504009Y-250875354D01*
X237504009Y-250875354D02*
X237599247Y-250827735D01*
X237599247Y-250827735D02*
X237837342Y-250827735D01*
X237837342Y-250827735D02*
X237932580Y-250875354D01*
X237932580Y-250875354D02*
X237980200Y-250922973D01*
X237980200Y-250922973D02*
X238027819Y-251018211D01*
X238027819Y-251018211D02*
X238027819Y-251303925D01*
X238027819Y-251303925D02*
X237980200Y-251399163D01*
X237980200Y-251399163D02*
X237932580Y-251446782D01*
X238635580Y-239832266D02*
X238683200Y-239879885D01*
X238683200Y-239879885D02*
X238730819Y-240022742D01*
X238730819Y-240022742D02*
X238730819Y-240117980D01*
X238730819Y-240117980D02*
X238683200Y-240260837D01*
X238683200Y-240260837D02*
X238587961Y-240356075D01*
X238587961Y-240356075D02*
X238492723Y-240403694D01*
X238492723Y-240403694D02*
X238302247Y-240451313D01*
X238302247Y-240451313D02*
X238159390Y-240451313D01*
X238159390Y-240451313D02*
X237968914Y-240403694D01*
X237968914Y-240403694D02*
X237873676Y-240356075D01*
X237873676Y-240356075D02*
X237778438Y-240260837D01*
X237778438Y-240260837D02*
X237730819Y-240117980D01*
X237730819Y-240117980D02*
X237730819Y-240022742D01*
X237730819Y-240022742D02*
X237778438Y-239879885D01*
X237778438Y-239879885D02*
X237826057Y-239832266D01*
X238064152Y-238975123D02*
X238730819Y-238975123D01*
X237683200Y-239213218D02*
X238397485Y-239451313D01*
X238397485Y-239451313D02*
X238397485Y-238832266D01*
X217194342Y-229872380D02*
X217146723Y-229920000D01*
X217146723Y-229920000D02*
X217003866Y-229967619D01*
X217003866Y-229967619D02*
X216908628Y-229967619D01*
X216908628Y-229967619D02*
X216765771Y-229920000D01*
X216765771Y-229920000D02*
X216670533Y-229824761D01*
X216670533Y-229824761D02*
X216622914Y-229729523D01*
X216622914Y-229729523D02*
X216575295Y-229539047D01*
X216575295Y-229539047D02*
X216575295Y-229396190D01*
X216575295Y-229396190D02*
X216622914Y-229205714D01*
X216622914Y-229205714D02*
X216670533Y-229110476D01*
X216670533Y-229110476D02*
X216765771Y-229015238D01*
X216765771Y-229015238D02*
X216908628Y-228967619D01*
X216908628Y-228967619D02*
X217003866Y-228967619D01*
X217003866Y-228967619D02*
X217146723Y-229015238D01*
X217146723Y-229015238D02*
X217194342Y-229062857D01*
X218146723Y-229967619D02*
X217575295Y-229967619D01*
X217861009Y-229967619D02*
X217861009Y-228967619D01*
X217861009Y-228967619D02*
X217765771Y-229110476D01*
X217765771Y-229110476D02*
X217670533Y-229205714D01*
X217670533Y-229205714D02*
X217575295Y-229253333D01*
X218527676Y-229062857D02*
X218575295Y-229015238D01*
X218575295Y-229015238D02*
X218670533Y-228967619D01*
X218670533Y-228967619D02*
X218908628Y-228967619D01*
X218908628Y-228967619D02*
X219003866Y-229015238D01*
X219003866Y-229015238D02*
X219051485Y-229062857D01*
X219051485Y-229062857D02*
X219099104Y-229158095D01*
X219099104Y-229158095D02*
X219099104Y-229253333D01*
X219099104Y-229253333D02*
X219051485Y-229396190D01*
X219051485Y-229396190D02*
X218480057Y-229967619D01*
X218480057Y-229967619D02*
X219099104Y-229967619D01*
X250921580Y-213513857D02*
X250969200Y-213561476D01*
X250969200Y-213561476D02*
X251016819Y-213704333D01*
X251016819Y-213704333D02*
X251016819Y-213799571D01*
X251016819Y-213799571D02*
X250969200Y-213942428D01*
X250969200Y-213942428D02*
X250873961Y-214037666D01*
X250873961Y-214037666D02*
X250778723Y-214085285D01*
X250778723Y-214085285D02*
X250588247Y-214132904D01*
X250588247Y-214132904D02*
X250445390Y-214132904D01*
X250445390Y-214132904D02*
X250254914Y-214085285D01*
X250254914Y-214085285D02*
X250159676Y-214037666D01*
X250159676Y-214037666D02*
X250064438Y-213942428D01*
X250064438Y-213942428D02*
X250016819Y-213799571D01*
X250016819Y-213799571D02*
X250016819Y-213704333D01*
X250016819Y-213704333D02*
X250064438Y-213561476D01*
X250064438Y-213561476D02*
X250112057Y-213513857D01*
X250016819Y-213180523D02*
X250016819Y-212561476D01*
X250016819Y-212561476D02*
X250397771Y-212894809D01*
X250397771Y-212894809D02*
X250397771Y-212751952D01*
X250397771Y-212751952D02*
X250445390Y-212656714D01*
X250445390Y-212656714D02*
X250493009Y-212609095D01*
X250493009Y-212609095D02*
X250588247Y-212561476D01*
X250588247Y-212561476D02*
X250826342Y-212561476D01*
X250826342Y-212561476D02*
X250921580Y-212609095D01*
X250921580Y-212609095D02*
X250969200Y-212656714D01*
X250969200Y-212656714D02*
X251016819Y-212751952D01*
X251016819Y-212751952D02*
X251016819Y-213037666D01*
X251016819Y-213037666D02*
X250969200Y-213132904D01*
X250969200Y-213132904D02*
X250921580Y-213180523D01*
X250445390Y-211990047D02*
X250397771Y-212085285D01*
X250397771Y-212085285D02*
X250350152Y-212132904D01*
X250350152Y-212132904D02*
X250254914Y-212180523D01*
X250254914Y-212180523D02*
X250207295Y-212180523D01*
X250207295Y-212180523D02*
X250112057Y-212132904D01*
X250112057Y-212132904D02*
X250064438Y-212085285D01*
X250064438Y-212085285D02*
X250016819Y-211990047D01*
X250016819Y-211990047D02*
X250016819Y-211799571D01*
X250016819Y-211799571D02*
X250064438Y-211704333D01*
X250064438Y-211704333D02*
X250112057Y-211656714D01*
X250112057Y-211656714D02*
X250207295Y-211609095D01*
X250207295Y-211609095D02*
X250254914Y-211609095D01*
X250254914Y-211609095D02*
X250350152Y-211656714D01*
X250350152Y-211656714D02*
X250397771Y-211704333D01*
X250397771Y-211704333D02*
X250445390Y-211799571D01*
X250445390Y-211799571D02*
X250445390Y-211990047D01*
X250445390Y-211990047D02*
X250493009Y-212085285D01*
X250493009Y-212085285D02*
X250540628Y-212132904D01*
X250540628Y-212132904D02*
X250635866Y-212180523D01*
X250635866Y-212180523D02*
X250826342Y-212180523D01*
X250826342Y-212180523D02*
X250921580Y-212132904D01*
X250921580Y-212132904D02*
X250969200Y-212085285D01*
X250969200Y-212085285D02*
X251016819Y-211990047D01*
X251016819Y-211990047D02*
X251016819Y-211799571D01*
X251016819Y-211799571D02*
X250969200Y-211704333D01*
X250969200Y-211704333D02*
X250921580Y-211656714D01*
X250921580Y-211656714D02*
X250826342Y-211609095D01*
X250826342Y-211609095D02*
X250635866Y-211609095D01*
X250635866Y-211609095D02*
X250540628Y-211656714D01*
X250540628Y-211656714D02*
X250493009Y-211704333D01*
X250493009Y-211704333D02*
X250445390Y-211799571D01*
X238625980Y-242610466D02*
X238673600Y-242658085D01*
X238673600Y-242658085D02*
X238721219Y-242800942D01*
X238721219Y-242800942D02*
X238721219Y-242896180D01*
X238721219Y-242896180D02*
X238673600Y-243039037D01*
X238673600Y-243039037D02*
X238578361Y-243134275D01*
X238578361Y-243134275D02*
X238483123Y-243181894D01*
X238483123Y-243181894D02*
X238292647Y-243229513D01*
X238292647Y-243229513D02*
X238149790Y-243229513D01*
X238149790Y-243229513D02*
X237959314Y-243181894D01*
X237959314Y-243181894D02*
X237864076Y-243134275D01*
X237864076Y-243134275D02*
X237768838Y-243039037D01*
X237768838Y-243039037D02*
X237721219Y-242896180D01*
X237721219Y-242896180D02*
X237721219Y-242800942D01*
X237721219Y-242800942D02*
X237768838Y-242658085D01*
X237768838Y-242658085D02*
X237816457Y-242610466D01*
X237721219Y-242277132D02*
X237721219Y-241658085D01*
X237721219Y-241658085D02*
X238102171Y-241991418D01*
X238102171Y-241991418D02*
X238102171Y-241848561D01*
X238102171Y-241848561D02*
X238149790Y-241753323D01*
X238149790Y-241753323D02*
X238197409Y-241705704D01*
X238197409Y-241705704D02*
X238292647Y-241658085D01*
X238292647Y-241658085D02*
X238530742Y-241658085D01*
X238530742Y-241658085D02*
X238625980Y-241705704D01*
X238625980Y-241705704D02*
X238673600Y-241753323D01*
X238673600Y-241753323D02*
X238721219Y-241848561D01*
X238721219Y-241848561D02*
X238721219Y-242134275D01*
X238721219Y-242134275D02*
X238673600Y-242229513D01*
X238673600Y-242229513D02*
X238625980Y-242277132D01*
X248974666Y-233899819D02*
X248974666Y-234614104D01*
X248974666Y-234614104D02*
X248927047Y-234756961D01*
X248927047Y-234756961D02*
X248831809Y-234852200D01*
X248831809Y-234852200D02*
X248688952Y-234899819D01*
X248688952Y-234899819D02*
X248593714Y-234899819D01*
X249974666Y-234899819D02*
X249403238Y-234899819D01*
X249688952Y-234899819D02*
X249688952Y-233899819D01*
X249688952Y-233899819D02*
X249593714Y-234042676D01*
X249593714Y-234042676D02*
X249498476Y-234137914D01*
X249498476Y-234137914D02*
X249403238Y-234185533D01*
X221721905Y-225454819D02*
X221721905Y-224454819D01*
X221721905Y-224454819D02*
X221960000Y-224454819D01*
X221960000Y-224454819D02*
X222102857Y-224502438D01*
X222102857Y-224502438D02*
X222198095Y-224597676D01*
X222198095Y-224597676D02*
X222245714Y-224692914D01*
X222245714Y-224692914D02*
X222293333Y-224883390D01*
X222293333Y-224883390D02*
X222293333Y-225026247D01*
X222293333Y-225026247D02*
X222245714Y-225216723D01*
X222245714Y-225216723D02*
X222198095Y-225311961D01*
X222198095Y-225311961D02*
X222102857Y-225407200D01*
X222102857Y-225407200D02*
X221960000Y-225454819D01*
X221960000Y-225454819D02*
X221721905Y-225454819D01*
X223245714Y-225454819D02*
X222674286Y-225454819D01*
X222960000Y-225454819D02*
X222960000Y-224454819D01*
X222960000Y-224454819D02*
X222864762Y-224597676D01*
X222864762Y-224597676D02*
X222769524Y-224692914D01*
X222769524Y-224692914D02*
X222674286Y-224740533D01*
D13*
X226172371Y-223128571D02*
X226172371Y-223471428D01*
X226172371Y-223299999D02*
X225572371Y-223299999D01*
X225572371Y-223299999D02*
X225658085Y-223357142D01*
X225658085Y-223357142D02*
X225715228Y-223414285D01*
X225715228Y-223414285D02*
X225743800Y-223471428D01*
D12*
X230947580Y-233167666D02*
X230995200Y-233215285D01*
X230995200Y-233215285D02*
X231042819Y-233358142D01*
X231042819Y-233358142D02*
X231042819Y-233453380D01*
X231042819Y-233453380D02*
X230995200Y-233596237D01*
X230995200Y-233596237D02*
X230899961Y-233691475D01*
X230899961Y-233691475D02*
X230804723Y-233739094D01*
X230804723Y-233739094D02*
X230614247Y-233786713D01*
X230614247Y-233786713D02*
X230471390Y-233786713D01*
X230471390Y-233786713D02*
X230280914Y-233739094D01*
X230280914Y-233739094D02*
X230185676Y-233691475D01*
X230185676Y-233691475D02*
X230090438Y-233596237D01*
X230090438Y-233596237D02*
X230042819Y-233453380D01*
X230042819Y-233453380D02*
X230042819Y-233358142D01*
X230042819Y-233358142D02*
X230090438Y-233215285D01*
X230090438Y-233215285D02*
X230138057Y-233167666D01*
X230042819Y-232262904D02*
X230042819Y-232739094D01*
X230042819Y-232739094D02*
X230519009Y-232786713D01*
X230519009Y-232786713D02*
X230471390Y-232739094D01*
X230471390Y-232739094D02*
X230423771Y-232643856D01*
X230423771Y-232643856D02*
X230423771Y-232405761D01*
X230423771Y-232405761D02*
X230471390Y-232310523D01*
X230471390Y-232310523D02*
X230519009Y-232262904D01*
X230519009Y-232262904D02*
X230614247Y-232215285D01*
X230614247Y-232215285D02*
X230852342Y-232215285D01*
X230852342Y-232215285D02*
X230947580Y-232262904D01*
X230947580Y-232262904D02*
X230995200Y-232310523D01*
X230995200Y-232310523D02*
X231042819Y-232405761D01*
X231042819Y-232405761D02*
X231042819Y-232643856D01*
X231042819Y-232643856D02*
X230995200Y-232739094D01*
X230995200Y-232739094D02*
X230947580Y-232786713D01*
X235433780Y-255954857D02*
X235481400Y-256002476D01*
X235481400Y-256002476D02*
X235529019Y-256145333D01*
X235529019Y-256145333D02*
X235529019Y-256240571D01*
X235529019Y-256240571D02*
X235481400Y-256383428D01*
X235481400Y-256383428D02*
X235386161Y-256478666D01*
X235386161Y-256478666D02*
X235290923Y-256526285D01*
X235290923Y-256526285D02*
X235100447Y-256573904D01*
X235100447Y-256573904D02*
X234957590Y-256573904D01*
X234957590Y-256573904D02*
X234767114Y-256526285D01*
X234767114Y-256526285D02*
X234671876Y-256478666D01*
X234671876Y-256478666D02*
X234576638Y-256383428D01*
X234576638Y-256383428D02*
X234529019Y-256240571D01*
X234529019Y-256240571D02*
X234529019Y-256145333D01*
X234529019Y-256145333D02*
X234576638Y-256002476D01*
X234576638Y-256002476D02*
X234624257Y-255954857D01*
X234529019Y-255621523D02*
X234529019Y-255002476D01*
X234529019Y-255002476D02*
X234909971Y-255335809D01*
X234909971Y-255335809D02*
X234909971Y-255192952D01*
X234909971Y-255192952D02*
X234957590Y-255097714D01*
X234957590Y-255097714D02*
X235005209Y-255050095D01*
X235005209Y-255050095D02*
X235100447Y-255002476D01*
X235100447Y-255002476D02*
X235338542Y-255002476D01*
X235338542Y-255002476D02*
X235433780Y-255050095D01*
X235433780Y-255050095D02*
X235481400Y-255097714D01*
X235481400Y-255097714D02*
X235529019Y-255192952D01*
X235529019Y-255192952D02*
X235529019Y-255478666D01*
X235529019Y-255478666D02*
X235481400Y-255573904D01*
X235481400Y-255573904D02*
X235433780Y-255621523D01*
X234529019Y-254145333D02*
X234529019Y-254335809D01*
X234529019Y-254335809D02*
X234576638Y-254431047D01*
X234576638Y-254431047D02*
X234624257Y-254478666D01*
X234624257Y-254478666D02*
X234767114Y-254573904D01*
X234767114Y-254573904D02*
X234957590Y-254621523D01*
X234957590Y-254621523D02*
X235338542Y-254621523D01*
X235338542Y-254621523D02*
X235433780Y-254573904D01*
X235433780Y-254573904D02*
X235481400Y-254526285D01*
X235481400Y-254526285D02*
X235529019Y-254431047D01*
X235529019Y-254431047D02*
X235529019Y-254240571D01*
X235529019Y-254240571D02*
X235481400Y-254145333D01*
X235481400Y-254145333D02*
X235433780Y-254097714D01*
X235433780Y-254097714D02*
X235338542Y-254050095D01*
X235338542Y-254050095D02*
X235100447Y-254050095D01*
X235100447Y-254050095D02*
X235005209Y-254097714D01*
X235005209Y-254097714D02*
X234957590Y-254145333D01*
X234957590Y-254145333D02*
X234909971Y-254240571D01*
X234909971Y-254240571D02*
X234909971Y-254431047D01*
X234909971Y-254431047D02*
X234957590Y-254526285D01*
X234957590Y-254526285D02*
X235005209Y-254573904D01*
X235005209Y-254573904D02*
X235100447Y-254621523D01*
X191882580Y-248783857D02*
X191930200Y-248831476D01*
X191930200Y-248831476D02*
X191977819Y-248974333D01*
X191977819Y-248974333D02*
X191977819Y-249069571D01*
X191977819Y-249069571D02*
X191930200Y-249212428D01*
X191930200Y-249212428D02*
X191834961Y-249307666D01*
X191834961Y-249307666D02*
X191739723Y-249355285D01*
X191739723Y-249355285D02*
X191549247Y-249402904D01*
X191549247Y-249402904D02*
X191406390Y-249402904D01*
X191406390Y-249402904D02*
X191215914Y-249355285D01*
X191215914Y-249355285D02*
X191120676Y-249307666D01*
X191120676Y-249307666D02*
X191025438Y-249212428D01*
X191025438Y-249212428D02*
X190977819Y-249069571D01*
X190977819Y-249069571D02*
X190977819Y-248974333D01*
X190977819Y-248974333D02*
X191025438Y-248831476D01*
X191025438Y-248831476D02*
X191073057Y-248783857D01*
X190977819Y-248450523D02*
X190977819Y-247831476D01*
X190977819Y-247831476D02*
X191358771Y-248164809D01*
X191358771Y-248164809D02*
X191358771Y-248021952D01*
X191358771Y-248021952D02*
X191406390Y-247926714D01*
X191406390Y-247926714D02*
X191454009Y-247879095D01*
X191454009Y-247879095D02*
X191549247Y-247831476D01*
X191549247Y-247831476D02*
X191787342Y-247831476D01*
X191787342Y-247831476D02*
X191882580Y-247879095D01*
X191882580Y-247879095D02*
X191930200Y-247926714D01*
X191930200Y-247926714D02*
X191977819Y-248021952D01*
X191977819Y-248021952D02*
X191977819Y-248307666D01*
X191977819Y-248307666D02*
X191930200Y-248402904D01*
X191930200Y-248402904D02*
X191882580Y-248450523D01*
X191311152Y-246974333D02*
X191977819Y-246974333D01*
X190930200Y-247212428D02*
X191644485Y-247450523D01*
X191644485Y-247450523D02*
X191644485Y-246831476D01*
X211596142Y-229875580D02*
X211548523Y-229923200D01*
X211548523Y-229923200D02*
X211405666Y-229970819D01*
X211405666Y-229970819D02*
X211310428Y-229970819D01*
X211310428Y-229970819D02*
X211167571Y-229923200D01*
X211167571Y-229923200D02*
X211072333Y-229827961D01*
X211072333Y-229827961D02*
X211024714Y-229732723D01*
X211024714Y-229732723D02*
X210977095Y-229542247D01*
X210977095Y-229542247D02*
X210977095Y-229399390D01*
X210977095Y-229399390D02*
X211024714Y-229208914D01*
X211024714Y-229208914D02*
X211072333Y-229113676D01*
X211072333Y-229113676D02*
X211167571Y-229018438D01*
X211167571Y-229018438D02*
X211310428Y-228970819D01*
X211310428Y-228970819D02*
X211405666Y-228970819D01*
X211405666Y-228970819D02*
X211548523Y-229018438D01*
X211548523Y-229018438D02*
X211596142Y-229066057D01*
X211929476Y-228970819D02*
X212548523Y-228970819D01*
X212548523Y-228970819D02*
X212215190Y-229351771D01*
X212215190Y-229351771D02*
X212358047Y-229351771D01*
X212358047Y-229351771D02*
X212453285Y-229399390D01*
X212453285Y-229399390D02*
X212500904Y-229447009D01*
X212500904Y-229447009D02*
X212548523Y-229542247D01*
X212548523Y-229542247D02*
X212548523Y-229780342D01*
X212548523Y-229780342D02*
X212500904Y-229875580D01*
X212500904Y-229875580D02*
X212453285Y-229923200D01*
X212453285Y-229923200D02*
X212358047Y-229970819D01*
X212358047Y-229970819D02*
X212072333Y-229970819D01*
X212072333Y-229970819D02*
X211977095Y-229923200D01*
X211977095Y-229923200D02*
X211929476Y-229875580D01*
X213453285Y-228970819D02*
X212977095Y-228970819D01*
X212977095Y-228970819D02*
X212929476Y-229447009D01*
X212929476Y-229447009D02*
X212977095Y-229399390D01*
X212977095Y-229399390D02*
X213072333Y-229351771D01*
X213072333Y-229351771D02*
X213310428Y-229351771D01*
X213310428Y-229351771D02*
X213405666Y-229399390D01*
X213405666Y-229399390D02*
X213453285Y-229447009D01*
X213453285Y-229447009D02*
X213500904Y-229542247D01*
X213500904Y-229542247D02*
X213500904Y-229780342D01*
X213500904Y-229780342D02*
X213453285Y-229875580D01*
X213453285Y-229875580D02*
X213405666Y-229923200D01*
X213405666Y-229923200D02*
X213310428Y-229970819D01*
X213310428Y-229970819D02*
X213072333Y-229970819D01*
X213072333Y-229970819D02*
X212977095Y-229923200D01*
X212977095Y-229923200D02*
X212929476Y-229875580D01*
X403798333Y-223033866D02*
X403798333Y-224033866D01*
X403798333Y-224033866D02*
X403731666Y-224233866D01*
X403731666Y-224233866D02*
X403598333Y-224367200D01*
X403598333Y-224367200D02*
X403398333Y-224433866D01*
X403398333Y-224433866D02*
X403265000Y-224433866D01*
X405065000Y-223033866D02*
X404798333Y-223033866D01*
X404798333Y-223033866D02*
X404665000Y-223100533D01*
X404665000Y-223100533D02*
X404598333Y-223167200D01*
X404598333Y-223167200D02*
X404465000Y-223367200D01*
X404465000Y-223367200D02*
X404398333Y-223633866D01*
X404398333Y-223633866D02*
X404398333Y-224167200D01*
X404398333Y-224167200D02*
X404465000Y-224300533D01*
X404465000Y-224300533D02*
X404531667Y-224367200D01*
X404531667Y-224367200D02*
X404665000Y-224433866D01*
X404665000Y-224433866D02*
X404931667Y-224433866D01*
X404931667Y-224433866D02*
X405065000Y-224367200D01*
X405065000Y-224367200D02*
X405131667Y-224300533D01*
X405131667Y-224300533D02*
X405198333Y-224167200D01*
X405198333Y-224167200D02*
X405198333Y-223833866D01*
X405198333Y-223833866D02*
X405131667Y-223700533D01*
X405131667Y-223700533D02*
X405065000Y-223633866D01*
X405065000Y-223633866D02*
X404931667Y-223567200D01*
X404931667Y-223567200D02*
X404665000Y-223567200D01*
X404665000Y-223567200D02*
X404531667Y-223633866D01*
X404531667Y-223633866D02*
X404465000Y-223700533D01*
X404465000Y-223700533D02*
X404398333Y-223833866D01*
X204616667Y-252752200D02*
X204759524Y-252799819D01*
X204759524Y-252799819D02*
X204997619Y-252799819D01*
X204997619Y-252799819D02*
X205092857Y-252752200D01*
X205092857Y-252752200D02*
X205140476Y-252704580D01*
X205140476Y-252704580D02*
X205188095Y-252609342D01*
X205188095Y-252609342D02*
X205188095Y-252514104D01*
X205188095Y-252514104D02*
X205140476Y-252418866D01*
X205140476Y-252418866D02*
X205092857Y-252371247D01*
X205092857Y-252371247D02*
X204997619Y-252323628D01*
X204997619Y-252323628D02*
X204807143Y-252276009D01*
X204807143Y-252276009D02*
X204711905Y-252228390D01*
X204711905Y-252228390D02*
X204664286Y-252180771D01*
X204664286Y-252180771D02*
X204616667Y-252085533D01*
X204616667Y-252085533D02*
X204616667Y-251990295D01*
X204616667Y-251990295D02*
X204664286Y-251895057D01*
X204664286Y-251895057D02*
X204711905Y-251847438D01*
X204711905Y-251847438D02*
X204807143Y-251799819D01*
X204807143Y-251799819D02*
X205045238Y-251799819D01*
X205045238Y-251799819D02*
X205188095Y-251847438D01*
X205521429Y-251799819D02*
X205759524Y-252799819D01*
X205759524Y-252799819D02*
X205950000Y-252085533D01*
X205950000Y-252085533D02*
X206140476Y-252799819D01*
X206140476Y-252799819D02*
X206378572Y-251799819D01*
X207283333Y-252799819D02*
X206711905Y-252799819D01*
X206997619Y-252799819D02*
X206997619Y-251799819D01*
X206997619Y-251799819D02*
X206902381Y-251942676D01*
X206902381Y-251942676D02*
X206807143Y-252037914D01*
X206807143Y-252037914D02*
X206711905Y-252085533D01*
X226778095Y-227502819D02*
X226778095Y-228312342D01*
X226778095Y-228312342D02*
X226825714Y-228407580D01*
X226825714Y-228407580D02*
X226873333Y-228455200D01*
X226873333Y-228455200D02*
X226968571Y-228502819D01*
X226968571Y-228502819D02*
X227159047Y-228502819D01*
X227159047Y-228502819D02*
X227254285Y-228455200D01*
X227254285Y-228455200D02*
X227301904Y-228407580D01*
X227301904Y-228407580D02*
X227349523Y-228312342D01*
X227349523Y-228312342D02*
X227349523Y-227502819D01*
X227778095Y-227598057D02*
X227825714Y-227550438D01*
X227825714Y-227550438D02*
X227920952Y-227502819D01*
X227920952Y-227502819D02*
X228159047Y-227502819D01*
X228159047Y-227502819D02*
X228254285Y-227550438D01*
X228254285Y-227550438D02*
X228301904Y-227598057D01*
X228301904Y-227598057D02*
X228349523Y-227693295D01*
X228349523Y-227693295D02*
X228349523Y-227788533D01*
X228349523Y-227788533D02*
X228301904Y-227931390D01*
X228301904Y-227931390D02*
X227730476Y-228502819D01*
X227730476Y-228502819D02*
X228349523Y-228502819D01*
X179921285Y-177814199D02*
X179921285Y-176814199D01*
X179921285Y-177290389D02*
X180492713Y-177290389D01*
X180492713Y-177814199D02*
X180492713Y-176814199D01*
X181397475Y-176814199D02*
X181206999Y-176814199D01*
X181206999Y-176814199D02*
X181111761Y-176861818D01*
X181111761Y-176861818D02*
X181064142Y-176909437D01*
X181064142Y-176909437D02*
X180968904Y-177052294D01*
X180968904Y-177052294D02*
X180921285Y-177242770D01*
X180921285Y-177242770D02*
X180921285Y-177623722D01*
X180921285Y-177623722D02*
X180968904Y-177718960D01*
X180968904Y-177718960D02*
X181016523Y-177766580D01*
X181016523Y-177766580D02*
X181111761Y-177814199D01*
X181111761Y-177814199D02*
X181302237Y-177814199D01*
X181302237Y-177814199D02*
X181397475Y-177766580D01*
X181397475Y-177766580D02*
X181445094Y-177718960D01*
X181445094Y-177718960D02*
X181492713Y-177623722D01*
X181492713Y-177623722D02*
X181492713Y-177385627D01*
X181492713Y-177385627D02*
X181445094Y-177290389D01*
X181445094Y-177290389D02*
X181397475Y-177242770D01*
X181397475Y-177242770D02*
X181302237Y-177195151D01*
X181302237Y-177195151D02*
X181111761Y-177195151D01*
X181111761Y-177195151D02*
X181016523Y-177242770D01*
X181016523Y-177242770D02*
X180968904Y-177290389D01*
X180968904Y-177290389D02*
X180921285Y-177385627D01*
X182111761Y-176814199D02*
X182206999Y-176814199D01*
X182206999Y-176814199D02*
X182302237Y-176861818D01*
X182302237Y-176861818D02*
X182349856Y-176909437D01*
X182349856Y-176909437D02*
X182397475Y-177004675D01*
X182397475Y-177004675D02*
X182445094Y-177195151D01*
X182445094Y-177195151D02*
X182445094Y-177433246D01*
X182445094Y-177433246D02*
X182397475Y-177623722D01*
X182397475Y-177623722D02*
X182349856Y-177718960D01*
X182349856Y-177718960D02*
X182302237Y-177766580D01*
X182302237Y-177766580D02*
X182206999Y-177814199D01*
X182206999Y-177814199D02*
X182111761Y-177814199D01*
X182111761Y-177814199D02*
X182016523Y-177766580D01*
X182016523Y-177766580D02*
X181968904Y-177718960D01*
X181968904Y-177718960D02*
X181921285Y-177623722D01*
X181921285Y-177623722D02*
X181873666Y-177433246D01*
X181873666Y-177433246D02*
X181873666Y-177195151D01*
X181873666Y-177195151D02*
X181921285Y-177004675D01*
X181921285Y-177004675D02*
X181968904Y-176909437D01*
X181968904Y-176909437D02*
X182016523Y-176861818D01*
X182016523Y-176861818D02*
X182111761Y-176814199D01*
X243778333Y-223033866D02*
X243778333Y-224033866D01*
X243778333Y-224033866D02*
X243711666Y-224233866D01*
X243711666Y-224233866D02*
X243578333Y-224367200D01*
X243578333Y-224367200D02*
X243378333Y-224433866D01*
X243378333Y-224433866D02*
X243245000Y-224433866D01*
X245111667Y-223033866D02*
X244445000Y-223033866D01*
X244445000Y-223033866D02*
X244378333Y-223700533D01*
X244378333Y-223700533D02*
X244445000Y-223633866D01*
X244445000Y-223633866D02*
X244578333Y-223567200D01*
X244578333Y-223567200D02*
X244911667Y-223567200D01*
X244911667Y-223567200D02*
X245045000Y-223633866D01*
X245045000Y-223633866D02*
X245111667Y-223700533D01*
X245111667Y-223700533D02*
X245178333Y-223833866D01*
X245178333Y-223833866D02*
X245178333Y-224167200D01*
X245178333Y-224167200D02*
X245111667Y-224300533D01*
X245111667Y-224300533D02*
X245045000Y-224367200D01*
X245045000Y-224367200D02*
X244911667Y-224433866D01*
X244911667Y-224433866D02*
X244578333Y-224433866D01*
X244578333Y-224433866D02*
X244445000Y-224367200D01*
X244445000Y-224367200D02*
X244378333Y-224300533D01*
X195685762Y-237702819D02*
X195685762Y-236702819D01*
X196733380Y-237607580D02*
X196685761Y-237655200D01*
X196685761Y-237655200D02*
X196542904Y-237702819D01*
X196542904Y-237702819D02*
X196447666Y-237702819D01*
X196447666Y-237702819D02*
X196304809Y-237655200D01*
X196304809Y-237655200D02*
X196209571Y-237559961D01*
X196209571Y-237559961D02*
X196161952Y-237464723D01*
X196161952Y-237464723D02*
X196114333Y-237274247D01*
X196114333Y-237274247D02*
X196114333Y-237131390D01*
X196114333Y-237131390D02*
X196161952Y-236940914D01*
X196161952Y-236940914D02*
X196209571Y-236845676D01*
X196209571Y-236845676D02*
X196304809Y-236750438D01*
X196304809Y-236750438D02*
X196447666Y-236702819D01*
X196447666Y-236702819D02*
X196542904Y-236702819D01*
X196542904Y-236702819D02*
X196685761Y-236750438D01*
X196685761Y-236750438D02*
X196733380Y-236798057D01*
X197685761Y-237702819D02*
X197114333Y-237702819D01*
X197400047Y-237702819D02*
X197400047Y-236702819D01*
X197400047Y-236702819D02*
X197304809Y-236845676D01*
X197304809Y-236845676D02*
X197209571Y-236940914D01*
X197209571Y-236940914D02*
X197114333Y-236988533D01*
D14*
%TO.C,J7*%
X248690000Y-230270000D02*
X238530000Y-230270000D01*
X248690000Y-227730000D02*
X248690000Y-230270000D01*
X238530000Y-230270000D02*
X238530000Y-227730000D01*
X238530000Y-227730000D02*
X248690000Y-227730000D01*
X237960000Y-229000000D02*
G75*
G03*
X237960000Y-229000000I-100000J0D01*
G01*
D15*
%TO.C,U34*%
X233313000Y-264360000D02*
X215313000Y-264360000D01*
X233313000Y-257640000D02*
X233313000Y-264360000D01*
X233313000Y-239590000D02*
X233313000Y-238860000D01*
X233313000Y-238860000D02*
X232068000Y-238860000D01*
X215313000Y-264360000D02*
X215313000Y-257640000D01*
X215313000Y-239590000D02*
X215313000Y-238860000D01*
X215313000Y-238860000D02*
X216558000Y-238860000D01*
D14*
X234613000Y-256870000D02*
G75*
G03*
X234613000Y-256870000I-100000J0D01*
G01*
D16*
%TO.C,C1*%
X237933000Y-255504264D02*
X237933000Y-255719936D01*
X237213000Y-255504264D02*
X237213000Y-255719936D01*
D14*
%TO.C,J8*%
X408710000Y-230270000D02*
X398550000Y-230270000D01*
X408710000Y-227730000D02*
X408710000Y-230270000D01*
X398550000Y-230270000D02*
X398550000Y-227730000D01*
X398550000Y-227730000D02*
X408710000Y-227730000D01*
X397980000Y-229000000D02*
G75*
G03*
X397980000Y-229000000I-100000J0D01*
G01*
D16*
%TO.C,IC3*%
X248218000Y-215265000D02*
X242208000Y-215265000D01*
X245968000Y-208445000D02*
X242208000Y-208445000D01*
X242208000Y-215265000D02*
X242208000Y-214005000D01*
X242208000Y-208445000D02*
X242208000Y-209705000D01*
%TO.C,C6*%
X224386000Y-231203836D02*
X224386000Y-230988164D01*
X225106000Y-231203836D02*
X225106000Y-230988164D01*
%TO.C,IC2*%
X215392000Y-227562000D02*
X218992000Y-227562000D01*
X215392000Y-227562000D02*
X213192000Y-227562000D01*
X215392000Y-222342000D02*
X217592000Y-222342000D01*
X215392000Y-222342000D02*
X213192000Y-222342000D01*
%TO.C,SW2*%
X244430000Y-256245000D02*
X241130000Y-256245000D01*
X244430000Y-255945000D02*
X244430000Y-256245000D01*
X244430000Y-253745000D02*
X244430000Y-253445000D01*
X244430000Y-253445000D02*
X241130000Y-253445000D01*
X241130000Y-256245000D02*
X241130000Y-255945000D01*
X241130000Y-253445000D02*
X241130000Y-253745000D01*
%TO.C,U1*%
X231822000Y-230842000D02*
X231822000Y-232642000D01*
X231822000Y-230842000D02*
X231822000Y-230042000D01*
X234942000Y-230842000D02*
X234942000Y-231642000D01*
X234942000Y-230842000D02*
X234942000Y-230042000D01*
%TO.C,C2*%
X235816000Y-252671936D02*
X235816000Y-252456264D01*
X236536000Y-252671936D02*
X236536000Y-252456264D01*
%TO.C,JP1*%
X257202000Y-215141000D02*
X254402000Y-215141000D01*
X257202000Y-213141000D02*
X257202000Y-215141000D01*
X254402000Y-215141000D02*
X254402000Y-213141000D01*
X254402000Y-213141000D02*
X257202000Y-213141000D01*
%TO.C,C37*%
X250482000Y-210505000D02*
X253502000Y-210505000D01*
X253502000Y-210505000D02*
X253502000Y-206295000D01*
X250482000Y-206295000D02*
X250482000Y-210505000D01*
D14*
%TO.C,J10*%
X215290010Y-182801000D02*
X211849990Y-182801000D01*
X211849990Y-182801000D02*
X211849990Y-204021000D01*
X215290010Y-204021000D02*
X215290010Y-182801000D01*
X211849990Y-204021000D02*
X215290010Y-204021000D01*
%TO.C,J9*%
X238150010Y-182801000D02*
X234709990Y-182801000D01*
X234709990Y-182801000D02*
X234709990Y-204021000D01*
X238150010Y-204021000D02*
X238150010Y-182801000D01*
X234709990Y-204021000D02*
X238150010Y-204021000D01*
D16*
%TO.C,R3*%
X237193000Y-253799091D02*
X237193000Y-253491809D01*
X237953000Y-253799091D02*
X237953000Y-253491809D01*
%TO.C,C4*%
X239245000Y-239773436D02*
X239245000Y-239557764D01*
X239965000Y-239773436D02*
X239965000Y-239557764D01*
%TO.C,C12*%
X217945036Y-228712800D02*
X217729364Y-228712800D01*
X217945036Y-227992800D02*
X217729364Y-227992800D01*
%TO.C,C38*%
X251482000Y-213011580D02*
X251482000Y-212730420D01*
X252502000Y-213011580D02*
X252502000Y-212730420D01*
%TO.C,C3*%
X239955400Y-242272964D02*
X239955400Y-242488636D01*
X239235400Y-242272964D02*
X239235400Y-242488636D01*
%TO.C,J1*%
X242418000Y-235885000D02*
X242418000Y-237215000D01*
X243528000Y-235885000D02*
X242418000Y-235885000D01*
X244988000Y-235885000D02*
X244988000Y-246165000D01*
X244988000Y-236855000D02*
X244638000Y-236855000D01*
X244988000Y-237575000D02*
X244638000Y-237575000D01*
X244988000Y-239395000D02*
X244578000Y-239395000D01*
X244988000Y-240115000D02*
X244578000Y-240115000D01*
X244988000Y-241935000D02*
X244578000Y-241935000D01*
X244988000Y-242655000D02*
X244578000Y-242655000D01*
X244988000Y-244475000D02*
X244578000Y-244475000D01*
X244988000Y-245195000D02*
X244578000Y-245195000D01*
X253618000Y-235885000D02*
X244988000Y-235885000D01*
X253618000Y-235885000D02*
X253618000Y-246165000D01*
X253618000Y-236005000D02*
X244988000Y-236005000D01*
X253618000Y-236123095D02*
X244988000Y-236123095D01*
X253618000Y-236241190D02*
X244988000Y-236241190D01*
X253618000Y-236359285D02*
X244988000Y-236359285D01*
X253618000Y-236477380D02*
X244988000Y-236477380D01*
X253618000Y-236595475D02*
X244988000Y-236595475D01*
X253618000Y-236713570D02*
X244988000Y-236713570D01*
X253618000Y-236831665D02*
X244988000Y-236831665D01*
X253618000Y-236949760D02*
X244988000Y-236949760D01*
X253618000Y-237067855D02*
X244988000Y-237067855D01*
X253618000Y-237185950D02*
X244988000Y-237185950D01*
X253618000Y-237304045D02*
X244988000Y-237304045D01*
X253618000Y-237422140D02*
X244988000Y-237422140D01*
X253618000Y-237540235D02*
X244988000Y-237540235D01*
X253618000Y-237658330D02*
X244988000Y-237658330D01*
X253618000Y-237776425D02*
X244988000Y-237776425D01*
X253618000Y-237894520D02*
X244988000Y-237894520D01*
X253618000Y-238012615D02*
X244988000Y-238012615D01*
X253618000Y-238130710D02*
X244988000Y-238130710D01*
X253618000Y-238248805D02*
X244988000Y-238248805D01*
X253618000Y-238366900D02*
X244988000Y-238366900D01*
X253618000Y-238485000D02*
X244988000Y-238485000D01*
X253618000Y-241025000D02*
X244988000Y-241025000D01*
X253618000Y-243565000D02*
X244988000Y-243565000D01*
X253618000Y-246165000D02*
X244988000Y-246165000D01*
%TO.C,D1*%
X223600000Y-223800000D02*
X223600000Y-224500000D01*
%TO.C,C5*%
X230101000Y-231189836D02*
X230101000Y-230974164D01*
X230821000Y-231189836D02*
X230821000Y-230974164D01*
%TO.C,C36*%
X236731000Y-255504264D02*
X236731000Y-255719936D01*
X236011000Y-255504264D02*
X236011000Y-255719936D01*
%TO.C,C34*%
X192323000Y-248248836D02*
X192323000Y-248033164D01*
X193043000Y-248248836D02*
X193043000Y-248033164D01*
%TO.C,C35*%
X212346836Y-228716000D02*
X212131164Y-228716000D01*
X212346836Y-227996000D02*
X212131164Y-227996000D01*
D14*
%TO.C,J6*%
X408710000Y-222270000D02*
X398550000Y-222270000D01*
X408710000Y-219730000D02*
X408710000Y-222270000D01*
X398550000Y-222270000D02*
X398550000Y-219730000D01*
X398550000Y-219730000D02*
X408710000Y-219730000D01*
X397980000Y-221000000D02*
G75*
G03*
X397980000Y-221000000I-100000J0D01*
G01*
D16*
%TO.C,SW1*%
X204300000Y-253445000D02*
X207600000Y-253445000D01*
X204300000Y-253745000D02*
X204300000Y-253445000D01*
X204300000Y-255945000D02*
X204300000Y-256245000D01*
X204300000Y-256245000D02*
X207600000Y-256245000D01*
X207600000Y-253445000D02*
X207600000Y-253745000D01*
X207600000Y-256245000D02*
X207600000Y-255945000D01*
%TO.C,U2*%
X225980000Y-230842000D02*
X225980000Y-232642000D01*
X225980000Y-230842000D02*
X225980000Y-230042000D01*
X229100000Y-230842000D02*
X229100000Y-231642000D01*
X229100000Y-230842000D02*
X229100000Y-230042000D01*
D14*
%TO.C,J5*%
X248690000Y-222270000D02*
X238530000Y-222270000D01*
X248690000Y-219730000D02*
X248690000Y-222270000D01*
X238530000Y-222270000D02*
X238530000Y-219730000D01*
X238530000Y-219730000D02*
X248690000Y-219730000D01*
X237960000Y-221000000D02*
G75*
G03*
X237960000Y-221000000I-100000J0D01*
G01*
D16*
%TO.C,IC1*%
X193051952Y-239488000D02*
X193051952Y-239938000D01*
X193051952Y-239938000D02*
X191761952Y-239938000D01*
X193051952Y-246708000D02*
X193051952Y-246258000D01*
X193501952Y-239488000D02*
X193051952Y-239488000D01*
X193501952Y-246708000D02*
X193051952Y-246708000D01*
X199821952Y-239488000D02*
X200271952Y-239488000D01*
X199821952Y-246708000D02*
X200271952Y-246708000D01*
X200271952Y-239488000D02*
X200271952Y-239938000D01*
X200271952Y-246708000D02*
X200271952Y-246258000D01*
%TD*%
%LPC*%
%TO.C,J10*%
D17*
X213960499Y-184521000D02*
G75*
G03*
X213960499Y-184521000I-390499J0D01*
G01*
X213960499Y-187061000D02*
G75*
G03*
X213960499Y-187061000I-390499J0D01*
G01*
X213960499Y-189601000D02*
G75*
G03*
X213960499Y-189601000I-390499J0D01*
G01*
X213960499Y-192141000D02*
G75*
G03*
X213960499Y-192141000I-390499J0D01*
G01*
X213960499Y-194681000D02*
G75*
G03*
X213960499Y-194681000I-390499J0D01*
G01*
X213960499Y-197221000D02*
G75*
G03*
X213960499Y-197221000I-390499J0D01*
G01*
X213960499Y-199761000D02*
G75*
G03*
X213960499Y-199761000I-390499J0D01*
G01*
X213960499Y-202301000D02*
G75*
G03*
X213960499Y-202301000I-390499J0D01*
G01*
%TO.C,J9*%
X236820499Y-184521000D02*
G75*
G03*
X236820499Y-184521000I-390499J0D01*
G01*
X236820499Y-187061000D02*
G75*
G03*
X236820499Y-187061000I-390499J0D01*
G01*
X236820499Y-189601000D02*
G75*
G03*
X236820499Y-189601000I-390499J0D01*
G01*
X236820499Y-192141000D02*
G75*
G03*
X236820499Y-192141000I-390499J0D01*
G01*
X236820499Y-194681000D02*
G75*
G03*
X236820499Y-194681000I-390499J0D01*
G01*
X236820499Y-197221000D02*
G75*
G03*
X236820499Y-197221000I-390499J0D01*
G01*
X236820499Y-199761000D02*
G75*
G03*
X236820499Y-199761000I-390499J0D01*
G01*
X236820499Y-202301000D02*
G75*
G03*
X236820499Y-202301000I-390499J0D01*
G01*
%TD*%
D18*
%TO.C,J7*%
X239800000Y-229000000D03*
D19*
X242340000Y-229000000D03*
X244880000Y-229000000D03*
X247420000Y-229000000D03*
%TD*%
D20*
%TO.C,H1*%
X338979248Y-255540647D03*
%TD*%
D21*
%TO.C,H60*%
X268840620Y-268840620D03*
%TD*%
D20*
%TO.C,H1*%
X314230038Y-236747357D03*
%TD*%
%TO.C,H1*%
X97497791Y-190835886D03*
%TD*%
%TO.C,H1*%
X328110266Y-211425276D03*
%TD*%
%TO.C,H1*%
X56928906Y-179965486D03*
%TD*%
%TO.C,H1*%
X80249050Y-244056824D03*
%TD*%
D22*
%TO.C,U34*%
X233063000Y-256870000D03*
X233063000Y-255600000D03*
X233063000Y-254330000D03*
X233063000Y-253060000D03*
X233063000Y-251790000D03*
X233063000Y-250520000D03*
X233063000Y-249250000D03*
X233063000Y-247980000D03*
X233063000Y-246710000D03*
X233063000Y-245440000D03*
X233063000Y-244170000D03*
X233063000Y-242900000D03*
X233063000Y-241630000D03*
X233063000Y-240360000D03*
D23*
X231298000Y-239110000D03*
X230028000Y-239110000D03*
X228758000Y-239110000D03*
X227488000Y-239110000D03*
X226218000Y-239110000D03*
X224948000Y-239110000D03*
X223678000Y-239110000D03*
X222408000Y-239110000D03*
X221138000Y-239110000D03*
X219868000Y-239110000D03*
X218598000Y-239110000D03*
X217328000Y-239110000D03*
D22*
X215563000Y-240360000D03*
X215563000Y-241630000D03*
X215563000Y-242900000D03*
X215563000Y-244170000D03*
X215563000Y-245440000D03*
X215563000Y-246710000D03*
X215563000Y-247980000D03*
X215563000Y-249250000D03*
X215563000Y-250520000D03*
X215563000Y-251790000D03*
X215563000Y-253060000D03*
X215563000Y-254330000D03*
X215563000Y-255600000D03*
X215563000Y-256870000D03*
%TD*%
D20*
%TO.C,H1*%
X147057714Y-180000000D03*
%TD*%
%TO.C,H1*%
X346952098Y-275514213D03*
%TD*%
D24*
%TO.C,C1*%
X237573000Y-255132100D03*
X237573000Y-256092100D03*
%TD*%
D25*
%TO.C,H45*%
X158100000Y-227939000D03*
%TD*%
%TO.C,H23*%
X81100000Y-227939000D03*
%TD*%
D21*
%TO.C,H60*%
X268840620Y-181159380D03*
%TD*%
D20*
%TO.C,H1*%
X124543714Y-198082819D03*
%TD*%
%TO.C,H1*%
X397511406Y-247711557D03*
%TD*%
%TO.C,H1*%
X128916529Y-264799077D03*
%TD*%
%TO.C,H1*%
X171306425Y-256000000D03*
%TD*%
%TO.C,H1*%
X355870722Y-242229457D03*
%TD*%
%TO.C,H1*%
X334017785Y-179843355D03*
%TD*%
%TO.C,H1*%
X141850842Y-190558491D03*
%TD*%
D25*
%TO.C,H57*%
X200100000Y-227939000D03*
%TD*%
D20*
%TO.C,H1*%
X121889734Y-238574724D03*
%TD*%
D21*
%TO.C,H60*%
X181159380Y-268840620D03*
%TD*%
D20*
%TO.C,H1*%
X154785156Y-195916059D03*
%TD*%
D25*
%TO.C,H18*%
X64560000Y-227939000D03*
%TD*%
D20*
%TO.C,H1*%
X66368822Y-204115809D03*
%TD*%
%TO.C,H1*%
X385000000Y-225000000D03*
%TD*%
%TO.C,H1*%
X159182069Y-187000000D03*
%TD*%
%TO.C,H1*%
X302942286Y-270000000D03*
%TD*%
D18*
%TO.C,J8*%
X399820000Y-229000000D03*
D19*
X402360000Y-229000000D03*
X404900000Y-229000000D03*
X407440000Y-229000000D03*
%TD*%
D25*
%TO.C,H36*%
X127560000Y-227939000D03*
%TD*%
D20*
%TO.C,H1*%
X284887401Y-208953219D03*
%TD*%
D26*
%TO.C,IC3*%
X247268000Y-214155000D03*
X247268000Y-211855000D03*
X247268000Y-209555000D03*
D27*
X240968000Y-211855000D03*
%TD*%
D20*
%TO.C,H1*%
X128916529Y-185200923D03*
%TD*%
%TO.C,H1*%
X366025171Y-187212419D03*
%TD*%
D25*
%TO.C,H15*%
X53100000Y-227939000D03*
%TD*%
D20*
%TO.C,H1*%
X357000000Y-225000000D03*
%TD*%
D28*
%TO.C,C6*%
X224746000Y-231576000D03*
X224746000Y-230616000D03*
%TD*%
D20*
%TO.C,H1*%
X154785156Y-254083941D03*
%TD*%
D29*
%TO.C,IC2*%
X218254500Y-226902000D03*
X218254500Y-226252000D03*
X218254500Y-225602000D03*
X218254500Y-224952000D03*
X218254500Y-224302000D03*
X218254500Y-223652000D03*
X218254500Y-223002000D03*
X212529500Y-223002000D03*
X212529500Y-223652000D03*
X212529500Y-224302000D03*
X212529500Y-224952000D03*
X212529500Y-225602000D03*
X212529500Y-226252000D03*
X212529500Y-226902000D03*
%TD*%
D25*
%TO.C,H21*%
X74100000Y-227939000D03*
%TD*%
%TO.C,H28*%
X99560000Y-227939000D03*
%TD*%
D30*
%TO.C,SW2*%
X244480000Y-254845000D03*
X241080000Y-254845000D03*
%TD*%
D20*
%TO.C,H1*%
X83974829Y-187212419D03*
%TD*%
%TO.C,H1*%
X383631178Y-245884191D03*
%TD*%
D25*
%TO.C,H54*%
X190560000Y-227939000D03*
%TD*%
D20*
%TO.C,H1*%
X371000000Y-225000000D03*
%TD*%
D25*
%TO.C,H12*%
X43560000Y-227939000D03*
%TD*%
D31*
%TO.C,U1*%
X232432000Y-231979500D03*
X233382000Y-231979500D03*
X234332000Y-231979500D03*
X234332000Y-229704500D03*
X232432000Y-229704500D03*
%TD*%
D20*
%TO.C,H1*%
X393071094Y-270034514D03*
%TD*%
D25*
%TO.C,H46*%
X162560000Y-227939000D03*
%TD*%
%TO.C,H16*%
X57560000Y-227939000D03*
%TD*%
D20*
%TO.C,H1*%
X165112599Y-208953219D03*
%TD*%
D25*
%TO.C,H14*%
X50560000Y-227939000D03*
%TD*%
D20*
%TO.C,H1*%
X328110266Y-238574724D03*
%TD*%
D28*
%TO.C,C2*%
X236176000Y-253044100D03*
X236176000Y-252084100D03*
%TD*%
D32*
%TO.C,JP1*%
X256452000Y-214141000D03*
X255152000Y-214141000D03*
%TD*%
D25*
%TO.C,H26*%
X92560000Y-227939000D03*
%TD*%
D20*
%TO.C,H1*%
X352502209Y-259164114D03*
%TD*%
D25*
%TO.C,H22*%
X78560000Y-227939000D03*
%TD*%
%TO.C,H43*%
X151100000Y-227939000D03*
%TD*%
D20*
%TO.C,H1*%
X300349809Y-215080009D03*
%TD*%
%TO.C,H1*%
X124543714Y-251917181D03*
%TD*%
%TO.C,H1*%
X121889734Y-211425276D03*
%TD*%
%TO.C,H1*%
X103047902Y-174485787D03*
%TD*%
%TO.C,H1*%
X115982215Y-270156645D03*
%TD*%
D33*
%TO.C,C37*%
X251992000Y-209582500D03*
X251992000Y-206507500D03*
%TD*%
D20*
%TO.C,H1*%
X301000000Y-225000000D03*
%TD*%
%TO.C,H1*%
X399000000Y-225000000D03*
%TD*%
%TO.C,H1*%
X308149158Y-259441509D03*
%TD*%
%TO.C,H1*%
X159182069Y-263000000D03*
%TD*%
D25*
%TO.C,H34*%
X120560000Y-227939000D03*
%TD*%
D20*
%TO.C,H1*%
X366025171Y-262787581D03*
%TD*%
D25*
%TO.C,H48*%
X169560000Y-227939000D03*
%TD*%
%TO.C,H31*%
X109100000Y-227939000D03*
%TD*%
D20*
%TO.C,H1*%
X295214844Y-254083941D03*
%TD*%
%TO.C,H1*%
X369750950Y-244056824D03*
%TD*%
%TO.C,H1*%
X149650191Y-215080009D03*
%TD*%
%TO.C,H1*%
X284887401Y-241046781D03*
%TD*%
D25*
%TO.C,H37*%
X130100000Y-227939000D03*
%TD*%
D20*
%TO.C,H1*%
X138066676Y-248293714D03*
%TD*%
%TO.C,H1*%
X298410363Y-244670247D03*
%TD*%
D25*
%TO.C,H47*%
X165100000Y-227939000D03*
%TD*%
D20*
%TO.C,H1*%
X311933324Y-248293714D03*
%TD*%
%TO.C,H1*%
X165112599Y-241046781D03*
%TD*%
%TO.C,H1*%
X115982215Y-179843355D03*
%TD*%
%TO.C,H1*%
X141850842Y-259441509D03*
%TD*%
%TO.C,H1*%
X97497791Y-259164114D03*
%TD*%
%TO.C,H1*%
X52488594Y-202288443D03*
%TD*%
%TO.C,H1*%
X314230038Y-213252643D03*
%TD*%
%TO.C,H1*%
X341990494Y-209597909D03*
%TD*%
D25*
%TO.C,H33*%
X116100000Y-227939000D03*
%TD*%
D34*
%TO.C,R3*%
X237573000Y-254155450D03*
X237573000Y-253135450D03*
%TD*%
D25*
%TO.C,H44*%
X155560000Y-227939000D03*
%TD*%
D20*
%TO.C,H1*%
X52488594Y-247711557D03*
%TD*%
%TO.C,H1*%
X70451868Y-266411047D03*
%TD*%
D28*
%TO.C,C4*%
X239605000Y-240145600D03*
X239605000Y-239185600D03*
%TD*%
D25*
%TO.C,H49*%
X172100000Y-227939000D03*
%TD*%
%TO.C,H20*%
X71560000Y-227939000D03*
%TD*%
%TO.C,H58*%
X204560000Y-227939000D03*
%TD*%
D20*
%TO.C,H1*%
X285294854Y-271265869D03*
%TD*%
%TO.C,H1*%
X164705146Y-271265869D03*
%TD*%
%TO.C,H1*%
X308149158Y-190558491D03*
%TD*%
%TO.C,H1*%
X80249050Y-205943176D03*
%TD*%
%TO.C,H1*%
X135769962Y-236747357D03*
%TD*%
%TO.C,H1*%
X108009506Y-209597909D03*
%TD*%
D35*
%TO.C,C12*%
X218317200Y-228352800D03*
X217357200Y-228352800D03*
%TD*%
D20*
%TO.C,H1*%
X341990494Y-240402091D03*
%TD*%
%TO.C,H1*%
X379548132Y-183588953D03*
%TD*%
%TO.C,H1*%
X321083471Y-264799077D03*
%TD*%
D36*
%TO.C,C38*%
X251992000Y-213646000D03*
X251992000Y-212096000D03*
%TD*%
D24*
%TO.C,C3*%
X239595400Y-241900800D03*
X239595400Y-242860800D03*
%TD*%
D20*
%TO.C,H1*%
X83974829Y-262787581D03*
%TD*%
D25*
%TO.C,H25*%
X88100000Y-227939000D03*
%TD*%
D20*
%TO.C,H1*%
X111020752Y-255540647D03*
%TD*%
%TO.C,H1*%
X290817931Y-263000000D03*
%TD*%
D37*
%TO.C,J1*%
X243528000Y-237215000D03*
D38*
X243528000Y-239755000D03*
X243528000Y-242295000D03*
X243528000Y-244835000D03*
%TD*%
D20*
%TO.C,H1*%
X138066676Y-201706286D03*
%TD*%
D25*
%TO.C,H24*%
X85560000Y-227939000D03*
%TD*%
%TO.C,H40*%
X141560000Y-227939000D03*
%TD*%
D20*
%TO.C,H1*%
X149650191Y-234919991D03*
%TD*%
%TO.C,H1*%
X151589637Y-244670247D03*
%TD*%
D39*
%TO.C,D1*%
X225900000Y-224150000D03*
D40*
X225830000Y-225000000D03*
D41*
X225000000Y-224150000D03*
D39*
X224100000Y-224150000D03*
X224100000Y-225850000D03*
D41*
X225000000Y-225850000D03*
D42*
X224410000Y-225000000D03*
D39*
X225900000Y-225850000D03*
%TD*%
D20*
%TO.C,H1*%
X56928906Y-270034514D03*
%TD*%
D25*
%TO.C,H50*%
X176560000Y-227939000D03*
%TD*%
D20*
%TO.C,H1*%
X315000000Y-225000000D03*
%TD*%
%TO.C,H1*%
X94129278Y-242229457D03*
%TD*%
%TO.C,H1*%
X325456286Y-198082819D03*
%TD*%
D25*
%TO.C,H35*%
X123100000Y-227939000D03*
%TD*%
D20*
%TO.C,H1*%
X355870722Y-207770543D03*
%TD*%
D28*
%TO.C,C5*%
X230461000Y-231562000D03*
X230461000Y-230602000D03*
%TD*%
D24*
%TO.C,C36*%
X236371000Y-255132100D03*
X236371000Y-256092100D03*
%TD*%
D25*
%TO.C,H41*%
X144100000Y-227939000D03*
%TD*%
D20*
%TO.C,H1*%
X278693575Y-194000000D03*
%TD*%
%TO.C,H1*%
X290817931Y-187000000D03*
%TD*%
%TO.C,H1*%
X346952098Y-174485787D03*
%TD*%
D25*
%TO.C,H29*%
X102100000Y-227939000D03*
%TD*%
%TO.C,H13*%
X46100000Y-227939000D03*
%TD*%
D20*
%TO.C,H1*%
X383631178Y-204115809D03*
%TD*%
D28*
%TO.C,C34*%
X192683000Y-248621000D03*
X192683000Y-247661000D03*
%TD*%
D20*
%TO.C,H1*%
X66368822Y-245884191D03*
%TD*%
D25*
%TO.C,H38*%
X134560000Y-227939000D03*
%TD*%
D20*
%TO.C,H1*%
X300349809Y-234919991D03*
%TD*%
D35*
%TO.C,C35*%
X212719000Y-228356000D03*
X211759000Y-228356000D03*
%TD*%
D20*
%TO.C,H1*%
X111020752Y-194459353D03*
%TD*%
D25*
%TO.C,H53*%
X186100000Y-227939000D03*
%TD*%
D18*
%TO.C,J6*%
X399820000Y-221000000D03*
D19*
X402360000Y-221000000D03*
X404900000Y-221000000D03*
X407440000Y-221000000D03*
%TD*%
D20*
%TO.C,H1*%
X369750950Y-205943176D03*
%TD*%
%TO.C,H1*%
X164705146Y-178734131D03*
%TD*%
%TO.C,H1*%
X393071094Y-179965486D03*
%TD*%
D25*
%TO.C,H55*%
X193100000Y-227939000D03*
%TD*%
D20*
%TO.C,H1*%
X397511406Y-202288443D03*
%TD*%
D25*
%TO.C,H59*%
X207100000Y-227939000D03*
%TD*%
D30*
%TO.C,SW1*%
X204250000Y-254845000D03*
X207650000Y-254845000D03*
%TD*%
D20*
%TO.C,H1*%
X171306425Y-194000000D03*
%TD*%
%TO.C,H1*%
X147057714Y-270000000D03*
%TD*%
D31*
%TO.C,U2*%
X226590000Y-231979500D03*
X227540000Y-231979500D03*
X228490000Y-231979500D03*
X228490000Y-229704500D03*
X226590000Y-229704500D03*
%TD*%
D21*
%TO.C,H60*%
X181159380Y-181159380D03*
%TD*%
D20*
%TO.C,H1*%
X295214844Y-195916059D03*
%TD*%
%TO.C,H1*%
X302942286Y-180000000D03*
%TD*%
D25*
%TO.C,H19*%
X67100000Y-227939000D03*
%TD*%
D20*
%TO.C,H1*%
X352502209Y-190835886D03*
%TD*%
%TO.C,H1*%
X135769962Y-213252643D03*
%TD*%
%TO.C,H1*%
X379548132Y-266411047D03*
%TD*%
%TO.C,H1*%
X321083471Y-185200923D03*
%TD*%
%TO.C,H1*%
X334017785Y-270156645D03*
%TD*%
D25*
%TO.C,H27*%
X95100000Y-227939000D03*
%TD*%
%TO.C,H39*%
X137100000Y-227939000D03*
%TD*%
D18*
%TO.C,J5*%
X239800000Y-221000000D03*
D19*
X242340000Y-221000000D03*
X244880000Y-221000000D03*
X247420000Y-221000000D03*
%TD*%
D20*
%TO.C,H1*%
X298410363Y-205329753D03*
%TD*%
%TO.C,H1*%
X94129278Y-207770543D03*
%TD*%
%TO.C,H1*%
X108009506Y-240402091D03*
%TD*%
%TO.C,H1*%
X311933324Y-201706286D03*
%TD*%
%TO.C,H1*%
X325456286Y-251917181D03*
%TD*%
%TO.C,H1*%
X70451868Y-183588953D03*
%TD*%
D25*
%TO.C,H32*%
X113560000Y-227939000D03*
%TD*%
%TO.C,H52*%
X183560000Y-227939000D03*
%TD*%
%TO.C,H30*%
X106560000Y-227939000D03*
%TD*%
D20*
%TO.C,H1*%
X329000000Y-225000000D03*
%TD*%
D25*
%TO.C,H17*%
X60100000Y-227939000D03*
%TD*%
D20*
%TO.C,H1*%
X338979248Y-194459353D03*
%TD*%
D25*
%TO.C,H51*%
X179100000Y-227939000D03*
%TD*%
%TO.C,H56*%
X197560000Y-227939000D03*
%TD*%
D20*
%TO.C,H1*%
X278693575Y-256000000D03*
%TD*%
%TO.C,H1*%
X103047902Y-275514213D03*
%TD*%
%TO.C,H1*%
X287000000Y-225000000D03*
%TD*%
%TO.C,H1*%
X151589637Y-205329753D03*
%TD*%
%TO.C,H1*%
X285294854Y-178734131D03*
%TD*%
%TO.C,H1*%
X343000000Y-225000000D03*
%TD*%
D25*
%TO.C,H42*%
X148560000Y-227939000D03*
%TD*%
D43*
%TO.C,IC1*%
X192499452Y-240348000D03*
X192499452Y-240848000D03*
X192499452Y-241348000D03*
X192499452Y-241848000D03*
X192499452Y-242348000D03*
X192499452Y-242848000D03*
X192499452Y-243348000D03*
X192499452Y-243848000D03*
X192499452Y-244348000D03*
X192499452Y-244848000D03*
X192499452Y-245348000D03*
X192499452Y-245848000D03*
D44*
X193911952Y-247260500D03*
X194411952Y-247260500D03*
X194911952Y-247260500D03*
X195411952Y-247260500D03*
X195911952Y-247260500D03*
X196411952Y-247260500D03*
X196911952Y-247260500D03*
X197411952Y-247260500D03*
X197911952Y-247260500D03*
X198411952Y-247260500D03*
X198911952Y-247260500D03*
X199411952Y-247260500D03*
D43*
X200824452Y-245848000D03*
X200824452Y-245348000D03*
X200824452Y-244848000D03*
X200824452Y-244348000D03*
X200824452Y-243848000D03*
X200824452Y-243348000D03*
X200824452Y-242848000D03*
X200824452Y-242348000D03*
X200824452Y-241848000D03*
X200824452Y-241348000D03*
X200824452Y-240848000D03*
X200824452Y-240348000D03*
D44*
X199411952Y-238935500D03*
X198911952Y-238935500D03*
X198411952Y-238935500D03*
X197911952Y-238935500D03*
X197411952Y-238935500D03*
X196911952Y-238935500D03*
X196411952Y-238935500D03*
X195911952Y-238935500D03*
X195411952Y-238935500D03*
X194911952Y-238935500D03*
X194411952Y-238935500D03*
X193911952Y-238935500D03*
%TD*%
D45*
%TO.C,J11*%
X260000000Y-212000000D03*
D46*
X260000000Y-206920000D03*
%TD*%
%LPD*%
M02*
