%TF.GenerationSoftware,KiCad,Pcbnew,7.0.8*%
%TF.CreationDate,2023-11-15T16:38:26+01:00*%
%TF.ProjectId,main_board_new-3.2,6d61696e-5f62-46f6-9172-645f6e65772d,rev?*%
%TF.SameCoordinates,Original*%
%TF.FileFunction,Soldermask,Bot*%
%TF.FilePolarity,Negative*%
%FSLAX46Y46*%
G04 Gerber Fmt 4.6, Leading zero omitted, Abs format (unit mm)*
G04 Created by KiCad (PCBNEW 7.0.8) date 2023-11-15 16:38:26*
%MOMM*%
%LPD*%
G01*
G04 APERTURE LIST*
G04 Aperture macros list*
%AMRoundRect*
0 Rectangle with rounded corners*
0 $1 Rounding radius*
0 $2 $3 $4 $5 $6 $7 $8 $9 X,Y pos of 4 corners*
0 Add a 4 corners polygon primitive as box body*
4,1,4,$2,$3,$4,$5,$6,$7,$8,$9,$2,$3,0*
0 Add four circle primitives for the rounded corners*
1,1,$1+$1,$2,$3*
1,1,$1+$1,$4,$5*
1,1,$1+$1,$6,$7*
1,1,$1+$1,$8,$9*
0 Add four rect primitives between the rounded corners*
20,1,$1+$1,$2,$3,$4,$5,0*
20,1,$1+$1,$4,$5,$6,$7,0*
20,1,$1+$1,$6,$7,$8,$9,0*
20,1,$1+$1,$8,$9,$2,$3,0*%
G04 Aperture macros list end*
%ADD10C,0.780999*%
%ADD11RoundRect,0.102000X0.684000X0.684000X-0.684000X0.684000X-0.684000X-0.684000X0.684000X-0.684000X0*%
%ADD12C,1.572000*%
%ADD13C,3.800000*%
%ADD14C,3.200000*%
%ADD15C,2.000000*%
%ADD16R,1.700000X1.700000*%
%ADD17O,1.700000X1.700000*%
%ADD18RoundRect,0.135000X-0.185000X0.135000X-0.185000X-0.135000X0.185000X-0.135000X0.185000X0.135000X0*%
%ADD19RoundRect,0.135000X0.185000X-0.135000X0.185000X0.135000X-0.185000X0.135000X-0.185000X-0.135000X0*%
%ADD20R,2.600000X2.600000*%
%ADD21C,2.600000*%
%ADD22RoundRect,0.197500X0.197500X0.632500X-0.197500X0.632500X-0.197500X-0.632500X0.197500X-0.632500X0*%
G04 APERTURE END LIST*
%TO.C,J10*%
D10*
X213960499Y-184521000D02*
G75*
G03*
X213960499Y-184521000I-390499J0D01*
G01*
X213960499Y-187061000D02*
G75*
G03*
X213960499Y-187061000I-390499J0D01*
G01*
X213960499Y-189601000D02*
G75*
G03*
X213960499Y-189601000I-390499J0D01*
G01*
X213960499Y-192141000D02*
G75*
G03*
X213960499Y-192141000I-390499J0D01*
G01*
X213960499Y-194681000D02*
G75*
G03*
X213960499Y-194681000I-390499J0D01*
G01*
X213960499Y-197221000D02*
G75*
G03*
X213960499Y-197221000I-390499J0D01*
G01*
X213960499Y-199761000D02*
G75*
G03*
X213960499Y-199761000I-390499J0D01*
G01*
X213960499Y-202301000D02*
G75*
G03*
X213960499Y-202301000I-390499J0D01*
G01*
%TO.C,J9*%
X236820499Y-184521000D02*
G75*
G03*
X236820499Y-184521000I-390499J0D01*
G01*
X236820499Y-187061000D02*
G75*
G03*
X236820499Y-187061000I-390499J0D01*
G01*
X236820499Y-189601000D02*
G75*
G03*
X236820499Y-189601000I-390499J0D01*
G01*
X236820499Y-192141000D02*
G75*
G03*
X236820499Y-192141000I-390499J0D01*
G01*
X236820499Y-194681000D02*
G75*
G03*
X236820499Y-194681000I-390499J0D01*
G01*
X236820499Y-197221000D02*
G75*
G03*
X236820499Y-197221000I-390499J0D01*
G01*
X236820499Y-199761000D02*
G75*
G03*
X236820499Y-199761000I-390499J0D01*
G01*
X236820499Y-202301000D02*
G75*
G03*
X236820499Y-202301000I-390499J0D01*
G01*
%TD*%
D11*
%TO.C,J7*%
X239800000Y-229000000D03*
D12*
X242340000Y-229000000D03*
X244880000Y-229000000D03*
X247420000Y-229000000D03*
%TD*%
D13*
%TO.C,H1*%
X338979248Y-255540647D03*
%TD*%
D14*
%TO.C,H60*%
X268840620Y-268840620D03*
%TD*%
D13*
%TO.C,H1*%
X314230038Y-236747357D03*
%TD*%
%TO.C,H1*%
X97497791Y-190835886D03*
%TD*%
%TO.C,H1*%
X328110266Y-211425276D03*
%TD*%
%TO.C,H1*%
X56928906Y-179965486D03*
%TD*%
%TO.C,H1*%
X80249050Y-244056824D03*
%TD*%
%TO.C,H1*%
X147057714Y-180000000D03*
%TD*%
%TO.C,H1*%
X346952098Y-275514213D03*
%TD*%
D15*
%TO.C,H45*%
X158100000Y-227939000D03*
%TD*%
%TO.C,H23*%
X81100000Y-227939000D03*
%TD*%
D14*
%TO.C,H60*%
X268840620Y-181159380D03*
%TD*%
D13*
%TO.C,H1*%
X124543714Y-198082819D03*
%TD*%
%TO.C,H1*%
X397511406Y-247711557D03*
%TD*%
%TO.C,H1*%
X128916529Y-264799077D03*
%TD*%
%TO.C,H1*%
X171306425Y-256000000D03*
%TD*%
%TO.C,H1*%
X355870722Y-242229457D03*
%TD*%
%TO.C,H1*%
X334017785Y-179843355D03*
%TD*%
%TO.C,H1*%
X141850842Y-190558491D03*
%TD*%
D15*
%TO.C,H57*%
X200100000Y-227939000D03*
%TD*%
D13*
%TO.C,H1*%
X121889734Y-238574724D03*
%TD*%
D14*
%TO.C,H60*%
X181159380Y-268840620D03*
%TD*%
D13*
%TO.C,H1*%
X154785156Y-195916059D03*
%TD*%
D15*
%TO.C,H18*%
X64560000Y-227939000D03*
%TD*%
D13*
%TO.C,H1*%
X66368822Y-204115809D03*
%TD*%
%TO.C,H1*%
X385000000Y-225000000D03*
%TD*%
%TO.C,H1*%
X159182069Y-187000000D03*
%TD*%
%TO.C,H1*%
X302942286Y-270000000D03*
%TD*%
D11*
%TO.C,J8*%
X399820000Y-229000000D03*
D12*
X402360000Y-229000000D03*
X404900000Y-229000000D03*
X407440000Y-229000000D03*
%TD*%
D15*
%TO.C,H36*%
X127560000Y-227939000D03*
%TD*%
D13*
%TO.C,H1*%
X284887401Y-208953219D03*
%TD*%
%TO.C,H1*%
X128916529Y-185200923D03*
%TD*%
%TO.C,H1*%
X366025171Y-187212419D03*
%TD*%
D15*
%TO.C,H15*%
X53100000Y-227939000D03*
%TD*%
D13*
%TO.C,H1*%
X357000000Y-225000000D03*
%TD*%
%TO.C,H1*%
X154785156Y-254083941D03*
%TD*%
D15*
%TO.C,H21*%
X74100000Y-227939000D03*
%TD*%
%TO.C,H28*%
X99560000Y-227939000D03*
%TD*%
D13*
%TO.C,H1*%
X83974829Y-187212419D03*
%TD*%
%TO.C,H1*%
X383631178Y-245884191D03*
%TD*%
D15*
%TO.C,H54*%
X190560000Y-227939000D03*
%TD*%
D13*
%TO.C,H1*%
X371000000Y-225000000D03*
%TD*%
D15*
%TO.C,H12*%
X43560000Y-227939000D03*
%TD*%
D13*
%TO.C,H1*%
X393071094Y-270034514D03*
%TD*%
D15*
%TO.C,H46*%
X162560000Y-227939000D03*
%TD*%
%TO.C,H16*%
X57560000Y-227939000D03*
%TD*%
D13*
%TO.C,H1*%
X165112599Y-208953219D03*
%TD*%
D15*
%TO.C,H14*%
X50560000Y-227939000D03*
%TD*%
D13*
%TO.C,H1*%
X328110266Y-238574724D03*
%TD*%
D15*
%TO.C,H26*%
X92560000Y-227939000D03*
%TD*%
D13*
%TO.C,H1*%
X352502209Y-259164114D03*
%TD*%
D15*
%TO.C,H22*%
X78560000Y-227939000D03*
%TD*%
%TO.C,H43*%
X151100000Y-227939000D03*
%TD*%
D13*
%TO.C,H1*%
X300349809Y-215080009D03*
%TD*%
%TO.C,H1*%
X124543714Y-251917181D03*
%TD*%
%TO.C,H1*%
X121889734Y-211425276D03*
%TD*%
%TO.C,H1*%
X103047902Y-174485787D03*
%TD*%
%TO.C,H1*%
X115982215Y-270156645D03*
%TD*%
%TO.C,H1*%
X301000000Y-225000000D03*
%TD*%
%TO.C,H1*%
X399000000Y-225000000D03*
%TD*%
%TO.C,H1*%
X308149158Y-259441509D03*
%TD*%
%TO.C,H1*%
X159182069Y-263000000D03*
%TD*%
D15*
%TO.C,H34*%
X120560000Y-227939000D03*
%TD*%
D13*
%TO.C,H1*%
X366025171Y-262787581D03*
%TD*%
D15*
%TO.C,H48*%
X169560000Y-227939000D03*
%TD*%
%TO.C,H31*%
X109100000Y-227939000D03*
%TD*%
D13*
%TO.C,H1*%
X295214844Y-254083941D03*
%TD*%
%TO.C,H1*%
X369750950Y-244056824D03*
%TD*%
%TO.C,H1*%
X149650191Y-215080009D03*
%TD*%
%TO.C,H1*%
X284887401Y-241046781D03*
%TD*%
D15*
%TO.C,H37*%
X130100000Y-227939000D03*
%TD*%
D13*
%TO.C,H1*%
X138066676Y-248293714D03*
%TD*%
%TO.C,H1*%
X298410363Y-244670247D03*
%TD*%
D15*
%TO.C,H47*%
X165100000Y-227939000D03*
%TD*%
D13*
%TO.C,H1*%
X311933324Y-248293714D03*
%TD*%
%TO.C,H1*%
X165112599Y-241046781D03*
%TD*%
%TO.C,H1*%
X115982215Y-179843355D03*
%TD*%
%TO.C,H1*%
X141850842Y-259441509D03*
%TD*%
%TO.C,H1*%
X97497791Y-259164114D03*
%TD*%
%TO.C,H1*%
X52488594Y-202288443D03*
%TD*%
%TO.C,H1*%
X314230038Y-213252643D03*
%TD*%
%TO.C,H1*%
X341990494Y-209597909D03*
%TD*%
D15*
%TO.C,H33*%
X116100000Y-227939000D03*
%TD*%
%TO.C,H44*%
X155560000Y-227939000D03*
%TD*%
D13*
%TO.C,H1*%
X52488594Y-247711557D03*
%TD*%
%TO.C,H1*%
X70451868Y-266411047D03*
%TD*%
D15*
%TO.C,H49*%
X172100000Y-227939000D03*
%TD*%
%TO.C,H20*%
X71560000Y-227939000D03*
%TD*%
%TO.C,H58*%
X204560000Y-227939000D03*
%TD*%
D13*
%TO.C,H1*%
X285294854Y-271265869D03*
%TD*%
%TO.C,H1*%
X164705146Y-271265869D03*
%TD*%
%TO.C,H1*%
X308149158Y-190558491D03*
%TD*%
%TO.C,H1*%
X80249050Y-205943176D03*
%TD*%
%TO.C,H1*%
X135769962Y-236747357D03*
%TD*%
%TO.C,H1*%
X108009506Y-209597909D03*
%TD*%
%TO.C,H1*%
X341990494Y-240402091D03*
%TD*%
%TO.C,H1*%
X379548132Y-183588953D03*
%TD*%
%TO.C,H1*%
X321083471Y-264799077D03*
%TD*%
%TO.C,H1*%
X83974829Y-262787581D03*
%TD*%
D15*
%TO.C,H25*%
X88100000Y-227939000D03*
%TD*%
D13*
%TO.C,H1*%
X111020752Y-255540647D03*
%TD*%
%TO.C,H1*%
X290817931Y-263000000D03*
%TD*%
D16*
%TO.C,J1*%
X243528000Y-237215000D03*
D17*
X243528000Y-239755000D03*
X243528000Y-242295000D03*
X243528000Y-244835000D03*
%TD*%
D13*
%TO.C,H1*%
X138066676Y-201706286D03*
%TD*%
D15*
%TO.C,H24*%
X85560000Y-227939000D03*
%TD*%
%TO.C,H40*%
X141560000Y-227939000D03*
%TD*%
D13*
%TO.C,H1*%
X149650191Y-234919991D03*
%TD*%
%TO.C,H1*%
X151589637Y-244670247D03*
%TD*%
%TO.C,H1*%
X56928906Y-270034514D03*
%TD*%
D15*
%TO.C,H50*%
X176560000Y-227939000D03*
%TD*%
D13*
%TO.C,H1*%
X315000000Y-225000000D03*
%TD*%
%TO.C,H1*%
X94129278Y-242229457D03*
%TD*%
%TO.C,H1*%
X325456286Y-198082819D03*
%TD*%
D15*
%TO.C,H35*%
X123100000Y-227939000D03*
%TD*%
D13*
%TO.C,H1*%
X355870722Y-207770543D03*
%TD*%
D15*
%TO.C,H41*%
X144100000Y-227939000D03*
%TD*%
D13*
%TO.C,H1*%
X278693575Y-194000000D03*
%TD*%
%TO.C,H1*%
X290817931Y-187000000D03*
%TD*%
%TO.C,H1*%
X346952098Y-174485787D03*
%TD*%
D15*
%TO.C,H29*%
X102100000Y-227939000D03*
%TD*%
%TO.C,H13*%
X46100000Y-227939000D03*
%TD*%
D13*
%TO.C,H1*%
X383631178Y-204115809D03*
%TD*%
%TO.C,H1*%
X66368822Y-245884191D03*
%TD*%
D15*
%TO.C,H38*%
X134560000Y-227939000D03*
%TD*%
D13*
%TO.C,H1*%
X300349809Y-234919991D03*
%TD*%
%TO.C,H1*%
X111020752Y-194459353D03*
%TD*%
D15*
%TO.C,H53*%
X186100000Y-227939000D03*
%TD*%
D11*
%TO.C,J6*%
X399820000Y-221000000D03*
D12*
X402360000Y-221000000D03*
X404900000Y-221000000D03*
X407440000Y-221000000D03*
%TD*%
D13*
%TO.C,H1*%
X369750950Y-205943176D03*
%TD*%
%TO.C,H1*%
X164705146Y-178734131D03*
%TD*%
%TO.C,H1*%
X393071094Y-179965486D03*
%TD*%
D15*
%TO.C,H55*%
X193100000Y-227939000D03*
%TD*%
D13*
%TO.C,H1*%
X397511406Y-202288443D03*
%TD*%
D15*
%TO.C,H59*%
X207100000Y-227939000D03*
%TD*%
D13*
%TO.C,H1*%
X171306425Y-194000000D03*
%TD*%
%TO.C,H1*%
X147057714Y-270000000D03*
%TD*%
D14*
%TO.C,H60*%
X181159380Y-181159380D03*
%TD*%
D13*
%TO.C,H1*%
X295214844Y-195916059D03*
%TD*%
%TO.C,H1*%
X302942286Y-180000000D03*
%TD*%
D15*
%TO.C,H19*%
X67100000Y-227939000D03*
%TD*%
D13*
%TO.C,H1*%
X352502209Y-190835886D03*
%TD*%
%TO.C,H1*%
X135769962Y-213252643D03*
%TD*%
%TO.C,H1*%
X379548132Y-266411047D03*
%TD*%
%TO.C,H1*%
X321083471Y-185200923D03*
%TD*%
%TO.C,H1*%
X334017785Y-270156645D03*
%TD*%
D15*
%TO.C,H27*%
X95100000Y-227939000D03*
%TD*%
%TO.C,H39*%
X137100000Y-227939000D03*
%TD*%
D11*
%TO.C,J5*%
X239800000Y-221000000D03*
D12*
X242340000Y-221000000D03*
X244880000Y-221000000D03*
X247420000Y-221000000D03*
%TD*%
D13*
%TO.C,H1*%
X298410363Y-205329753D03*
%TD*%
%TO.C,H1*%
X94129278Y-207770543D03*
%TD*%
%TO.C,H1*%
X108009506Y-240402091D03*
%TD*%
%TO.C,H1*%
X311933324Y-201706286D03*
%TD*%
%TO.C,H1*%
X325456286Y-251917181D03*
%TD*%
%TO.C,H1*%
X70451868Y-183588953D03*
%TD*%
D15*
%TO.C,H32*%
X113560000Y-227939000D03*
%TD*%
%TO.C,H52*%
X183560000Y-227939000D03*
%TD*%
%TO.C,H30*%
X106560000Y-227939000D03*
%TD*%
D13*
%TO.C,H1*%
X329000000Y-225000000D03*
%TD*%
D15*
%TO.C,H17*%
X60100000Y-227939000D03*
%TD*%
D13*
%TO.C,H1*%
X338979248Y-194459353D03*
%TD*%
D15*
%TO.C,H51*%
X179100000Y-227939000D03*
%TD*%
%TO.C,H56*%
X197560000Y-227939000D03*
%TD*%
D13*
%TO.C,H1*%
X278693575Y-256000000D03*
%TD*%
%TO.C,H1*%
X103047902Y-275514213D03*
%TD*%
%TO.C,H1*%
X287000000Y-225000000D03*
%TD*%
%TO.C,H1*%
X151589637Y-205329753D03*
%TD*%
%TO.C,H1*%
X285294854Y-178734131D03*
%TD*%
%TO.C,H1*%
X343000000Y-225000000D03*
%TD*%
D15*
%TO.C,H42*%
X148560000Y-227939000D03*
%TD*%
D18*
%TO.C,R2*%
X307221998Y-232124998D03*
X307221998Y-233144998D03*
%TD*%
D19*
%TO.C,R1*%
X309074000Y-233130000D03*
X309074000Y-232110000D03*
%TD*%
D20*
%TO.C,J11*%
X260000000Y-212000000D03*
D21*
X260000000Y-206920000D03*
%TD*%
D22*
%TO.C,U35*%
X308958000Y-223000000D03*
X308958000Y-227000000D03*
X307158000Y-227000000D03*
X307158000Y-223000000D03*
%TD*%
M02*
