M48
; DRILL file {KiCad 7.0.8} date Mi 15 Nov 2023 16:38:26 CET
; FORMAT={-:-/ absolute / inch / decimal}
; #@! TF.CreationDate,2023-11-15T16:38:26+01:00
; #@! TF.GenerationSoftware,Kicad,Pcbnew,7.0.8
; #@! TF.FileFunction,Plated,1,4,PTH
FMAT,2
INCH
; #@! TA.AperFunction,Plated,PTH,ViaDrill
T1C0.0118
; #@! TA.AperFunction,Plated,PTH,ViaDrill
T2C0.0157
; #@! TA.AperFunction,Plated,PTH,ViaDrill
T3C0.0236
; #@! TA.AperFunction,Plated,PTH,ComponentDrill
T4C0.0236
; #@! TA.AperFunction,Plated,PTH,ComponentDrill
T5C0.0339
; #@! TA.AperFunction,Plated,PTH,ComponentDrill
T6C0.0339
; #@! TA.AperFunction,Plated,PTH,ComponentDrill
T7C0.0394
; #@! TA.AperFunction,Plated,PTH,ComponentDrill
T8C0.0512
; #@! TA.AperFunction,Plated,PTH,ComponentDrill
T9C0.0610
; #@! TA.AperFunction,Plated,PTH,ComponentDrill
T10C0.0866
%
G90
G05
T1
X7.8689Y-10.1817
X7.8689Y-10.2317
X7.8689Y-10.2817
X7.8689Y-10.3317
X7.8689Y-10.3817
X7.8689Y-10.4317
X7.8689Y-10.4817
X7.8689Y-10.5317
X7.8689Y-10.5817
X7.8689Y-10.6317
X7.8689Y-10.6817
X7.8689Y-10.7317
X7.8689Y-10.7817
X7.8689Y-10.8317
X7.8689Y-10.8817
X7.8689Y-10.9317
X7.9069Y-10.1567
X7.9569Y-10.1567
X8.0069Y-10.1567
X8.0569Y-10.1567
X8.1069Y-10.1567
X8.1569Y-10.1567
X8.2069Y-10.1567
X8.2569Y-10.1567
X8.3069Y-10.1567
X8.3569Y-10.1567
X8.3989Y-10.0157
X8.4069Y-10.1567
X8.4569Y-10.1567
X8.5069Y-10.1567
X8.5569Y-10.1567
X8.6069Y-10.1567
X8.6569Y-10.1567
X8.7069Y-10.1567
X8.7569Y-10.1567
X8.8069Y-10.1567
X8.8569Y-10.1567
X8.9069Y-10.1567
X8.9569Y-10.1567
X9.0069Y-10.1567
X9.0569Y-10.1567
X9.1069Y-10.1567
X9.1569Y-10.1567
X9.2069Y-10.1567
X9.2569Y-10.1567
X9.3069Y-10.1567
X9.3569Y-10.1567
X9.4069Y-10.1567
X9.4569Y-10.1567
X9.5069Y-10.1567
X9.5569Y-10.1567
X9.6069Y-10.1567
X9.6569Y-10.1567
X9.7069Y-10.1567
X9.7569Y-10.1567
X9.7929Y-10.1797
X9.7929Y-10.2297
X9.7929Y-10.2797
X9.7929Y-10.3297
X9.7929Y-10.3797
X9.7929Y-10.4297
X9.7929Y-10.4797
X9.7929Y-10.5297
X9.7929Y-10.5797
X9.7929Y-10.6297
X9.7929Y-10.6797
X9.7929Y-10.7297
X9.7929Y-10.7797
X9.7929Y-10.8297
X9.7929Y-10.8797
X9.7929Y-10.9297
T2
X7.1833Y-9.5833
X7.2383Y-9.6133
X7.2478Y-9.5487
X7.2933Y-9.6393
X7.3013Y-9.5263
X7.3453Y-9.6673
X7.3523Y-9.4983
X7.4023Y-9.6923
X7.4043Y-9.4723
X7.4513Y-9.7213
X7.4543Y-9.4443
X7.5063Y-9.4163
X7.6359Y-9.8007
X7.6835Y-9.6787
X7.7229Y-9.6792
X7.841Y-9.8023
X7.9631Y-9.7243
X8.0182Y-9.7007
X8.0709Y-9.6771
X8.1209Y-9.6495
X8.1709Y-9.6204
X8.2209Y-9.5854
X8.2609Y-8.8037
X8.2611Y-8.764
X8.2741Y-9.5571
X8.3023Y-8.9893
X8.3253Y-9.5235
X8.3688Y-8.7304
X8.3714Y-9.0404
X8.5938Y-9.0404
X8.6553Y-7.7193
X8.8063Y-7.8023
X8.8483Y-9.0483
X8.8483Y-9.1543
X8.9783Y-8.8583
X9.0733Y-9.0477
X9.3889Y-9.1489
X9.3894Y-9.1883
X9.4059Y-10.0109
X12.1333Y-9.2483
T3
X9.7209Y-8.1357
X9.7209Y-8.1817
T4
X8.8352Y-9.7539
X8.8352Y-9.8091
X8.8352Y-9.8642
X8.8903Y-9.7539
X8.8903Y-9.8091
X8.8903Y-9.8642
X8.9454Y-9.7539
X8.9454Y-9.8091
X8.9454Y-9.8642
T5
X8.4083Y-7.2646
X8.4083Y-7.3646
X8.4083Y-7.4646
X8.4083Y-7.5646
X8.4083Y-7.6646
X8.4083Y-7.7646
X8.4083Y-7.8646
X8.4083Y-7.9646
X9.3083Y-7.2646
X9.3083Y-7.3646
X9.3083Y-7.4646
X9.3083Y-7.5646
X9.3083Y-7.6646
X9.3083Y-7.7646
X9.3083Y-7.8646
X9.3083Y-7.9646
T6
X9.4409Y-8.7008
X9.4409Y-9.0157
X9.5409Y-8.7008
X9.5409Y-9.0157
X9.6409Y-8.7008
X9.6409Y-9.0157
X9.7409Y-8.7008
X9.7409Y-9.0157
X15.7409Y-8.7008
X15.7409Y-9.0157
X15.8409Y-8.7008
X15.8409Y-9.0157
X15.9409Y-8.7008
X15.9409Y-9.0157
X16.0409Y-8.7008
X16.0409Y-9.0157
T7
X9.5877Y-9.3392
X9.5877Y-9.4392
X9.5877Y-9.5392
X9.5877Y-9.6392
T8
X10.2362Y-8.1465
X10.2362Y-8.3465
T9
X1.715Y-8.974
X1.815Y-8.974
X1.9906Y-8.974
X2.0906Y-8.974
X2.2661Y-8.974
X2.3661Y-8.974
X2.5417Y-8.974
X2.6417Y-8.974
X2.8173Y-8.974
X2.9173Y-8.974
X3.0929Y-8.974
X3.1929Y-8.974
X3.3685Y-8.974
X3.4685Y-8.974
X3.6441Y-8.974
X3.7441Y-8.974
X3.9197Y-8.974
X4.0197Y-8.974
X4.1953Y-8.974
X4.2953Y-8.974
X4.4709Y-8.974
X4.5709Y-8.974
X4.7465Y-8.974
X4.8465Y-8.974
X5.022Y-8.974
X5.122Y-8.974
X5.2976Y-8.974
X5.3976Y-8.974
X5.5732Y-8.974
X5.6732Y-8.974
X5.8488Y-8.974
X5.9488Y-8.974
X6.1244Y-8.974
X6.2244Y-8.974
X6.4Y-8.974
X6.5Y-8.974
X6.6756Y-8.974
X6.7756Y-8.974
X6.9512Y-8.974
X7.0512Y-8.974
X7.2268Y-8.974
X7.3268Y-8.974
X7.5024Y-8.974
X7.6024Y-8.974
X7.778Y-8.974
X7.878Y-8.974
X8.0535Y-8.974
X8.1535Y-8.974
T10
X2.0665Y-7.9641
X2.0665Y-9.7524
X2.2413Y-7.0853
X2.2413Y-10.6313
X2.6129Y-8.0361
X2.6129Y-9.6805
X2.7737Y-7.2279
X2.7737Y-10.4886
X3.1594Y-8.108
X3.1594Y-9.6085
X3.3061Y-7.3706
X3.3061Y-10.346
X3.7059Y-8.1799
X3.7059Y-9.5366
X3.8385Y-7.5132
X3.8385Y-10.2033
X4.057Y-6.8695
X4.057Y-10.847
X4.2523Y-8.2519
X4.2523Y-9.4646
X4.3709Y-7.6559
X4.3709Y-10.0607
X4.5662Y-7.0804
X4.5662Y-10.6361
X4.7988Y-8.3238
X4.7988Y-9.3927
X4.9033Y-7.7985
X4.9033Y-9.918
X5.0755Y-7.2914
X5.0755Y-10.4252
X5.3453Y-8.3958
X5.3453Y-9.3208
X5.4357Y-7.9412
X5.4357Y-9.7753
X5.5847Y-7.5023
X5.5847Y-10.2142
X5.7897Y-7.0866
X5.7897Y-10.6299
X5.8917Y-8.4677
X5.8917Y-9.2488
X5.9681Y-8.0838
X5.9681Y-9.6327
X6.0939Y-7.7132
X6.0939Y-10.0033
X6.267Y-7.3622
X6.267Y-10.3543
X6.4845Y-7.0368
X6.4845Y-10.6798
X6.5005Y-8.2265
X6.5005Y-9.49
X6.7443Y-7.6378
X6.7443Y-10.0787
X10.9722Y-7.6378
X10.9722Y-10.0787
X11.216Y-8.2265
X11.216Y-9.49
X11.2321Y-7.0368
X11.2321Y-10.6798
X11.2992Y-8.8583
X11.4495Y-7.3622
X11.4495Y-10.3543
X11.6226Y-7.7132
X11.6226Y-10.0033
X11.7484Y-8.0838
X11.7484Y-9.6327
X11.8248Y-8.4677
X11.8248Y-9.2488
X11.8504Y-8.8583
X11.9269Y-7.0866
X11.9269Y-10.6299
X12.1319Y-7.5023
X12.1319Y-10.2142
X12.2808Y-7.9412
X12.2808Y-9.7753
X12.3713Y-8.3958
X12.3713Y-9.3208
X12.4016Y-8.8583
X12.6411Y-7.2914
X12.6411Y-10.4252
X12.8132Y-7.7985
X12.8132Y-9.918
X12.9177Y-8.3238
X12.9177Y-9.3927
X12.9528Y-8.8583
X13.1503Y-7.0804
X13.1503Y-10.6361
X13.3456Y-7.6559
X13.3456Y-10.0607
X13.4642Y-8.2519
X13.4642Y-9.4646
X13.5039Y-8.8583
X13.6595Y-6.8695
X13.6595Y-10.847
X13.878Y-7.5132
X13.878Y-10.2033
X14.0107Y-8.1799
X14.0107Y-9.5366
X14.0551Y-8.8583
X14.4104Y-7.3706
X14.4104Y-10.346
X14.5571Y-8.108
X14.5571Y-9.6085
X14.6063Y-8.8583
X14.9428Y-7.2279
X14.9428Y-10.4886
X15.1036Y-8.0361
X15.1036Y-9.6805
X15.1575Y-8.8583
X15.4752Y-7.0853
X15.4752Y-10.6313
X15.6501Y-7.9641
X15.6501Y-9.7524
X15.7087Y-8.8583
T0
M30
