%TF.GenerationSoftware,KiCad,Pcbnew,7.0.8*%
%TF.CreationDate,2023-11-15T20:37:27+01:00*%
%TF.ProjectId,main_board_4_jlc-3.2,6d61696e-5f62-46f6-9172-645f345f6a6c,rev?*%
%TF.SameCoordinates,Original*%
%TF.FileFunction,Other,Comment*%
%FSLAX46Y46*%
G04 Gerber Fmt 4.6, Leading zero omitted, Abs format (unit mm)*
G04 Created by KiCad (PCBNEW 7.0.8) date 2023-11-15 20:37:27*
%MOMM*%
%LPD*%
G01*
G04 APERTURE LIST*
%ADD10C,0.150000*%
G04 APERTURE END LIST*
D10*
X214179142Y-272145438D02*
X214179142Y-270145438D01*
X215321999Y-272145438D02*
X214464856Y-271002580D01*
X215321999Y-270145438D02*
X214179142Y-271288295D01*
X216179142Y-271097819D02*
X216845809Y-271097819D01*
X217131523Y-272145438D02*
X216179142Y-272145438D01*
X216179142Y-272145438D02*
X216179142Y-270145438D01*
X216179142Y-270145438D02*
X217131523Y-270145438D01*
X217988666Y-271097819D02*
X218655333Y-271097819D01*
X218941047Y-272145438D02*
X217988666Y-272145438D01*
X217988666Y-272145438D02*
X217988666Y-270145438D01*
X217988666Y-270145438D02*
X218941047Y-270145438D01*
X219798190Y-272145438D02*
X219798190Y-270145438D01*
X219798190Y-270145438D02*
X220560095Y-270145438D01*
X220560095Y-270145438D02*
X220750571Y-270240676D01*
X220750571Y-270240676D02*
X220845809Y-270335914D01*
X220845809Y-270335914D02*
X220941047Y-270526390D01*
X220941047Y-270526390D02*
X220941047Y-270812104D01*
X220941047Y-270812104D02*
X220845809Y-271002580D01*
X220845809Y-271002580D02*
X220750571Y-271097819D01*
X220750571Y-271097819D02*
X220560095Y-271193057D01*
X220560095Y-271193057D02*
X219798190Y-271193057D01*
X221798190Y-271383533D02*
X223322000Y-271383533D01*
X224655332Y-270145438D02*
X225036285Y-270145438D01*
X225036285Y-270145438D02*
X225226761Y-270240676D01*
X225226761Y-270240676D02*
X225417237Y-270431152D01*
X225417237Y-270431152D02*
X225512475Y-270812104D01*
X225512475Y-270812104D02*
X225512475Y-271478771D01*
X225512475Y-271478771D02*
X225417237Y-271859723D01*
X225417237Y-271859723D02*
X225226761Y-272050200D01*
X225226761Y-272050200D02*
X225036285Y-272145438D01*
X225036285Y-272145438D02*
X224655332Y-272145438D01*
X224655332Y-272145438D02*
X224464856Y-272050200D01*
X224464856Y-272050200D02*
X224274380Y-271859723D01*
X224274380Y-271859723D02*
X224179142Y-271478771D01*
X224179142Y-271478771D02*
X224179142Y-270812104D01*
X224179142Y-270812104D02*
X224274380Y-270431152D01*
X224274380Y-270431152D02*
X224464856Y-270240676D01*
X224464856Y-270240676D02*
X224655332Y-270145438D01*
X226369618Y-270145438D02*
X226369618Y-271764485D01*
X226369618Y-271764485D02*
X226464856Y-271954961D01*
X226464856Y-271954961D02*
X226560094Y-272050200D01*
X226560094Y-272050200D02*
X226750570Y-272145438D01*
X226750570Y-272145438D02*
X227131523Y-272145438D01*
X227131523Y-272145438D02*
X227321999Y-272050200D01*
X227321999Y-272050200D02*
X227417237Y-271954961D01*
X227417237Y-271954961D02*
X227512475Y-271764485D01*
X227512475Y-271764485D02*
X227512475Y-270145438D01*
X228179142Y-270145438D02*
X229321999Y-270145438D01*
X228750570Y-272145438D02*
X228750570Y-270145438D01*
X231322000Y-270145438D02*
X232655333Y-270145438D01*
X232655333Y-270145438D02*
X231322000Y-272145438D01*
X231322000Y-272145438D02*
X232655333Y-272145438D01*
X233798190Y-270145438D02*
X234179143Y-270145438D01*
X234179143Y-270145438D02*
X234369619Y-270240676D01*
X234369619Y-270240676D02*
X234560095Y-270431152D01*
X234560095Y-270431152D02*
X234655333Y-270812104D01*
X234655333Y-270812104D02*
X234655333Y-271478771D01*
X234655333Y-271478771D02*
X234560095Y-271859723D01*
X234560095Y-271859723D02*
X234369619Y-272050200D01*
X234369619Y-272050200D02*
X234179143Y-272145438D01*
X234179143Y-272145438D02*
X233798190Y-272145438D01*
X233798190Y-272145438D02*
X233607714Y-272050200D01*
X233607714Y-272050200D02*
X233417238Y-271859723D01*
X233417238Y-271859723D02*
X233322000Y-271478771D01*
X233322000Y-271478771D02*
X233322000Y-270812104D01*
X233322000Y-270812104D02*
X233417238Y-270431152D01*
X233417238Y-270431152D02*
X233607714Y-270240676D01*
X233607714Y-270240676D02*
X233798190Y-270145438D01*
X235512476Y-272145438D02*
X235512476Y-270145438D01*
X235512476Y-270145438D02*
X236655333Y-272145438D01*
X236655333Y-272145438D02*
X236655333Y-270145438D01*
X237607714Y-271097819D02*
X238274381Y-271097819D01*
X238560095Y-272145438D02*
X237607714Y-272145438D01*
X237607714Y-272145438D02*
X237607714Y-270145438D01*
X237607714Y-270145438D02*
X238560095Y-270145438D01*
X222238095Y-264779104D02*
X222714285Y-264779104D01*
X222142857Y-265064819D02*
X222476190Y-264064819D01*
X222476190Y-264064819D02*
X222809523Y-265064819D01*
X223142857Y-264398152D02*
X223142857Y-265064819D01*
X223142857Y-264493390D02*
X223190476Y-264445771D01*
X223190476Y-264445771D02*
X223285714Y-264398152D01*
X223285714Y-264398152D02*
X223428571Y-264398152D01*
X223428571Y-264398152D02*
X223523809Y-264445771D01*
X223523809Y-264445771D02*
X223571428Y-264541009D01*
X223571428Y-264541009D02*
X223571428Y-265064819D01*
X223904762Y-264398152D02*
X224285714Y-264398152D01*
X224047619Y-264064819D02*
X224047619Y-264921961D01*
X224047619Y-264921961D02*
X224095238Y-265017200D01*
X224095238Y-265017200D02*
X224190476Y-265064819D01*
X224190476Y-265064819D02*
X224285714Y-265064819D01*
X225000000Y-265017200D02*
X224904762Y-265064819D01*
X224904762Y-265064819D02*
X224714286Y-265064819D01*
X224714286Y-265064819D02*
X224619048Y-265017200D01*
X224619048Y-265017200D02*
X224571429Y-264921961D01*
X224571429Y-264921961D02*
X224571429Y-264541009D01*
X224571429Y-264541009D02*
X224619048Y-264445771D01*
X224619048Y-264445771D02*
X224714286Y-264398152D01*
X224714286Y-264398152D02*
X224904762Y-264398152D01*
X224904762Y-264398152D02*
X225000000Y-264445771D01*
X225000000Y-264445771D02*
X225047619Y-264541009D01*
X225047619Y-264541009D02*
X225047619Y-264636247D01*
X225047619Y-264636247D02*
X224571429Y-264731485D01*
X225476191Y-264398152D02*
X225476191Y-265064819D01*
X225476191Y-264493390D02*
X225523810Y-264445771D01*
X225523810Y-264445771D02*
X225619048Y-264398152D01*
X225619048Y-264398152D02*
X225761905Y-264398152D01*
X225761905Y-264398152D02*
X225857143Y-264445771D01*
X225857143Y-264445771D02*
X225904762Y-264541009D01*
X225904762Y-264541009D02*
X225904762Y-265064819D01*
X226380953Y-264398152D02*
X226380953Y-265064819D01*
X226380953Y-264493390D02*
X226428572Y-264445771D01*
X226428572Y-264445771D02*
X226523810Y-264398152D01*
X226523810Y-264398152D02*
X226666667Y-264398152D01*
X226666667Y-264398152D02*
X226761905Y-264445771D01*
X226761905Y-264445771D02*
X226809524Y-264541009D01*
X226809524Y-264541009D02*
X226809524Y-265064819D01*
X227714286Y-265064819D02*
X227714286Y-264541009D01*
X227714286Y-264541009D02*
X227666667Y-264445771D01*
X227666667Y-264445771D02*
X227571429Y-264398152D01*
X227571429Y-264398152D02*
X227380953Y-264398152D01*
X227380953Y-264398152D02*
X227285715Y-264445771D01*
X227714286Y-265017200D02*
X227619048Y-265064819D01*
X227619048Y-265064819D02*
X227380953Y-265064819D01*
X227380953Y-265064819D02*
X227285715Y-265017200D01*
X227285715Y-265017200D02*
X227238096Y-264921961D01*
X227238096Y-264921961D02*
X227238096Y-264826723D01*
X227238096Y-264826723D02*
X227285715Y-264731485D01*
X227285715Y-264731485D02*
X227380953Y-264683866D01*
X227380953Y-264683866D02*
X227619048Y-264683866D01*
X227619048Y-264683866D02*
X227714286Y-264636247D01*
%TO.C,H1*%
X340879248Y-255540647D02*
G75*
G03*
X340879248Y-255540647I-1900000J0D01*
G01*
%TO.C,H60*%
X271640620Y-268840620D02*
G75*
G03*
X271640620Y-268840620I-2800000J0D01*
G01*
%TO.C,H1*%
X316130038Y-236747357D02*
G75*
G03*
X316130038Y-236747357I-1900000J0D01*
G01*
X99397791Y-190835886D02*
G75*
G03*
X99397791Y-190835886I-1900000J0D01*
G01*
X330010266Y-211425276D02*
G75*
G03*
X330010266Y-211425276I-1900000J0D01*
G01*
X58828906Y-179965486D02*
G75*
G03*
X58828906Y-179965486I-1900000J0D01*
G01*
X82149050Y-244056824D02*
G75*
G03*
X82149050Y-244056824I-1900000J0D01*
G01*
X148957714Y-180000000D02*
G75*
G03*
X148957714Y-180000000I-1900000J0D01*
G01*
X348852098Y-275514213D02*
G75*
G03*
X348852098Y-275514213I-1900000J0D01*
G01*
%TO.C,H60*%
X271640620Y-181159380D02*
G75*
G03*
X271640620Y-181159380I-2800000J0D01*
G01*
%TO.C,H1*%
X126443714Y-198082819D02*
G75*
G03*
X126443714Y-198082819I-1900000J0D01*
G01*
X399411406Y-247711557D02*
G75*
G03*
X399411406Y-247711557I-1900000J0D01*
G01*
X130816529Y-264799077D02*
G75*
G03*
X130816529Y-264799077I-1900000J0D01*
G01*
X173206425Y-256000000D02*
G75*
G03*
X173206425Y-256000000I-1900000J0D01*
G01*
X357770722Y-242229457D02*
G75*
G03*
X357770722Y-242229457I-1900000J0D01*
G01*
X335917785Y-179843355D02*
G75*
G03*
X335917785Y-179843355I-1900000J0D01*
G01*
X143750842Y-190558491D02*
G75*
G03*
X143750842Y-190558491I-1900000J0D01*
G01*
X123789734Y-238574724D02*
G75*
G03*
X123789734Y-238574724I-1900000J0D01*
G01*
%TO.C,H60*%
X183959380Y-268840620D02*
G75*
G03*
X183959380Y-268840620I-2800000J0D01*
G01*
%TO.C,H1*%
X156685156Y-195916059D02*
G75*
G03*
X156685156Y-195916059I-1900000J0D01*
G01*
X68268822Y-204115809D02*
G75*
G03*
X68268822Y-204115809I-1900000J0D01*
G01*
X386900000Y-225000000D02*
G75*
G03*
X386900000Y-225000000I-1900000J0D01*
G01*
X161082069Y-187000000D02*
G75*
G03*
X161082069Y-187000000I-1900000J0D01*
G01*
X304842286Y-270000000D02*
G75*
G03*
X304842286Y-270000000I-1900000J0D01*
G01*
X286787401Y-208953219D02*
G75*
G03*
X286787401Y-208953219I-1900000J0D01*
G01*
X130816529Y-185200923D02*
G75*
G03*
X130816529Y-185200923I-1900000J0D01*
G01*
X367925171Y-187212419D02*
G75*
G03*
X367925171Y-187212419I-1900000J0D01*
G01*
X358900000Y-225000000D02*
G75*
G03*
X358900000Y-225000000I-1900000J0D01*
G01*
X156685156Y-254083941D02*
G75*
G03*
X156685156Y-254083941I-1900000J0D01*
G01*
X85874829Y-187212419D02*
G75*
G03*
X85874829Y-187212419I-1900000J0D01*
G01*
X385531178Y-245884191D02*
G75*
G03*
X385531178Y-245884191I-1900000J0D01*
G01*
X372900000Y-225000000D02*
G75*
G03*
X372900000Y-225000000I-1900000J0D01*
G01*
X394971094Y-270034514D02*
G75*
G03*
X394971094Y-270034514I-1900000J0D01*
G01*
X167012599Y-208953219D02*
G75*
G03*
X167012599Y-208953219I-1900000J0D01*
G01*
X330010266Y-238574724D02*
G75*
G03*
X330010266Y-238574724I-1900000J0D01*
G01*
X354402209Y-259164114D02*
G75*
G03*
X354402209Y-259164114I-1900000J0D01*
G01*
X302249809Y-215080009D02*
G75*
G03*
X302249809Y-215080009I-1900000J0D01*
G01*
X126443714Y-251917181D02*
G75*
G03*
X126443714Y-251917181I-1900000J0D01*
G01*
X123789734Y-211425276D02*
G75*
G03*
X123789734Y-211425276I-1900000J0D01*
G01*
X104947902Y-174485787D02*
G75*
G03*
X104947902Y-174485787I-1900000J0D01*
G01*
X117882215Y-270156645D02*
G75*
G03*
X117882215Y-270156645I-1900000J0D01*
G01*
X302900000Y-225000000D02*
G75*
G03*
X302900000Y-225000000I-1900000J0D01*
G01*
X400900000Y-225000000D02*
G75*
G03*
X400900000Y-225000000I-1900000J0D01*
G01*
X310049158Y-259441509D02*
G75*
G03*
X310049158Y-259441509I-1900000J0D01*
G01*
X161082069Y-263000000D02*
G75*
G03*
X161082069Y-263000000I-1900000J0D01*
G01*
X367925171Y-262787581D02*
G75*
G03*
X367925171Y-262787581I-1900000J0D01*
G01*
X297114844Y-254083941D02*
G75*
G03*
X297114844Y-254083941I-1900000J0D01*
G01*
X371650950Y-244056824D02*
G75*
G03*
X371650950Y-244056824I-1900000J0D01*
G01*
X151550191Y-215080009D02*
G75*
G03*
X151550191Y-215080009I-1900000J0D01*
G01*
X286787401Y-241046781D02*
G75*
G03*
X286787401Y-241046781I-1900000J0D01*
G01*
X139966676Y-248293714D02*
G75*
G03*
X139966676Y-248293714I-1900000J0D01*
G01*
X300310363Y-244670247D02*
G75*
G03*
X300310363Y-244670247I-1900000J0D01*
G01*
X313833324Y-248293714D02*
G75*
G03*
X313833324Y-248293714I-1900000J0D01*
G01*
X167012599Y-241046781D02*
G75*
G03*
X167012599Y-241046781I-1900000J0D01*
G01*
X117882215Y-179843355D02*
G75*
G03*
X117882215Y-179843355I-1900000J0D01*
G01*
X143750842Y-259441509D02*
G75*
G03*
X143750842Y-259441509I-1900000J0D01*
G01*
X99397791Y-259164114D02*
G75*
G03*
X99397791Y-259164114I-1900000J0D01*
G01*
X54388594Y-202288443D02*
G75*
G03*
X54388594Y-202288443I-1900000J0D01*
G01*
X316130038Y-213252643D02*
G75*
G03*
X316130038Y-213252643I-1900000J0D01*
G01*
X343890494Y-209597909D02*
G75*
G03*
X343890494Y-209597909I-1900000J0D01*
G01*
X54388594Y-247711557D02*
G75*
G03*
X54388594Y-247711557I-1900000J0D01*
G01*
X72351868Y-266411047D02*
G75*
G03*
X72351868Y-266411047I-1900000J0D01*
G01*
X287194854Y-271265869D02*
G75*
G03*
X287194854Y-271265869I-1900000J0D01*
G01*
X166605146Y-271265869D02*
G75*
G03*
X166605146Y-271265869I-1900000J0D01*
G01*
X310049158Y-190558491D02*
G75*
G03*
X310049158Y-190558491I-1900000J0D01*
G01*
X82149050Y-205943176D02*
G75*
G03*
X82149050Y-205943176I-1900000J0D01*
G01*
X137669962Y-236747357D02*
G75*
G03*
X137669962Y-236747357I-1900000J0D01*
G01*
X109909506Y-209597909D02*
G75*
G03*
X109909506Y-209597909I-1900000J0D01*
G01*
X343890494Y-240402091D02*
G75*
G03*
X343890494Y-240402091I-1900000J0D01*
G01*
X381448132Y-183588953D02*
G75*
G03*
X381448132Y-183588953I-1900000J0D01*
G01*
X322983471Y-264799077D02*
G75*
G03*
X322983471Y-264799077I-1900000J0D01*
G01*
X85874829Y-262787581D02*
G75*
G03*
X85874829Y-262787581I-1900000J0D01*
G01*
X112920752Y-255540647D02*
G75*
G03*
X112920752Y-255540647I-1900000J0D01*
G01*
X292717931Y-263000000D02*
G75*
G03*
X292717931Y-263000000I-1900000J0D01*
G01*
X139966676Y-201706286D02*
G75*
G03*
X139966676Y-201706286I-1900000J0D01*
G01*
X151550191Y-234919991D02*
G75*
G03*
X151550191Y-234919991I-1900000J0D01*
G01*
X153489637Y-244670247D02*
G75*
G03*
X153489637Y-244670247I-1900000J0D01*
G01*
X58828906Y-270034514D02*
G75*
G03*
X58828906Y-270034514I-1900000J0D01*
G01*
X316900000Y-225000000D02*
G75*
G03*
X316900000Y-225000000I-1900000J0D01*
G01*
X96029278Y-242229457D02*
G75*
G03*
X96029278Y-242229457I-1900000J0D01*
G01*
X327356286Y-198082819D02*
G75*
G03*
X327356286Y-198082819I-1900000J0D01*
G01*
X357770722Y-207770543D02*
G75*
G03*
X357770722Y-207770543I-1900000J0D01*
G01*
X280593575Y-194000000D02*
G75*
G03*
X280593575Y-194000000I-1900000J0D01*
G01*
X292717931Y-187000000D02*
G75*
G03*
X292717931Y-187000000I-1900000J0D01*
G01*
X348852098Y-174485787D02*
G75*
G03*
X348852098Y-174485787I-1900000J0D01*
G01*
X385531178Y-204115809D02*
G75*
G03*
X385531178Y-204115809I-1900000J0D01*
G01*
X68268822Y-245884191D02*
G75*
G03*
X68268822Y-245884191I-1900000J0D01*
G01*
X302249809Y-234919991D02*
G75*
G03*
X302249809Y-234919991I-1900000J0D01*
G01*
X112920752Y-194459353D02*
G75*
G03*
X112920752Y-194459353I-1900000J0D01*
G01*
X371650950Y-205943176D02*
G75*
G03*
X371650950Y-205943176I-1900000J0D01*
G01*
X166605146Y-178734131D02*
G75*
G03*
X166605146Y-178734131I-1900000J0D01*
G01*
X394971094Y-179965486D02*
G75*
G03*
X394971094Y-179965486I-1900000J0D01*
G01*
X399411406Y-202288443D02*
G75*
G03*
X399411406Y-202288443I-1900000J0D01*
G01*
X173206425Y-194000000D02*
G75*
G03*
X173206425Y-194000000I-1900000J0D01*
G01*
X148957714Y-270000000D02*
G75*
G03*
X148957714Y-270000000I-1900000J0D01*
G01*
%TO.C,H60*%
X183959380Y-181159380D02*
G75*
G03*
X183959380Y-181159380I-2800000J0D01*
G01*
%TO.C,H1*%
X297114844Y-195916059D02*
G75*
G03*
X297114844Y-195916059I-1900000J0D01*
G01*
X304842286Y-180000000D02*
G75*
G03*
X304842286Y-180000000I-1900000J0D01*
G01*
X354402209Y-190835886D02*
G75*
G03*
X354402209Y-190835886I-1900000J0D01*
G01*
X137669962Y-213252643D02*
G75*
G03*
X137669962Y-213252643I-1900000J0D01*
G01*
X381448132Y-266411047D02*
G75*
G03*
X381448132Y-266411047I-1900000J0D01*
G01*
X322983471Y-185200923D02*
G75*
G03*
X322983471Y-185200923I-1900000J0D01*
G01*
X335917785Y-270156645D02*
G75*
G03*
X335917785Y-270156645I-1900000J0D01*
G01*
X300310363Y-205329753D02*
G75*
G03*
X300310363Y-205329753I-1900000J0D01*
G01*
X96029278Y-207770543D02*
G75*
G03*
X96029278Y-207770543I-1900000J0D01*
G01*
X109909506Y-240402091D02*
G75*
G03*
X109909506Y-240402091I-1900000J0D01*
G01*
X313833324Y-201706286D02*
G75*
G03*
X313833324Y-201706286I-1900000J0D01*
G01*
X327356286Y-251917181D02*
G75*
G03*
X327356286Y-251917181I-1900000J0D01*
G01*
X72351868Y-183588953D02*
G75*
G03*
X72351868Y-183588953I-1900000J0D01*
G01*
X330900000Y-225000000D02*
G75*
G03*
X330900000Y-225000000I-1900000J0D01*
G01*
X340879248Y-194459353D02*
G75*
G03*
X340879248Y-194459353I-1900000J0D01*
G01*
X280593575Y-256000000D02*
G75*
G03*
X280593575Y-256000000I-1900000J0D01*
G01*
X104947902Y-275514213D02*
G75*
G03*
X104947902Y-275514213I-1900000J0D01*
G01*
X288900000Y-225000000D02*
G75*
G03*
X288900000Y-225000000I-1900000J0D01*
G01*
X153489637Y-205329753D02*
G75*
G03*
X153489637Y-205329753I-1900000J0D01*
G01*
X287194854Y-178734131D02*
G75*
G03*
X287194854Y-178734131I-1900000J0D01*
G01*
X344900000Y-225000000D02*
G75*
G03*
X344900000Y-225000000I-1900000J0D01*
G01*
%TD*%
M02*
