%TF.GenerationSoftware,KiCad,Pcbnew,7.0.8*%
%TF.CreationDate,2023-11-15T20:37:27+01:00*%
%TF.ProjectId,main_board_4_jlc-3.2,6d61696e-5f62-46f6-9172-645f345f6a6c,rev?*%
%TF.SameCoordinates,Original*%
%TF.FileFunction,Paste,Top*%
%TF.FilePolarity,Positive*%
%FSLAX46Y46*%
G04 Gerber Fmt 4.6, Leading zero omitted, Abs format (unit mm)*
G04 Created by KiCad (PCBNEW 7.0.8) date 2023-11-15 20:37:27*
%MOMM*%
%LPD*%
G01*
G04 APERTURE LIST*
G04 Aperture macros list*
%AMRoundRect*
0 Rectangle with rounded corners*
0 $1 Rounding radius*
0 $2 $3 $4 $5 $6 $7 $8 $9 X,Y pos of 4 corners*
0 Add a 4 corners polygon primitive as box body*
4,1,4,$2,$3,$4,$5,$6,$7,$8,$9,$2,$3,0*
0 Add four circle primitives for the rounded corners*
1,1,$1+$1,$2,$3*
1,1,$1+$1,$4,$5*
1,1,$1+$1,$6,$7*
1,1,$1+$1,$8,$9*
0 Add four rect primitives between the rounded corners*
20,1,$1+$1,$2,$3,$4,$5,0*
20,1,$1+$1,$4,$5,$6,$7,0*
20,1,$1+$1,$6,$7,$8,$9,0*
20,1,$1+$1,$8,$9,$2,$3,0*%
G04 Aperture macros list end*
%ADD10RoundRect,0.135000X0.185000X-0.135000X0.185000X0.135000X-0.185000X0.135000X-0.185000X-0.135000X0*%
%ADD11R,0.558800X0.254000*%
%ADD12R,0.254000X0.558800*%
%ADD13R,1.500000X0.900000*%
%ADD14R,0.900000X1.500000*%
%ADD15RoundRect,0.140000X-0.170000X0.140000X-0.170000X-0.140000X0.170000X-0.140000X0.170000X0.140000X0*%
%ADD16R,2.000000X1.500000*%
%ADD17R,2.000000X3.800000*%
%ADD18RoundRect,0.140000X0.170000X-0.140000X0.170000X0.140000X-0.170000X0.140000X-0.170000X-0.140000X0*%
%ADD19R,0.900000X1.700000*%
%ADD20RoundRect,0.150000X0.150000X-0.512500X0.150000X0.512500X-0.150000X0.512500X-0.150000X-0.512500X0*%
%ADD21RoundRect,0.250000X0.925000X-0.412500X0.925000X0.412500X-0.925000X0.412500X-0.925000X-0.412500X0*%
%ADD22RoundRect,0.225000X0.250000X-0.225000X0.250000X0.225000X-0.250000X0.225000X-0.250000X-0.225000X0*%
%ADD23RoundRect,0.075000X-0.662500X-0.075000X0.662500X-0.075000X0.662500X0.075000X-0.662500X0.075000X0*%
%ADD24RoundRect,0.075000X-0.075000X-0.662500X0.075000X-0.662500X0.075000X0.662500X-0.075000X0.662500X0*%
G04 APERTURE END LIST*
%TO.C,IC2*%
G36*
X215239471Y-230960679D02*
G01*
X214833063Y-230960679D01*
X214833063Y-231087679D01*
X214680663Y-231087679D01*
X214680671Y-230706679D01*
X215239471Y-230706679D01*
X215239471Y-230960679D01*
G37*
%TD*%
D10*
%TO.C,R14*%
X225200000Y-230080000D03*
X225200000Y-229060000D03*
%TD*%
%TO.C,R13*%
X224120000Y-230080000D03*
X224120000Y-229060000D03*
%TD*%
%TO.C,R12*%
X223040000Y-230080000D03*
X223040000Y-229060000D03*
%TD*%
D11*
%TO.C,IC2*%
X214960071Y-230833679D03*
X214960071Y-230433629D03*
X214960071Y-230033579D03*
X214960071Y-229633529D03*
X214960071Y-229233479D03*
D12*
X214335071Y-229258579D03*
D11*
X213710071Y-229233479D03*
X213710071Y-229633529D03*
X213710071Y-230033579D03*
X213710071Y-230433629D03*
X213710071Y-230833679D03*
D12*
X214335071Y-230808579D03*
%TD*%
D13*
%TO.C,U34*%
X233750000Y-256870000D03*
X233750000Y-255600000D03*
X233750000Y-254330000D03*
X233750000Y-253060000D03*
X233750000Y-251790000D03*
X233750000Y-250520000D03*
X233750000Y-249250000D03*
X233750000Y-247980000D03*
X233750000Y-246710000D03*
X233750000Y-245440000D03*
X233750000Y-244170000D03*
X233750000Y-242900000D03*
X233750000Y-241630000D03*
X233750000Y-240360000D03*
D14*
X231985000Y-239110000D03*
X230715000Y-239110000D03*
X229445000Y-239110000D03*
X228175000Y-239110000D03*
X226905000Y-239110000D03*
X225635000Y-239110000D03*
X224365000Y-239110000D03*
X223095000Y-239110000D03*
X221825000Y-239110000D03*
X220555000Y-239110000D03*
X219285000Y-239110000D03*
X218015000Y-239110000D03*
D13*
X216250000Y-240360000D03*
X216250000Y-241630000D03*
X216250000Y-242900000D03*
X216250000Y-244170000D03*
X216250000Y-245440000D03*
X216250000Y-246710000D03*
X216250000Y-247980000D03*
X216250000Y-249250000D03*
X216250000Y-250520000D03*
X216250000Y-251790000D03*
X216250000Y-253060000D03*
X216250000Y-254330000D03*
X216250000Y-255600000D03*
X216250000Y-256870000D03*
%TD*%
D15*
%TO.C,C1*%
X238267000Y-255132100D03*
X238267000Y-256092100D03*
%TD*%
D16*
%TO.C,IC3*%
X247268000Y-214155000D03*
X247268000Y-211855000D03*
X247268000Y-209555000D03*
D17*
X240968000Y-211855000D03*
%TD*%
D18*
%TO.C,C6*%
X227745550Y-230611579D03*
X227745550Y-231571579D03*
%TD*%
D19*
%TO.C,SW2*%
X244683200Y-254845000D03*
X241283200Y-254845000D03*
%TD*%
D20*
%TO.C,U1*%
X234949671Y-231975079D03*
X235899671Y-231975079D03*
X236849671Y-231975079D03*
X236849671Y-229700079D03*
X234949671Y-229700079D03*
%TD*%
D18*
%TO.C,C2*%
X236176000Y-253044100D03*
X236176000Y-252084100D03*
%TD*%
D21*
%TO.C,C37*%
X251992000Y-209582500D03*
X251992000Y-206507500D03*
%TD*%
D10*
%TO.C,R3*%
X238267000Y-254155450D03*
X238267000Y-253135450D03*
%TD*%
D18*
%TO.C,C4*%
X239605000Y-240145600D03*
X239605000Y-239185600D03*
%TD*%
D15*
%TO.C,C12*%
X214335071Y-233053579D03*
X214335071Y-232093579D03*
%TD*%
D22*
%TO.C,C38*%
X251992000Y-213646000D03*
X251992000Y-212096000D03*
%TD*%
D15*
%TO.C,C3*%
X239595400Y-241900800D03*
X239595400Y-242860800D03*
%TD*%
D18*
%TO.C,C5*%
X233585200Y-230590600D03*
X233585200Y-231550600D03*
%TD*%
D15*
%TO.C,C36*%
X237065000Y-255132100D03*
X237065000Y-256092100D03*
%TD*%
D18*
%TO.C,C34*%
X192683000Y-248621000D03*
X192683000Y-247661000D03*
%TD*%
D19*
%TO.C,SW1*%
X204250000Y-254845000D03*
X207650000Y-254845000D03*
%TD*%
D20*
%TO.C,U2*%
X229107671Y-231975079D03*
X230057671Y-231975079D03*
X231007671Y-231975079D03*
X231007671Y-229700079D03*
X229107671Y-229700079D03*
%TD*%
D23*
%TO.C,IC1*%
X192499452Y-240348000D03*
X192499452Y-240848000D03*
X192499452Y-241348000D03*
X192499452Y-241848000D03*
X192499452Y-242348000D03*
X192499452Y-242848000D03*
X192499452Y-243348000D03*
X192499452Y-243848000D03*
X192499452Y-244348000D03*
X192499452Y-244848000D03*
X192499452Y-245348000D03*
X192499452Y-245848000D03*
D24*
X193911952Y-247260500D03*
X194411952Y-247260500D03*
X194911952Y-247260500D03*
X195411952Y-247260500D03*
X195911952Y-247260500D03*
X196411952Y-247260500D03*
X196911952Y-247260500D03*
X197411952Y-247260500D03*
X197911952Y-247260500D03*
X198411952Y-247260500D03*
X198911952Y-247260500D03*
X199411952Y-247260500D03*
D23*
X200824452Y-245848000D03*
X200824452Y-245348000D03*
X200824452Y-244848000D03*
X200824452Y-244348000D03*
X200824452Y-243848000D03*
X200824452Y-243348000D03*
X200824452Y-242848000D03*
X200824452Y-242348000D03*
X200824452Y-241848000D03*
X200824452Y-241348000D03*
X200824452Y-240848000D03*
X200824452Y-240348000D03*
D24*
X199411952Y-238935500D03*
X198911952Y-238935500D03*
X198411952Y-238935500D03*
X197911952Y-238935500D03*
X197411952Y-238935500D03*
X196911952Y-238935500D03*
X196411952Y-238935500D03*
X195911952Y-238935500D03*
X195411952Y-238935500D03*
X194911952Y-238935500D03*
X194411952Y-238935500D03*
X193911952Y-238935500D03*
%TD*%
M02*
